<svg version="1.1" xmlns="http://www.w3.org/2000/svg" viewBox="0 0 925.901755440347 929.9999913147527" width="1851.803510880694" height="1859.9999826295054">
  <!-- svg-source:excalidraw -->
  
  <defs>
    <style class="style-fonts">
      @font-face { font-family: Nunito; src: url(https://unpkg.com/@excalidraw/excalidraw/dist/prod/fonts/Nunito/Nunito-Regular-XRXI3I6Li01BKofiOc5wtlZ2di8HDIkhdTQ3j6zbXWjgeg.woff2); }
      @font-face { font-family: Excalifont; src: url(https://unpkg.com/@excalidraw/excalidraw/dist/prod/fonts/Excalifont/Excalifont-Regular-a88b72a24fb54c9f94e3b5fdaa7481c9.woff2); }
    </style>
    
  </defs>
  <rect x="0" y="0" width="925.901755440347" height="929.9999913147527" fill="#ffffff"></rect><g stroke-linecap="round"><g transform="translate(10.865759956948466 470) rotate(0 440.3240104000643 -0.6662533602677172)"><path d="M0.39 -0.11 C146.94 -0.13, 732.8 -0.99, 879.21 -1.13 M-0.87 -1.22 C146.08 -1.04, 734.5 -0.37, 881.51 -0.19" stroke="#1e1e1e" stroke-width="4" fill="none"></path></g><g transform="translate(10.865759956948466 470) rotate(0 440.3240104000643 -0.6662533602677172)"><path d="M858.01 8.33 C864.72 4.48, 869.84 1.45, 881.51 -0.19 M858.01 8.33 C862.63 6.24, 869.32 4.67, 881.51 -0.19" stroke="#1e1e1e" stroke-width="4" fill="none"></path></g><g transform="translate(10.865759956948466 470) rotate(0 440.3240104000643 -0.6662533602677172)"><path d="M858.03 -8.77 C864.58 -7.66, 869.7 -5.72, 881.51 -0.19 M858.03 -8.77 C862.69 -7.07, 869.38 -4.85, 881.51 -0.19" stroke="#1e1e1e" stroke-width="4" fill="none"></path></g></g><mask></mask><g stroke-linecap="round"><g transform="translate(450.86575995694847 450) rotate(0 0.07153718465355041 10.017673918460503)"><path d="M-0.51 0.15 C-0.49 3.46, 0.48 16.42, 0.65 19.81 M0.23 -0.24 C0.15 3.12, 0.3 16.98, 0.29 20.28" stroke="#1e1e1e" stroke-width="4" fill="none"></path></g></g><mask></mask><g stroke-linecap="round"><g transform="translate(551.1764878340718 450.4776399206975) rotate(0 0.22647324686687398 9.988501730693969)"><path d="M0.28 0 C0.16 3.48, -0.26 17.17, -0.31 20.45 M-0.24 -0.48 C-0.21 2.89, 0.78 16.28, 0.76 19.72" stroke="#1e1e1e" stroke-width="2" fill="none"></path></g></g><mask></mask><g stroke-linecap="round"><g transform="translate(651.3097725661282 450.4083135486301) rotate(0 0.17224146352953085 10.098221171880141)"><path d="M-0.15 0.04 C-0.26 3.39, -0.47 16.67, -0.44 19.94 M0.78 -0.41 C0.81 3.04, 0.74 17.19, 0.57 20.6" stroke="#1e1e1e" stroke-width="2" fill="none"></path></g></g><mask></mask><g stroke-linecap="round"><g transform="translate(751.3082023030738 450.52654106161094) rotate(0 -0.10953748733442126 9.90291026162214)"><path d="M0.22 -0.03 C0.15 3.29, 0.04 16.92, 0 20.33 M-0.33 -0.53 C-0.51 2.6, -0.42 16.18, -0.44 19.54" stroke="#1e1e1e" stroke-width="2" fill="none"></path></g></g><mask></mask><g stroke-linecap="round"><g transform="translate(851.3480527984118 450.7277502773562) rotate(0 0.059534447626219844 9.997321364819072)"><path d="M0.12 -0.17 C0.05 3.14, -0.31 16.56, -0.42 20.02 M-0.48 -0.73 C-0.38 2.66, 0.43 17.31, 0.6 20.72" stroke="#1e1e1e" stroke-width="2" fill="none"></path></g></g><mask></mask><g stroke-linecap="round"><g transform="translate(51.34607145213232 450.6768185393) rotate(0 -0.08230718886821364 9.932711886605261)"><path d="M0.11 -0.07 C0.17 3.41, 0.38 17.15, 0.32 20.44 M-0.49 -0.58 C-0.48 2.79, 0.1 16.26, 0.05 19.71" stroke="#1e1e1e" stroke-width="2" fill="none"></path></g></g><mask></mask><g stroke-linecap="round"><g transform="translate(151.47935618418893 450.60749216723246) rotate(0 0.2620246180612469 10.210661237249155)"><path d="M0.32 0.44 C0.25 3.74, -0.14 16.43, -0.28 19.69 M-0.18 0.2 C-0.08 3.56, 0.69 16.82, 0.81 20.22" stroke="#1e1e1e" stroke-width="2" fill="none"></path></g></g><mask></mask><g stroke-linecap="round"><g transform="translate(251.47778592113463 450.72571968021333) rotate(0 0.03063875251450554 10.198152154898253)"><path d="M-0.28 -0.31 C-0.42 2.95, -0.49 16.71, -0.51 20.01 M0.57 0.71 C0.57 4.03, 0.43 17.53, 0.46 20.71" stroke="#1e1e1e" stroke-width="2" fill="none"></path></g></g><mask></mask><g stroke-linecap="round"><g transform="translate(351.5176364164724 450.9269288959586) rotate(0 0.06541992823144938 9.728864702144648)"><path d="M-0.51 0.01 C-0.53 3.31, -0.39 16.18, -0.39 19.49 M0.23 -0.46 C0.4 2.91, 0.59 16.45, 0.64 19.92" stroke="#1e1e1e" stroke-width="2" fill="none"></path></g></g><mask></mask><g transform="translate(410.86575995694847 470) rotate(0 13.333334620036794 30)"><text x="0" y="44.62222222222225" font-family="Nunito, Segoe UI Emoji" font-size="44.444444444444464px" fill="#1e1e1e" text-anchor="start" style="white-space: pre;" direction="ltr" dominant-baseline="alphabetic">0</text></g><g transform="translate(530.8657599569485 490) rotate(0 21.49785089492798 44.99999565737636)"><text x="0" y="66.93332687408277" font-family="Nunito, Segoe UI Emoji" font-size="66.66666023315015px" fill="#1e1e1e" text-anchor="start" style="white-space: pre;" direction="ltr" dominant-baseline="alphabetic">1</text></g><g transform="translate(630.8657599569485 490) rotate(0 20.364631175994873 44.99999565737636)"><text x="0" y="66.93332687408277" font-family="Nunito, Segoe UI Emoji" font-size="66.66666023315015px" fill="#1e1e1e" text-anchor="start" style="white-space: pre;" direction="ltr" dominant-baseline="alphabetic">2</text></g><g transform="translate(830.8657599569485 490) rotate(0 20.63127112388611 44.99999565737636)"><text x="0" y="66.93332687408277" font-family="Nunito, Segoe UI Emoji" font-size="66.66666023315015px" fill="#1e1e1e" text-anchor="start" style="white-space: pre;" direction="ltr" dominant-baseline="alphabetic">4</text></g><g transform="translate(730.8657599569485 490) rotate(0 19.998001098632812 44.99999565737636)"><text x="0" y="66.93332687408277" font-family="Nunito, Segoe UI Emoji" font-size="66.66666023315015px" fill="#1e1e1e" text-anchor="start" style="white-space: pre;" direction="ltr" dominant-baseline="alphabetic">3</text></g><g transform="translate(10.865759956948466 490) rotate(0 35.52978014945984 44.99999565737636)"><text x="0" y="66.93332687408277" font-family="Nunito, Segoe UI Emoji" font-size="66.66666023315015px" fill="#1e1e1e" text-anchor="start" style="white-space: pre;" direction="ltr" dominant-baseline="alphabetic">-4</text></g><g transform="translate(110.86575995694847 490) rotate(0 34.22991180419922 44.99999565737636)"><text x="0" y="66.93332687408277" font-family="Nunito, Segoe UI Emoji" font-size="66.66666023315015px" fill="#1e1e1e" text-anchor="start" style="white-space: pre;" direction="ltr" dominant-baseline="alphabetic">-3</text></g><g transform="translate(310.86575995694847 490) rotate(0 34.22991180419922 44.99999565737636)"><text x="0" y="66.93332687408277" font-family="Nunito, Segoe UI Emoji" font-size="66.66666023315015px" fill="#1e1e1e" text-anchor="start" style="white-space: pre;" direction="ltr" dominant-baseline="alphabetic">-1</text></g><g transform="translate(210.86575995694847 490) rotate(0 34.62987017631531 44.99999565737636)"><text x="0" y="66.93332687408277" font-family="Nunito, Segoe UI Emoji" font-size="66.66666023315015px" fill="#1e1e1e" text-anchor="start" style="white-space: pre;" direction="ltr" dominant-baseline="alphabetic">-2</text></g><g stroke-linecap="round"><g transform="translate(450.86575995694847 910) rotate(0 -0.172936137654915 -439.29045571750027)"><path d="M-1.01 -0.82 C-0.86 -147.53, 0.07 -733.37, 0.36 -879.94 M0.66 1.36 C0.73 -145.17, -0.35 -731.64, -0.4 -878.38" stroke="#1e1e1e" stroke-width="4" fill="none"></path></g><g transform="translate(450.86575995694847 910) rotate(0 -0.172936137654915 -439.29045571750027)"><path d="M8.18 -854.89 C4.56 -860.36, 3.83 -865.73, -0.4 -878.38 M8.18 -854.89 C6.85 -861.58, 3.71 -868.72, -0.4 -878.38" stroke="#1e1e1e" stroke-width="4" fill="none"></path></g><g transform="translate(450.86575995694847 910) rotate(0 -0.172936137654915 -439.29045571750027)"><path d="M-8.92 -854.87 C-8.18 -860.2, -4.55 -865.58, -0.4 -878.38 M-8.92 -854.87 C-5.48 -861.6, -3.85 -868.75, -0.4 -878.38" stroke="#1e1e1e" stroke-width="4" fill="none"></path></g></g><mask></mask><g stroke-linecap="round"><g transform="translate(450.86575995694847 370) rotate(0 10.189289255083963 0.22880446641863728)"><path d="M-0.39 0.18 C2.95 0.16, 16.34 -0.04, 19.69 -0.02 M0.41 -0.21 C3.95 -0.13, 17.63 0.74, 20.77 0.66" stroke="#1e1e1e" stroke-width="2" fill="none"></path></g></g><mask></mask><g stroke-linecap="round"><g transform="translate(451.1131380172167 270.1130960337352) rotate(0 9.99326925645579 0.20756008393131253)"><path d="M-0.25 0.41 C3.2 0.44, 16.85 -0.01, 20.23 -0.11 M0.63 0.15 C4.06 0.28, 16.74 0.51, 19.92 0.53" stroke="#1e1e1e" stroke-width="2" fill="none"></path></g></g><mask></mask><g stroke-linecap="round"><g transform="translate(451.32457016871314 170.21491311906837) rotate(0 10.04250961949117 0.29325194464065163)"><path d="M-0.46 0.17 C2.72 0.26, 16.21 0.18, 19.54 0.07 M0.31 -0.21 C3.61 0.01, 17.16 0.79, 20.54 0.8" stroke="#1e1e1e" stroke-width="2" fill="none"></path></g></g><mask></mask><g stroke-linecap="round"><g transform="translate(451.13883205435235 570.8108513149093) rotate(0 10.258864119814291 -0.32823855146463643)"><path d="M-0.27 -0.16 C2.98 -0.17, 16.26 0.09, 19.71 0.15 M0.59 -0.72 C4.01 -0.92, 17.51 -0.72, 20.79 -0.73" stroke="#1e1e1e" stroke-width="2" fill="none"></path></g></g><mask></mask><g stroke-linecap="round"><g transform="translate(451.1271659837757 670.824286292037) rotate(0 9.807419528765593 -0.24890961435619374)"><path d="M-0.26 -0.23 C3.13 -0.27, 16.45 0.32, 19.88 0.33 M0.61 -0.82 C3.96 -0.79, 16.13 -0.65, 19.38 -0.47" stroke="#1e1e1e" stroke-width="2" fill="none"></path></g></g><mask></mask><g stroke-linecap="round"><g transform="translate(451.20536186782175 770.6925463812659) rotate(0 9.997658599929423 -0.013193073556749368)"><path d="M0.21 -0.35 C3.54 -0.27, 17 0.08, 20.33 0.18 M-0.34 0.67 C2.91 0.59, 16.69 -0.46, 20.08 -0.69" stroke="#1e1e1e" stroke-width="2" fill="none"></path></g></g><mask></mask><g transform="translate(370.86575995694847 530) rotate(0 34.22991180419922 44.99999565737636)"><text x="0" y="66.93332687408277" font-family="Nunito, Segoe UI Emoji" font-size="66.66666023315015px" fill="#1971c2" text-anchor="start" style="white-space: pre;" direction="ltr" dominant-baseline="alphabetic">-1</text></g><g transform="translate(370.86575995694847 630) rotate(0 34.62987017631531 44.99999565737636)"><text x="0" y="66.93332687408277" font-family="Nunito, Segoe UI Emoji" font-size="66.66666023315015px" fill="#1971c2" text-anchor="start" style="white-space: pre;" direction="ltr" dominant-baseline="alphabetic">-2</text></g><g transform="translate(370.86575995694847 730) rotate(0 34.22991180419922 44.99999565737636)"><text x="0" y="66.93332687408277" font-family="Nunito, Segoe UI Emoji" font-size="66.66666023315015px" fill="#1971c2" text-anchor="start" style="white-space: pre;" direction="ltr" dominant-baseline="alphabetic">-3</text></g><g transform="translate(390.86575995694847 130) rotate(0 19.998001098632812 44.99999565737636)"><text x="0" y="66.93332687408277" font-family="Nunito, Segoe UI Emoji" font-size="66.66666023315015px" fill="#1971c2" text-anchor="start" style="white-space: pre;" direction="ltr" dominant-baseline="alphabetic">3</text></g><g transform="translate(390.86575995694847 230) rotate(0 20.364631175994873 44.99999565737636)"><text x="0" y="66.93332687408277" font-family="Nunito, Segoe UI Emoji" font-size="66.66666023315015px" fill="#1971c2" text-anchor="start" style="white-space: pre;" direction="ltr" dominant-baseline="alphabetic">2</text></g><g transform="translate(390.86575995694847 330) rotate(0 21.49785089492798 44.99999565737636)"><text x="0" y="66.93332687408277" font-family="Nunito, Segoe UI Emoji" font-size="66.66666023315015px" fill="#1971c2" text-anchor="start" style="white-space: pre;" direction="ltr" dominant-baseline="alphabetic">1</text></g><g transform="translate(890.8657599569485 410) rotate(0 12.517997741699219 23.49624112198481)"><text x="0" y="33.120301485549774" font-family="Excalifont, Xiaolai, Segoe UI Emoji" font-size="37.593985795175676px" fill="#f08c00" text-anchor="start" style="white-space: pre;" direction="ltr" dominant-baseline="alphabetic">x</text></g><g transform="translate(470.86575995694847 10) rotate(0 10.976279556751251 23.4962411219848)"><text x="0" y="33.120301485549774" font-family="Excalifont, Xiaolai, Segoe UI Emoji" font-size="37.593985795175676px" fill="#f08c00" text-anchor="start" style="white-space: pre;" direction="ltr" dominant-baseline="alphabetic">y</text></g><g stroke-linecap="round"><g transform="translate(451.23843628481967 870.6982914433535) rotate(0 9.772041366202757 -0.2608464140537876)"><path d="M-0.37 -0.06 C2.97 0.01, 16.59 0.14, 19.92 0.18 M0.44 -0.57 C3.71 -0.64, 16.07 -0.66, 19.44 -0.7" stroke="#1e1e1e" stroke-width="2" fill="none"></path></g></g><mask></mask><g transform="translate(370.86575995694847 830) rotate(0 35.52978014945984 44.99999565737636)"><text x="0" y="66.93332687408277" font-family="Nunito, Segoe UI Emoji" font-size="66.66666023315015px" fill="#1971c2" text-anchor="start" style="white-space: pre;" direction="ltr" dominant-baseline="alphabetic">-4</text></g><g stroke-linecap="round"><g transform="translate(450.7766073272098 70.81152130732463) rotate(0 9.989328186223304 -0.33646536323551157)"><path d="M0.5 -0.04 C3.78 -0.07, 16.57 0.17, 19.89 0.14 M0.09 -0.54 C3.28 -0.76, 16.04 -0.89, 19.4 -0.76" stroke="#1e1e1e" stroke-width="2" fill="none"></path></g></g><mask></mask><g transform="translate(390.86575995694847 30) rotate(0 20.63127112388611 44.99999565737636)"><text x="0" y="66.93332687408277" font-family="Nunito, Segoe UI Emoji" font-size="66.66666023315015px" fill="#1971c2" text-anchor="start" style="white-space: pre;" direction="ltr" dominant-baseline="alphabetic">4</text></g></svg>