<svg version="1.1" xmlns="http://www.w3.org/2000/svg" viewBox="0 0 1080 1004.2084309183927" width="2160" height="2008.4168618367853">
  <!-- svg-source:excalidraw -->
  
  <defs>
    <style class="style-fonts">
      @font-face { font-family: Virgil; src: url(https://unpkg.com/@excalidraw/excalidraw/dist/prod/fonts/Virgil/Virgil-Regular.woff2); }
      @font-face { font-family: Comic Shanns; src: url(https://unpkg.com/@excalidraw/excalidraw/dist/prod/fonts/ComicShanns/ComicShanns-Regular-279a7b317d12eb88de06167bd672b4b4.woff2); }
    </style>
    
  </defs>
  <rect x="0" y="0" width="1080" height="1004.2084309183927" fill="#ffffff"></rect><g stroke-linecap="round"><g stroke-opacity="0.8" fill-opacity="0.8" transform="translate(451.18761602228557 12.447878194454404) rotate(0 38.68118580041573 22.723332960850136)"><path d="M1.19 0.8 C8.12 0.6, 27.87 -1.14, 40.43 -1.29 C52.99 -1.44, 67.78 -1.62, 76.54 -0.1 C85.29 1.41, 89.24 3.9, 92.95 7.79 C96.66 11.69, 98.9 18.14, 98.79 23.24 C98.68 28.34, 96.03 34.63, 92.27 38.39 C88.52 42.14, 84.82 44.48, 76.27 45.77 C67.72 47.07, 53.25 46.21, 40.96 46.17 C28.67 46.14, 11.75 46.84, 2.53 45.58 C-6.68 44.31, -10.33 42.2, -14.31 38.56 C-18.3 34.92, -21.02 28.97, -21.38 23.73 C-21.74 18.49, -20.16 11.09, -16.5 7.12 C-12.83 3.15, -1.94 1.27, 0.61 -0.09 M0.35 0.17 C7.27 0.19, 27.22 0.66, 39.73 0.27 C52.25 -0.11, 66.56 -3.47, 75.42 -2.14 C84.28 -0.8, 89.27 3.96, 92.91 8.3 C96.56 12.63, 97.25 18.94, 97.29 23.86 C97.32 28.78, 96.6 33.87, 93.12 37.83 C89.63 41.78, 84.7 46.32, 76.39 47.6 C68.08 48.88, 55.75 45.57, 43.26 45.51 C30.78 45.44, 10.97 47.95, 1.49 47.22 C-8 46.5, -9.86 44.94, -13.65 41.15 C-17.45 37.35, -21.1 30.24, -21.29 24.46 C-21.48 18.68, -18.55 10.71, -14.81 6.47 C-11.06 2.23, -1.5 0.41, 1.16 -0.97" stroke="#f08c00" stroke-width="2" fill="none"></path></g></g><mask></mask><g stroke-opacity="0.8" fill-opacity="0.8" transform="translate(469.937843905623 25.657418504566607) rotate(0 18.718499363001513 11.669887634192776)"><text x="18.718499363001516" y="16.449873609158132" font-family="Virgil, Segoe UI Emoji" font-size="18.671820214708436px" fill="#f08c00" text-anchor="middle" style="white-space: pre;" direction="ltr" dominant-baseline="alphabetic">开始</text></g><g stroke-linecap="round"><g transform="translate(426.7300486485805 92.17194717874457) rotate(0 53.26995135141948 33.539027235758354)"><path d="M0 0 C44.28 -1.29, 89.66 -1.78, 143.27 -0.87 M0 0 C37.61 -1.65, 73.14 -2.34, 143.27 -0.87 M143.27 -0.87 C130.7 26.6, 118.74 53.96, 113.3 68.55 M143.27 -0.87 C136.21 16.23, 128.99 32.01, 113.3 68.55 M113.3 68.55 C54.16 68.34, -2.48 66.62, -36.73 68.75 M113.3 68.55 C83.59 67.91, 52.53 66.5, -36.73 68.75 M-36.73 68.75 C-22.88 43.66, -14.22 15.88, -4.17 0.03 M-36.73 68.75 C-27.51 50.21, -19.26 30.48, -4.17 0.03" stroke="#0c8599" stroke-width="2" fill="none"></path></g></g><mask></mask><g transform="translate(430 110.49516288588734) rotate(0 50.017483520507824 13.166799392978533)"><text x="50.01748352050782" y="18.43351915016995" font-family="Comic Shanns, Segoe UI Emoji" font-size="21.06687902876566px" fill="#0c8599" text-anchor="middle" style="white-space: pre;" direction="ltr" dominant-baseline="alphabetic">读取 x, b</text></g><g stroke-linecap="round" transform="translate(370 310.49516288588734) rotate(0 120 30)"><path d="M0 0 C85.02 -0.56, 171.45 -2.09, 240 0 M0 0 C49.36 -1.18, 99.61 -0.86, 240 0 M240 0 C240.88 19.39, 240.53 36.14, 240 60 M240 0 C240.58 18.29, 240.11 37.9, 240 60 M240 60 C182.12 61.12, 124.69 62.37, 0 60 M240 60 C165.66 60.76, 91.1 59.62, 0 60 M0 60 C0.27 46.56, -0.85 31.31, 0 0 M0 60 C-0.22 43.9, 0.35 28.11, 0 0" stroke="#1971c2" stroke-width="2" fill="none"></path></g><g transform="translate(432.5 327.99516288588734) rotate(0 57.5 12.5)"><text x="57.5" y="17.5" font-family="Comic Shanns, Segoe UI Emoji" font-size="20px" fill="#1971c2" text-anchor="middle" style="white-space: pre;" direction="ltr" dominant-baseline="alphabetic">令 i 等于 0</text></g><g stroke-linecap="round"><g transform="translate(490 70.49516288588734) rotate(0 0.13290487832256304 10.013625650340686)"><path d="M-0.43 -0.47 C-0.53 2.86, -0.44 17.09, -0.33 20.5 M0.35 0.47 C0.41 3.9, 0.8 16.45, 0.73 19.79" stroke="#1e1e1e" stroke-width="2" fill="none"></path></g><g transform="translate(490 70.49516288588734) rotate(0 0.13290487832256304 10.013625650340686)"><path d="M-2.77 10.42 C-1.94 13.4, 0.17 17.13, 0.73 19.79 M-2.77 10.42 C-1.88 13.43, -0.57 16.11, 0.73 19.79" stroke="#1e1e1e" stroke-width="2" fill="none"></path></g><g transform="translate(490 70.49516288588734) rotate(0 0.13290487832256304 10.013625650340686)"><path d="M4.07 10.37 C2.52 13.34, 2.24 17.09, 0.73 19.79 M4.07 10.37 C2.94 13.36, 2.24 16.06, 0.73 19.79" stroke="#1e1e1e" stroke-width="2" fill="none"></path></g></g><mask></mask><g stroke-linecap="round"><g transform="translate(490 170.49516288588734) rotate(0 -0.0024710347514087516 9.491642757635248)"><path d="M-0.4 -0.49 C-0.28 2.57, 0.24 15.63, 0.32 18.84 M0.39 0.45 C0.47 3.83, 0 16.34, -0.13 19.47" stroke="#1e1e1e" stroke-width="2" fill="none"></path></g><g transform="translate(490 170.49516288588734) rotate(0 -0.0024710347514087516 9.491642757635248)"><path d="M-3.04 10.44 C-2.76 12.48, -1.79 14.36, -0.13 19.47 M-3.04 10.44 C-2.23 12.93, -1.72 15.31, -0.13 19.47" stroke="#1e1e1e" stroke-width="2" fill="none"></path></g><g transform="translate(490 170.49516288588734) rotate(0 -0.0024710347514087516 9.491642757635248)"><path d="M3.45 10.68 C2.25 12.64, 1.74 14.47, -0.13 19.47 M3.45 10.68 C2.54 13.09, 1.34 15.4, -0.13 19.47" stroke="#1e1e1e" stroke-width="2" fill="none"></path></g></g><mask></mask><g stroke-linecap="round"><g transform="translate(490.48336123225056 271.2197238161459) rotate(0 -0.10311345945706307 18.781970743790737)"><path d="M-0.48 -0.16 C-0.54 6.19, 0.05 31.41, 0.09 37.73 M0.28 -0.72 C0.11 5.73, -0.14 31.79, -0.29 38.29" stroke="#1e1e1e" stroke-width="2" fill="none"></path></g><g transform="translate(490.48336123225056 271.2197238161459) rotate(0 -0.10311345945706307 18.781970743790737)"><path d="M-6.51 20.33 C-4.45 27.48, -2.22 33.95, -0.29 38.29 M-6.51 20.33 C-4.59 24.76, -3.61 29.63, -0.29 38.29" stroke="#1e1e1e" stroke-width="2" fill="none"></path></g><g transform="translate(490.48336123225056 271.2197238161459) rotate(0 -0.10311345945706307 18.781970743790737)"><path d="M6.49 20.54 C3.51 27.55, 0.7 33.94, -0.29 38.29 M6.49 20.54 C5.04 24.94, 2.65 29.75, -0.29 38.29" stroke="#1e1e1e" stroke-width="2" fill="none"></path></g></g><mask></mask><g stroke-linecap="round"><g stroke-opacity="0.8" fill-opacity="0.8" transform="translate(437.9124484357225 930.857590874979) rotate(0 52.01153586281117 29.99718513765481)"><path d="M0.93 0.95 C9.42 0.43, 34.78 -2.19, 51.5 -2.43 C68.23 -2.67, 89.4 -2.69, 101.29 -0.49 C113.19 1.71, 118.13 5.71, 122.89 10.8 C127.65 15.88, 129.89 23.47, 129.85 30 C129.81 36.53, 127.27 44.55, 122.67 49.98 C118.07 55.42, 113.72 60.87, 102.22 62.61 C90.73 64.34, 70.31 60.42, 53.69 60.39 C37.06 60.37, 14.56 63.84, 2.47 62.46 C-9.62 61.09, -13.79 57.2, -18.85 52.13 C-23.91 47.07, -27.81 39.29, -27.88 32.09 C-27.95 24.89, -24.09 14.22, -19.29 8.93 C-14.49 3.65, -2.18 1.73, 0.91 0.39 M-0.04 0.4 C8.76 -0.03, 36.92 -0.74, 53.65 -1.24 C70.38 -1.74, 88.78 -4.72, 100.35 -2.61 C111.92 -0.51, 117.79 5.89, 123.04 11.39 C128.3 16.89, 131.74 24.06, 131.9 30.38 C132.05 36.69, 128.76 44.04, 123.97 49.28 C119.17 54.53, 114.5 59.55, 103.13 61.85 C91.76 64.15, 72.75 63.13, 55.76 63.08 C38.76 63.03, 13.5 63.46, 1.17 61.55 C-11.16 59.63, -13.41 56.32, -18.23 51.6 C-23.05 46.87, -27.4 39.85, -27.73 33.19 C-28.05 26.53, -25.06 17.22, -20.17 11.64 C-15.27 6.07, -1.44 1.52, 1.62 -0.23" stroke="#f08c00" stroke-width="2" fill="none"></path></g></g><mask></mask><g stroke-opacity="0.8" fill-opacity="0.8" transform="translate(465.0039749894937 949.8169995381163) rotate(0 22.2296390081774 13.790099390877003)"><text x="22.22963900817741" y="19.438524101380168" font-family="Virgil, Segoe UI Emoji" font-size="22.06415902540314px" fill="#f08c00" text-anchor="middle" style="white-space: pre;" direction="ltr" dominant-baseline="alphabetic">结束</text></g><g stroke-linecap="round" transform="translate(330 190.49516288588734) rotate(0 160 40)"><path d="M161 0 C193.3 7.68, 226.05 17.61, 320 41 M161 0 C203.43 12.12, 246.48 22.17, 320 41 M320 41 C274.09 50.38, 225.95 63.47, 161 80 M320 41 C261.49 55.58, 201.03 69.91, 161 80 M161 80 C115.35 68.87, 67.38 58, 0 41 M161 80 C126.67 71.02, 92.45 64.05, 0 41 M0 41 C34.94 30.49, 72.49 20.31, 161 0 M0 41 C38.86 32.39, 76.58 22.54, 161 0" stroke="#9c36b5" stroke-width="2" fill="none"></path></g><g transform="translate(442.4600003361702 217.99516288588734) rotate(0 47.5399996638298 12.5)"><text x="47.5399996638298" y="17.5" font-family="Comic Shanns, Segoe UI Emoji" font-size="20px" fill="#9c36b5" text-anchor="middle" style="white-space: pre;" direction="ltr" dominant-baseline="alphabetic">b 大于 1?</text></g><g stroke-linecap="round" transform="translate(330 430.49516288588734) rotate(0 160 30)"><path d="M0 0 C65.65 0.73, 131.21 -0.16, 320 0 M0 0 C74.33 0.58, 146.84 0.71, 320 0 M320 0 C318.57 13.91, 318.93 25.75, 320 60 M320 0 C320.59 21.74, 319.67 42.75, 320 60 M320 60 C212.82 63, 104.14 62.71, 0 60 M320 60 C245.46 60.81, 169.9 60.89, 0 60 M0 60 C-1.5 41, 0.28 22.72, 0 0 M0 60 C0.85 39.63, 0.09 18.05, 0 0" stroke="#1971c2" stroke-width="2" fill="none"></path></g><g transform="translate(343.92000609636307 447.99516288588734) rotate(0 146.07999390363693 12.5)"><text x="146.07999390363693" y="17.5" font-family="Comic Shanns, Segoe UI Emoji" font-size="20px" fill="#1971c2" text-anchor="middle" style="white-space: pre;" direction="ltr" dominant-baseline="alphabetic">令 d[i] 等于 x 除以 b 的余数</text></g><g stroke-linecap="round"><g transform="translate(490 370.49516288588734) rotate(0 0.23018285689880713 29.082023641660328)"><path d="M-0.6 -0.05 C-0.38 9.52, 0.21 48.4, 0.31 58.01 M1.29 -1.12 C1.4 8.56, -0.44 49.35, -0.83 59.29" stroke="#1e1e1e" stroke-width="2" fill="none"></path></g><g transform="translate(490 370.49516288588734) rotate(0 0.23018285689880713 29.082023641660328)"><path d="M-8.4 35.46 C-6.7 40.1, -5.79 44.87, -0.83 59.29 M-8.4 35.46 C-7.02 40.58, -5 47.12, -0.83 59.29" stroke="#1e1e1e" stroke-width="2" fill="none"></path></g><g transform="translate(490 370.49516288588734) rotate(0 0.23018285689880713 29.082023641660328)"><path d="M8.69 36.17 C6.63 40.57, 3.78 45.19, -0.83 59.29 M8.69 36.17 C6.19 41.27, 4.36 47.65, -0.83 59.29" stroke="#1e1e1e" stroke-width="2" fill="none"></path></g></g><mask></mask><g stroke-linecap="round" transform="translate(330 530.4951628858873) rotate(0 160 30)"><path d="M0 0 C83.79 0.54, 169.32 -1.16, 320 0 M0 0 C111.12 1.87, 223.28 2.68, 320 0 M320 0 C319.13 11.34, 321.24 24.05, 320 60 M320 0 C320.16 23.78, 320.44 48.33, 320 60 M320 60 C214.02 60.95, 110.71 60.01, 0 60 M320 60 C216.07 61.35, 112.64 60.8, 0 60 M0 60 C-1.89 37.96, -2 12.71, 0 0 M0 60 C0.9 42.51, 1.21 25.54, 0 0" stroke="#1971c2" stroke-width="2" fill="none"></path></g><g transform="translate(370.5 547.9951628858873) rotate(0 119.5 12.5)"><text x="119.5" y="17.5" font-family="Comic Shanns, Segoe UI Emoji" font-size="20px" fill="#1971c2" text-anchor="middle" style="white-space: pre;" direction="ltr" dominant-baseline="alphabetic">令 x 等于 x 除以 b 的商</text></g><g stroke-linecap="round"><g transform="translate(490.6477643801504 490.13965943173014) rotate(0 -0.18795978839040117 19.41064998182702)"><path d="M-0.48 0.55 C-0.45 6.8, -0.2 31.58, -0.14 37.85 M0.27 0.36 C0.24 6.65, -0.51 32.06, -0.65 38.47" stroke="#1e1e1e" stroke-width="2" fill="none"></path></g><g transform="translate(490.6477643801504 490.13965943173014) rotate(0 -0.18795978839040117 19.41064998182702)"><path d="M-6.68 20.45 C-4.21 24.6, -3.96 28.96, -0.65 38.47 M-6.68 20.45 C-4.99 25.92, -3.2 32.08, -0.65 38.47" stroke="#1e1e1e" stroke-width="2" fill="none"></path></g><g transform="translate(490.6477643801504 490.13965943173014) rotate(0 -0.18795978839040117 19.41064998182702)"><path d="M6.31 20.79 C5.63 24.8, 2.72 29.07, -0.65 38.47 M6.31 20.79 C3.8 26.18, 1.39 32.23, -0.65 38.47" stroke="#1e1e1e" stroke-width="2" fill="none"></path></g></g><mask></mask><g stroke-linecap="round" transform="translate(330 630.4951628858873) rotate(0 160 40)"><path d="M161 0 C198.04 9.31, 234.66 16.43, 320 41 M161 0 C205.34 13.19, 251.64 23.65, 320 41 M320 41 C263.12 55.02, 207.3 65.51, 161 80 M320 41 C271.93 52.6, 224.74 64.37, 161 80 M161 80 C116.71 66.8, 69.18 57.55, 0 41 M161 80 C128.43 74.08, 96 65.55, 0 41 M0 41 C57.26 27.97, 116.07 10.02, 161 0 M0 41 C42.98 30.9, 83.1 20.17, 161 0" stroke="#9c36b5" stroke-width="2" fill="none"></path></g><g transform="translate(442.5 657.9951628858873) rotate(0 47.5 12.5)"><text x="47.5" y="17.5" font-family="Comic Shanns, Segoe UI Emoji" font-size="20px" fill="#9c36b5" text-anchor="middle" style="white-space: pre;" direction="ltr" dominant-baseline="alphabetic">x 等于 0?</text></g><g stroke-linecap="round"><g transform="translate(490.5716959784505 591.0213501352116) rotate(0 -0.14658012638170703 19.094826909780977)"><path d="M0.07 -0.03 C0.04 6.21, 0.28 31.61, 0.28 38.01 M-0.56 -0.53 C-0.68 6.05, -0.06 32.38, -0.01 38.72" stroke="#1e1e1e" stroke-width="2" fill="none"></path></g><g transform="translate(490.5716959784505 591.0213501352116) rotate(0 -0.14658012638170703 19.094826909780977)"><path d="M-6.8 20.97 C-4.14 28.32, -1.43 34.81, -0.01 38.72 M-6.8 20.97 C-4.66 27.1, -1.9 34.15, -0.01 38.72" stroke="#1e1e1e" stroke-width="2" fill="none"></path></g><g transform="translate(490.5716959784505 591.0213501352116) rotate(0 -0.14658012638170703 19.094826909780977)"><path d="M6.2 20.76 C3.82 28.2, 1.49 34.78, -0.01 38.72 M6.2 20.76 C3.6 26.94, 1.62 34.07, -0.01 38.72" stroke="#1e1e1e" stroke-width="2" fill="none"></path></g></g><mask></mask><g stroke-linecap="round"><g transform="translate(415.2978642641431 748.5207718083068) rotate(0 94.70213573585687 60.459239650532766)"><path d="M0 0 C86.73 -1.92, 170.94 -0.72, 254.7 -1.55 M0 0 C66.6 -0.55, 131.48 -0.11, 254.7 -1.55 M254.7 -1.55 C239.4 31.7, 226.08 62.69, 201.42 121.87 M254.7 -1.55 C243.33 24.35, 230.6 52.03, 201.42 121.87 M201.42 121.87 C130.18 118.73, 57.02 121, -65.3 122.23 M201.42 121.87 C129.96 122.67, 57.92 122.53, -65.3 122.23 M-65.3 122.23 C-45.68 82.94, -30.16 46.08, -7.42 0.06 M-65.3 122.23 C-54.76 99.01, -43.14 74.22, -7.42 0.06" stroke="#0c8599" stroke-width="2" fill="none"></path></g></g><mask></mask><g transform="translate(370 770.4951628858873) rotate(0 129.59248745441437 29.19911466589292)"><text x="129.59248745441437" y="20.43938026612506" font-family="Comic Shanns, Segoe UI Emoji" font-size="23.359291732714354px" fill="#0c8599" text-anchor="middle" style="white-space: pre;" direction="ltr" dominant-baseline="alphabetic">输出 </text><text x="129.59248745441437" y="49.638494932018006" font-family="Comic Shanns, Segoe UI Emoji" font-size="23.359291732714354px" fill="#0c8599" text-anchor="middle" style="white-space: pre;" direction="ltr" dominant-baseline="alphabetic">(d[i]d[i-1]...d[0])b</text></g><g stroke-linecap="round"><g transform="translate(490.1508390744682 710.7481265423072) rotate(0 0.31392058229698705 19.086532600908527)"><path d="M-0.15 -0.25 C-0.06 6.05, 0.28 31.52, 0.29 37.82 M0.77 0.81 C0.85 7.18, 0.21 32.24, 0.01 38.43" stroke="#1e1e1e" stroke-width="2" fill="none"></path></g><g transform="translate(490.1508390744682 710.7481265423072) rotate(0 0.31392058229698705 19.086532600908527)"><path d="M-5.99 20.4 C-4.93 25.4, -3.31 29.25, 0.01 38.43 M-5.99 20.4 C-4.37 23.86, -3.37 27.91, 0.01 38.43" stroke="#1e1e1e" stroke-width="2" fill="none"></path></g><g transform="translate(490.1508390744682 710.7481265423072) rotate(0 0.31392058229698705 19.086532600908527)"><path d="M7 20.76 C4.83 25.65, 3.21 29.42, 0.01 38.43 M7 20.76 C5.82 24.13, 4.02 28.1, 0.01 38.43" stroke="#1e1e1e" stroke-width="2" fill="none"></path></g></g><mask></mask><g stroke-linecap="round"><g transform="translate(490.6269847350568 870.9442032888716) rotate(0 -0.7666792100295652 29.63909617450554)"><path d="M-1.13 -0.98 C-1.45 8.94, -0.98 50.23, -0.91 60.26 M0.47 1.12 C-0.12 10.63, -1.68 48.63, -2.01 58.51" stroke="#1e1e1e" stroke-width="2" fill="none"></path></g><g transform="translate(490.6269847350568 870.9442032888716) rotate(0 -0.7666792100295652 29.63909617450554)"><path d="M-9.66 34.71 C-8.21 43.44, -2.46 52.94, -2.01 58.51 M-9.66 34.71 C-8.49 41.81, -5.44 46.81, -2.01 58.51" stroke="#1e1e1e" stroke-width="2" fill="none"></path></g><g transform="translate(490.6269847350568 870.9442032888716) rotate(0 -0.7666792100295652 29.63909617450554)"><path d="M7.43 35.36 C2.32 43.68, 1.51 52.93, -2.01 58.51 M7.43 35.36 C3.95 42.25, 2.35 47.08, -2.01 58.51" stroke="#1e1e1e" stroke-width="2" fill="none"></path></g></g><mask></mask><g stroke-linecap="round"><g transform="translate(650 670.4951628858873) rotate(0 50.58108060752045 0.10843331599318162)"><path d="M-0.57 0.98 C16.14 1.09, 82.59 1.15, 99.36 0.83 M1.33 0.44 C18.52 0.21, 85.41 -0.76, 101.74 -0.85" stroke="#1e1e1e" stroke-width="2" fill="none"></path></g><g transform="translate(650 670.4951628858873) rotate(0 50.58108060752045 0.10843331599318162)"><path d="M78.34 7.95 C85.15 5.05, 90.09 4.19, 101.74 -0.85 M78.34 7.95 C83.39 6.67, 87.98 3.63, 101.74 -0.85" stroke="#1e1e1e" stroke-width="2" fill="none"></path></g><g transform="translate(650 670.4951628858873) rotate(0 50.58108060752045 0.10843331599318162)"><path d="M78.15 -9.15 C85.02 -8.26, 90.01 -5.32, 101.74 -0.85 M78.15 -9.15 C83.24 -6.66, 87.87 -5.92, 101.74 -0.85" stroke="#1e1e1e" stroke-width="2" fill="none"></path></g></g><mask></mask><g stroke-linecap="round" transform="translate(750 630.4951628858873) rotate(0 160 30)"><path d="M0 0 C104.8 -0.04, 209.13 0.85, 320 0 M0 0 C89.57 -1.96, 178.33 -0.9, 320 0 M320 0 C321.83 23.08, 321.15 44.52, 320 60 M320 0 C319.61 13.59, 320.35 26.73, 320 60 M320 60 C232.94 60.24, 144.75 58.3, 0 60 M320 60 C202.68 60, 86.91 60.6, 0 60 M0 60 C1.92 37.97, 0.08 16.42, 0 0 M0 60 C-0.92 47.05, -0.41 33.58, 0 0" stroke="#1971c2" stroke-width="2" fill="none"></path></g><g transform="translate(830.4899981617928 647.9951628858873) rotate(0 79.51000183820724 12.5)"><text x="79.51000183820724" y="17.5" font-family="Comic Shanns, Segoe UI Emoji" font-size="20px" fill="#1971c2" text-anchor="middle" style="white-space: pre;" direction="ltr" dominant-baseline="alphabetic">令 i 等于 i + 1</text></g><g stroke-linecap="round"><g transform="translate(910 630.4951628858873) rotate(0 0.20329143558626583 -119.88659587313424)"><path d="M0.47 1.14 C0.8 -38.9, 1.06 -199.02, 1.15 -239.2 M-0.74 0.69 C-0.4 -39.77, 0.55 -201.02, 0.8 -240.91" stroke="#1e1e1e" stroke-width="2" fill="none"></path></g></g><mask></mask><g stroke-linecap="round"><g transform="translate(910.7499992456846 390.5154997332671) rotate(0 -210.0221582819056 0.7430373557936605)"><path d="M0.71 0.81 C-69.08 0.74, -349.74 0.2, -419.87 -0.02 M-0.38 0.19 C-70.22 0.29, -350.67 1.46, -420.75 1.51" stroke="#1e1e1e" stroke-width="2" fill="none"></path></g><g transform="translate(910.7499992456846 390.5154997332671) rotate(0 -210.0221582819056 0.7430373557936605)"><path d="M-397.28 -7.11 C-400.74 -4.98, -406.95 -3.55, -420.75 1.51 M-397.28 -7.11 C-403.28 -5.43, -409.93 -3.72, -420.75 1.51" stroke="#1e1e1e" stroke-width="2" fill="none"></path></g><g transform="translate(910.7499992456846 390.5154997332671) rotate(0 -210.0221582819056 0.7430373557936605)"><path d="M-397.24 9.99 C-400.76 8.6, -406.98 6.5, -420.75 1.51 M-397.24 9.99 C-403.08 7.32, -409.74 4.67, -420.75 1.51" stroke="#1e1e1e" stroke-width="2" fill="none"></path></g></g><mask></mask><g stroke-linecap="round"><g transform="translate(330.9826716366224 231.45115684000058) rotate(0 -90.4917733050417 0.03917631112955178)"><path d="M0 0.96 C-29.84 1.15, -149.95 0.92, -180.02 0.77 M-1.46 0.42 C-31.37 0.3, -150.99 -1.11, -180.98 -0.94" stroke="#1e1e1e" stroke-width="2" fill="none"></path></g></g><mask></mask><g stroke-linecap="round"><g transform="translate(71.58892385271264 751.9893533177432) rotate(0 89.32302292355058 57.5769586827094)"><path d="M0 0 C50.19 0.71, 102.08 2.59, 240.23 -1.46 M0 0 C73.16 -0.24, 146.46 -1.74, 240.23 -1.46 M240.23 -1.46 C226.28 34.87, 207.73 67.86, 189.98 114.95 M240.23 -1.46 C221.06 42.79, 203.23 87.19, 189.98 114.95 M189.98 114.95 C133.78 115.57, 77.97 118.01, -61.59 115.29 M189.98 114.95 C124.92 117.44, 60.21 116.88, -61.59 115.29 M-61.59 115.29 C-40.57 74.89, -23.76 32.08, -7 0.05 M-61.59 115.29 C-41.84 74.18, -22.88 33.24, -7 0.05" stroke="#0c8599" stroke-width="2" fill="none"></path></g></g><mask></mask><g transform="translate(94.85126679522068 791.0214943953073) rotate(0 66.08999633789062 27.540595239832783)"><text x="66.08999633789062" y="19.278416667882937" font-family="Comic Shanns, Segoe UI Emoji" font-size="22.032476191866216px" fill="#0c8599" text-anchor="middle" style="white-space: pre;" direction="ltr" dominant-baseline="alphabetic">输出</text><text x="66.08999633789062" y="46.819011907715705" font-family="Comic Shanns, Segoe UI Emoji" font-size="22.032476191866216px" fill="#0c8599" text-anchor="middle" style="white-space: pre;" direction="ltr" dominant-baseline="alphabetic">不正确的进制</text></g><g stroke-linecap="round"><g transform="translate(150 230.49516288588734) rotate(0 -0.05748063951614313 259.2857576432824)"><path d="M0.18 -0.11 C0.52 86.4, 1.08 432.33, 1.07 518.85 M-1.18 -1.22 C-0.82 85.42, 0.59 432.95, 0.68 519.79" stroke="#1e1e1e" stroke-width="2" fill="none"></path></g><g transform="translate(150 230.49516288588734) rotate(0 -0.05748063951614313 259.2857576432824)"><path d="M-7.94 496.32 C-6.28 503.25, -6.11 506.75, 0.68 519.79 M-7.94 496.32 C-6.76 501.07, -5.01 506.95, 0.68 519.79" stroke="#1e1e1e" stroke-width="2" fill="none"></path></g><g transform="translate(150 230.49516288588734) rotate(0 -0.05748063951614313 259.2857576432824)"><path d="M9.16 496.27 C7.06 503.24, 3.47 506.75, 0.68 519.79 M9.16 496.27 C6.62 501.05, 4.66 506.94, 0.68 519.79" stroke="#1e1e1e" stroke-width="2" fill="none"></path></g></g><mask></mask><g stroke-linecap="round"><g transform="translate(150 870.4951628858873) rotate(0 -0.15271076420194163 9.918593892236231)"><path d="M0.17 -0.33 C0.09 2.86, 0.11 16.28, 0.08 19.65 M-0.41 0.68 C-0.6 4.18, -0.32 16.88, -0.3 20.17" stroke="#1e1e1e" stroke-width="2" fill="none"></path></g></g><mask></mask><g stroke-linecap="round"><g transform="translate(150 890.4951628858873) rotate(0 170.33509762406348 -0.07770457975567524)"><path d="M0.76 -1.14 C57.22 -0.93, 282.42 0.96, 338.86 0.98 M-0.3 0.88 C56.51 0.78, 284.54 -0.44, 340.97 -0.62" stroke="#1e1e1e" stroke-width="2" fill="none"></path></g><g transform="translate(150 890.4951628858873) rotate(0 170.33509762406348 -0.07770457975567524)"><path d="M317.52 8.03 C322.8 3.34, 333.5 1.57, 340.97 -0.62 M317.52 8.03 C322.61 6.99, 327.5 3.86, 340.97 -0.62" stroke="#1e1e1e" stroke-width="2" fill="none"></path></g><g transform="translate(150 890.4951628858873) rotate(0 170.33509762406348 -0.07770457975567524)"><path d="M317.44 -9.07 C322.72 -8.54, 333.44 -5.08, 340.97 -0.62 M317.44 -9.07 C322.66 -6.4, 327.56 -5.82, 340.97 -0.62" stroke="#1e1e1e" stroke-width="2" fill="none"></path></g></g><mask></mask><g transform="translate(510 270.49516288588734) rotate(0 12.699996948242188 17.5)"><text x="0" y="24.5" font-family="Comic Shanns, Segoe UI Emoji" font-size="28px" fill="#1e1e1e" text-anchor="start" style="white-space: pre;" direction="ltr" dominant-baseline="alphabetic">Y</text></g><g transform="translate(230 190.49516288588734) rotate(0 12.699996948242188 17.5)"><text x="0" y="24.5" font-family="Comic Shanns, Segoe UI Emoji" font-size="28px" fill="#1e1e1e" text-anchor="start" style="white-space: pre;" direction="ltr" dominant-baseline="alphabetic">N</text></g><g transform="translate(510 710.4951628858873) rotate(0 12.699996948242188 17.5)"><text x="0" y="24.5" font-family="Comic Shanns, Segoe UI Emoji" font-size="28px" fill="#1e1e1e" text-anchor="start" style="white-space: pre;" direction="ltr" dominant-baseline="alphabetic">Y</text></g><g transform="translate(690 630.4951628858873) rotate(0 12.699996948242188 17.5)"><text x="0" y="24.5" font-family="Comic Shanns, Segoe UI Emoji" font-size="28px" fill="#1e1e1e" text-anchor="start" style="white-space: pre;" direction="ltr" dominant-baseline="alphabetic">N</text></g></svg>