<svg version="1.1" xmlns="http://www.w3.org/2000/svg" viewBox="0 0 1062.3795407140256 350.2445840636238" width="2124.759081428051" height="700.4891681272476">
  <!-- svg-source:excalidraw -->
  
  <defs>
    <style class="style-fonts">
      @font-face { font-family: Nunito; src: url(https://unpkg.com/@excalidraw/excalidraw/dist/prod/fonts/Nunito/Nunito-Regular-XRXI3I6Li01BKofiOc5wtlZ2di8HDIkhdTQ3j6zbXWjgeg.woff2); }
    </style>
    
  </defs>
  <rect x="0" y="0" width="1062.3795407140256" height="350.2445840636238" fill="#ffffff"></rect><g stroke-linecap="round"><g transform="translate(10.865759956948523 170) rotate(0 520.3240104000643 -0.6662533602677279)"><path d="M0.39 -0.11 C173.61 -0.13, 866.13 -0.99, 1039.21 -1.13 M-0.87 -1.22 C172.75 -1.04, 867.84 -0.37, 1041.51 -0.19" stroke="#1e1e1e" stroke-width="4" fill="none"></path></g><g transform="translate(10.865759956948523 170) rotate(0 520.3240104000643 -0.6662533602677279)"><path d="M1018.01 8.34 C1024.72 4.48, 1029.84 1.46, 1041.51 -0.19 M1018.01 8.34 C1022.63 6.24, 1029.32 4.67, 1041.51 -0.19" stroke="#1e1e1e" stroke-width="4" fill="none"></path></g><g transform="translate(10.865759956948523 170) rotate(0 520.3240104000643 -0.6662533602677279)"><path d="M1018.03 -8.76 C1024.58 -7.66, 1029.7 -5.72, 1041.51 -0.19 M1018.03 -8.76 C1022.69 -7.06, 1029.38 -4.84, 1041.51 -0.19" stroke="#1e1e1e" stroke-width="4" fill="none"></path></g></g><mask></mask><g stroke-linecap="round"><g transform="translate(531.731519913897 150.24459274887107) rotate(0 0.07153718465357883 10.017673918460494)"><path d="M-0.51 0.15 C-0.49 3.46, 0.48 16.42, 0.65 19.81 M0.23 -0.24 C0.15 3.12, 0.3 16.98, 0.29 20.28" stroke="#1e1e1e" stroke-width="4" fill="none"></path></g></g><mask></mask><g stroke-linecap="round"><g transform="translate(632.0422477910204 150.7222326695686) rotate(0 0.2264732468669024 9.988501730693969)"><path d="M0.28 0 C0.16 3.48, -0.26 17.17, -0.31 20.45 M-0.24 -0.48 C-0.21 2.89, 0.78 16.28, 0.76 19.72" stroke="#1e1e1e" stroke-width="2" fill="none"></path></g></g><mask></mask><g stroke-linecap="round"><g transform="translate(732.1755325230768 150.65290629750115) rotate(0 0.17224146352950243 10.098221171880141)"><path d="M-0.15 0.04 C-0.26 3.39, -0.47 16.67, -0.44 19.94 M0.78 -0.41 C0.81 3.04, 0.74 17.19, 0.57 20.6" stroke="#1e1e1e" stroke-width="2" fill="none"></path></g></g><mask></mask><g stroke-linecap="round"><g transform="translate(832.1739622600223 150.771133810482) rotate(0 -0.10953748733442126 9.902910261622164)"><path d="M0.22 -0.03 C0.15 3.29, 0.04 16.92, 0 20.33 M-0.33 -0.53 C-0.51 2.6, -0.42 16.18, -0.44 19.54" stroke="#1e1e1e" stroke-width="2" fill="none"></path></g></g><mask></mask><g stroke-linecap="round"><g transform="translate(932.2138127553603 150.9723430262273) rotate(0 0.059534447626163 9.997321364819072)"><path d="M0.12 -0.17 C0.05 3.14, -0.31 16.56, -0.42 20.02 M-0.48 -0.73 C-0.38 2.66, 0.43 17.31, 0.6 20.72" stroke="#1e1e1e" stroke-width="2" fill="none"></path></g></g><mask></mask><g stroke-linecap="round"><g transform="translate(132.21183140908084 150.92141128817104) rotate(0 -0.08230718886824206 9.932711886605247)"><path d="M0.11 -0.07 C0.17 3.41, 0.38 17.15, 0.32 20.44 M-0.49 -0.58 C-0.48 2.79, 0.1 16.26, 0.05 19.71" stroke="#1e1e1e" stroke-width="2" fill="none"></path></g></g><mask></mask><g stroke-linecap="round"><g transform="translate(232.34511614113745 150.85208491610354) rotate(0 0.2620246180612611 10.210661237249148)"><path d="M0.32 0.44 C0.25 3.74, -0.14 16.43, -0.28 19.69 M-0.18 0.2 C-0.08 3.56, 0.69 16.82, 0.81 20.22" stroke="#1e1e1e" stroke-width="2" fill="none"></path></g></g><mask></mask><g stroke-linecap="round"><g transform="translate(332.34354587808315 150.9703124290844) rotate(0 0.030638752514496326 10.19815215489827)"><path d="M-0.28 -0.31 C-0.42 2.95, -0.49 16.71, -0.51 20.01 M0.57 0.71 C0.57 4.03, 0.43 17.53, 0.46 20.71" stroke="#1e1e1e" stroke-width="2" fill="none"></path></g></g><mask></mask><g stroke-linecap="round"><g transform="translate(432.3833963734209 151.17152164482968) rotate(0 0.06541992823143516 9.728864702144636)"><path d="M-0.51 0.01 C-0.53 3.31, -0.39 16.18, -0.39 19.49 M0.23 -0.46 C0.4 2.91, 0.59 16.45, 0.64 19.92" stroke="#1e1e1e" stroke-width="2" fill="none"></path></g></g><mask></mask><g transform="translate(510.8657599569485 170) rotate(0 20.00000000000003 44.99999565737636)"><text x="0" y="66.93332687408277" font-family="Nunito, Segoe UI Emoji" font-size="66.66666023315015px" fill="#1e1e1e" text-anchor="start" style="white-space: pre;" direction="ltr" dominant-baseline="alphabetic">0</text></g><g transform="translate(590.8657599569485 10) rotate(0 21.49785089492798 44.99999565737636)"><text x="0" y="66.93332687408277" font-family="Nunito, Segoe UI Emoji" font-size="66.66666023315015px" fill="#1e1e1e" text-anchor="start" style="white-space: pre;" direction="ltr" dominant-baseline="alphabetic">1</text></g><g transform="translate(690.8657599569485 10) rotate(0 20.364631175994873 44.99999565737636)"><text x="0" y="66.93332687408277" font-family="Nunito, Segoe UI Emoji" font-size="66.66666023315015px" fill="#1e1e1e" text-anchor="start" style="white-space: pre;" direction="ltr" dominant-baseline="alphabetic">2</text></g><g transform="translate(891.731519913897 10.24459274887107) rotate(0 20.63127112388611 44.99999565737636)"><text x="0" y="66.93332687408277" font-family="Nunito, Segoe UI Emoji" font-size="66.66666023315015px" fill="#1e1e1e" text-anchor="start" style="white-space: pre;" direction="ltr" dominant-baseline="alphabetic">4</text></g><g transform="translate(791.731519913897 10.24459274887107) rotate(0 19.998001098632812 44.99999565737636)"><text x="0" y="66.93332687408277" font-family="Nunito, Segoe UI Emoji" font-size="66.66666023315015px" fill="#1e1e1e" text-anchor="start" style="white-space: pre;" direction="ltr" dominant-baseline="alphabetic">3</text></g><g transform="translate(90.86575995694852 250.24459274887107) rotate(0 35.52978014945984 44.99999565737636)"><text x="0" y="66.93332687408277" font-family="Nunito, Segoe UI Emoji" font-size="66.66666023315015px" fill="#1e1e1e" text-anchor="start" style="white-space: pre;" direction="ltr" dominant-baseline="alphabetic">-4</text></g><g transform="translate(190.86575995694852 250.24459274887107) rotate(0 34.22991180419922 44.99999565737636)"><text x="0" y="66.93332687408277" font-family="Nunito, Segoe UI Emoji" font-size="66.66666023315015px" fill="#1e1e1e" text-anchor="start" style="white-space: pre;" direction="ltr" dominant-baseline="alphabetic">-3</text></g><g transform="translate(390.00000000000006 250) rotate(0 34.22991180419922 44.99999565737636)"><text x="0" y="66.93332687408277" font-family="Nunito, Segoe UI Emoji" font-size="66.66666023315015px" fill="#1e1e1e" text-anchor="start" style="white-space: pre;" direction="ltr" dominant-baseline="alphabetic">-1</text></g><g transform="translate(290.8657599569485 250.24459274887107) rotate(0 34.62987017631531 44.99999565737636)"><text x="0" y="66.93332687408277" font-family="Nunito, Segoe UI Emoji" font-size="66.66666023315015px" fill="#1e1e1e" text-anchor="start" style="white-space: pre;" direction="ltr" dominant-baseline="alphabetic">-2</text></g></svg>