<svg version="1.1" xmlns="http://www.w3.org/2000/svg" viewBox="0 0 1551.937758825618 989.9999913147527" width="3103.875517651236" height="1979.9999826295054">
  <!-- svg-source:excalidraw -->
  
  <defs>
    <style class="style-fonts">
      @font-face { font-family: Nunito; src: url(https://unpkg.com/@excalidraw/excalidraw/dist/prod/fonts/Nunito/Nunito-Regular-XRXI3I6Li01BKofiOc5wtlZ2di8HDIkhdTQ3j6zbXWjgeg.woff2); }
      @font-face { font-family: Excalifont; src: url(https://unpkg.com/@excalidraw/excalidraw/dist/prod/fonts/Excalifont/Excalifont-Regular-a88b72a24fb54c9f94e3b5fdaa7481c9.woff2); }
    </style>
    
  </defs>
  <rect x="0" y="0" width="1551.937758825618" height="989.9999913147527" fill="#ffffff"></rect><g stroke-linecap="round"><g transform="translate(10.86575995694841 530) rotate(0 730 0)"><path d="M0.39 -0.11 C243.61 -0.13, 1216.13 -0.99, 1459.21 -1.13 M-0.87 -1.22 C242.75 -1.04, 1217.84 -0.37, 1461.51 -0.19" stroke="#1e1e1e" stroke-width="4" fill="none"></path></g><g transform="translate(10.86575995694841 530) rotate(0 730 0)"><path d="M1438.02 8.34 C1444.72 4.48, 1449.84 1.46, 1461.51 -0.19 M1438.02 8.34 C1442.63 6.25, 1449.32 4.67, 1461.51 -0.19" stroke="#1e1e1e" stroke-width="4" fill="none"></path></g><g transform="translate(10.86575995694841 530) rotate(0 730 0)"><path d="M1438.03 -8.76 C1444.58 -7.66, 1449.69 -5.72, 1461.51 -0.19 M1438.03 -8.76 C1442.68 -7.06, 1449.37 -4.84, 1461.51 -0.19" stroke="#1e1e1e" stroke-width="4" fill="none"></path></g></g><mask></mask><g stroke-linecap="round"><g transform="translate(730.8657599569484 510) rotate(0 0.2573877580312569 10.122296374435535)"><path d="M-0.51 0.15 C-0.49 3.46, 0.48 16.42, 0.65 19.81 M0.23 -0.24 C0.15 3.12, 0.3 16.98, 0.29 20.28" stroke="#1e1e1e" stroke-width="4" fill="none"></path></g></g><mask></mask><g stroke-linecap="round"><g transform="translate(831.1764878340717 510.4776399206975) rotate(0 0 10)"><path d="M0.28 0 C0.16 3.48, -0.26 17.17, -0.31 20.45 M-0.24 -0.48 C-0.21 2.89, 0.78 16.28, 0.76 19.72" stroke="#1e1e1e" stroke-width="2" fill="none"></path></g></g><mask></mask><g stroke-linecap="round"><g transform="translate(931.3097725661282 510.4083135486301) rotate(0 0 10)"><path d="M-0.15 0.04 C-0.26 3.39, -0.47 16.67, -0.44 19.94 M0.78 -0.41 C0.81 3.04, 0.74 17.19, 0.57 20.6" stroke="#1e1e1e" stroke-width="2" fill="none"></path></g></g><mask></mask><g stroke-linecap="round"><g transform="translate(1031.3082023030738 510.52654106161094) rotate(0 0 10)"><path d="M0.22 -0.03 C0.15 3.29, 0.04 16.92, 0 20.33 M-0.33 -0.53 C-0.51 2.6, -0.42 16.18, -0.44 19.54" stroke="#1e1e1e" stroke-width="2" fill="none"></path></g></g><mask></mask><g stroke-linecap="round"><g transform="translate(1131.3480527984116 510.7277502773562) rotate(0 0 10)"><path d="M0.12 -0.17 C0.05 3.14, -0.31 16.56, -0.42 20.02 M-0.48 -0.73 C-0.38 2.66, 0.43 17.31, 0.6 20.72" stroke="#1e1e1e" stroke-width="2" fill="none"></path></g></g><mask></mask><g stroke-linecap="round"><g transform="translate(331.34607145213226 510.6768185393) rotate(0 0 10)"><path d="M0.11 -0.07 C0.17 3.41, 0.38 17.15, 0.32 20.44 M-0.49 -0.58 C-0.48 2.79, 0.1 16.26, 0.05 19.71" stroke="#1e1e1e" stroke-width="2" fill="none"></path></g></g><mask></mask><g stroke-linecap="round"><g transform="translate(431.4793561841889 510.60749216723246) rotate(0 0 10)"><path d="M0.32 0.44 C0.25 3.74, -0.14 16.43, -0.28 19.69 M-0.18 0.2 C-0.08 3.56, 0.69 16.82, 0.81 20.22" stroke="#1e1e1e" stroke-width="2" fill="none"></path></g></g><mask></mask><g stroke-linecap="round"><g transform="translate(531.4777859211346 510.72571968021333) rotate(0 0 10)"><path d="M-0.28 -0.31 C-0.42 2.95, -0.49 16.71, -0.51 20.01 M0.57 0.71 C0.57 4.03, 0.43 17.53, 0.46 20.71" stroke="#1e1e1e" stroke-width="2" fill="none"></path></g></g><mask></mask><g stroke-linecap="round"><g transform="translate(631.5176364164723 510.9269288959586) rotate(0 0 10)"><path d="M-0.51 0.01 C-0.53 3.31, -0.39 16.18, -0.39 19.49 M0.23 -0.46 C0.4 2.91, 0.59 16.45, 0.64 19.92" stroke="#1e1e1e" stroke-width="2" fill="none"></path></g></g><mask></mask><g transform="translate(690.8657599569484 530) rotate(0 13.333334620036794 30)"><text x="0" y="44.62222222222225" font-family="Nunito, Segoe UI Emoji" font-size="44.444444444444464px" fill="#1e1e1e" text-anchor="start" style="white-space: pre;" direction="ltr" dominant-baseline="alphabetic">0</text></g><g transform="translate(830.8657599569484 550) rotate(0 20 30)"><text x="0" y="44.62222222222222" font-family="Nunito, Segoe UI Emoji" font-size="44.444444444444436px" fill="#1e1e1e" text-anchor="start" style="white-space: pre;" direction="ltr" dominant-baseline="alphabetic">1</text></g><g transform="translate(930.8657599569484 550) rotate(0 13.576422094158602 30)"><text x="0" y="44.622222222222206" font-family="Nunito, Segoe UI Emoji" font-size="44.44444444444443px" fill="#1e1e1e" text-anchor="start" style="white-space: pre;" direction="ltr" dominant-baseline="alphabetic">2</text></g><g transform="translate(1130.8657599569483 550) rotate(0 13.754182076573784 30)"><text x="0" y="44.62222222222219" font-family="Nunito, Segoe UI Emoji" font-size="44.444444444444414px" fill="#1e1e1e" text-anchor="start" style="white-space: pre;" direction="ltr" dominant-baseline="alphabetic">4</text></g><g transform="translate(1030.8657599569483 550) rotate(0 13.332002018996718 30)"><text x="0" y="44.62222222222222" font-family="Nunito, Segoe UI Emoji" font-size="44.44444444444444px" fill="#1e1e1e" text-anchor="start" style="white-space: pre;" direction="ltr" dominant-baseline="alphabetic">3</text></g><g transform="translate(310.8657599569484 550) rotate(0 19.738765225823585 24.99999565737636)"><text x="0" y="37.18517872593462" font-family="Nunito, Segoe UI Emoji" font-size="37.037030603520535px" fill="#1e1e1e" text-anchor="start" style="white-space: pre;" direction="ltr" dominant-baseline="alphabetic">-4</text></g><g transform="translate(410.8657599569484 550) rotate(0 19.01661620087475 24.99999565737636)"><text x="0" y="37.18517872593462" font-family="Nunito, Segoe UI Emoji" font-size="37.037030603520535px" fill="#1e1e1e" text-anchor="start" style="white-space: pre;" direction="ltr" dominant-baseline="alphabetic">-3</text></g><g transform="translate(610.8657599569484 550) rotate(0 19.01661620087475 24.99999565737636)"><text x="0" y="37.18517872593463" font-family="Nunito, Segoe UI Emoji" font-size="37.03703060352054px" fill="#1e1e1e" text-anchor="start" style="white-space: pre;" direction="ltr" dominant-baseline="alphabetic">-1</text></g><g transform="translate(510.8657599569484 550) rotate(0 19.238815279340542 24.99999565737636)"><text x="0" y="37.18517872593462" font-family="Nunito, Segoe UI Emoji" font-size="37.037030603520535px" fill="#1e1e1e" text-anchor="start" style="white-space: pre;" direction="ltr" dominant-baseline="alphabetic">-2</text></g><g stroke-linecap="round"><g transform="translate(730.8657599569484 970) rotate(0 0 -450)"><path d="M-1.01 -0.82 C-0.86 -150.86, 0.07 -750.04, 0.36 -899.94 M0.66 1.36 C0.73 -148.5, -0.35 -748.3, -0.4 -898.38" stroke="#1e1e1e" stroke-width="4" fill="none"></path></g><g transform="translate(730.8657599569484 970) rotate(0 0 -450)"><path d="M8.18 -874.89 C4.56 -880.36, 3.83 -885.73, -0.4 -898.38 M8.18 -874.89 C6.85 -881.58, 3.71 -888.72, -0.4 -898.38" stroke="#1e1e1e" stroke-width="4" fill="none"></path></g><g transform="translate(730.8657599569484 970) rotate(0 0 -450)"><path d="M-8.93 -874.87 C-8.18 -880.2, -4.55 -885.58, -0.4 -898.38 M-8.93 -874.87 C-5.48 -881.6, -3.86 -888.75, -0.4 -898.38" stroke="#1e1e1e" stroke-width="4" fill="none"></path></g></g><mask></mask><g stroke-linecap="round"><g transform="translate(730.8657599569484 430) rotate(0 10 0)"><path d="M-0.39 0.18 C2.95 0.16, 16.34 -0.04, 19.69 -0.02 M0.41 -0.21 C3.95 -0.13, 17.63 0.74, 20.77 0.66" stroke="#1e1e1e" stroke-width="2" fill="none"></path></g></g><mask></mask><g stroke-linecap="round"><g transform="translate(731.1131380172167 330.1130960337352) rotate(0 10 0)"><path d="M-0.25 0.41 C3.2 0.44, 16.85 -0.01, 20.23 -0.11 M0.63 0.15 C4.06 0.28, 16.74 0.51, 19.92 0.53" stroke="#1e1e1e" stroke-width="2" fill="none"></path></g></g><mask></mask><g stroke-linecap="round"><g transform="translate(731.3245701687131 230.21491311906837) rotate(0 10 0)"><path d="M-0.46 0.17 C2.72 0.26, 16.21 0.18, 19.54 0.07 M0.31 -0.21 C3.61 0.01, 17.16 0.79, 20.54 0.8" stroke="#1e1e1e" stroke-width="2" fill="none"></path></g></g><mask></mask><g stroke-linecap="round"><g transform="translate(731.1388320543523 630.8108513149093) rotate(0 10 0)"><path d="M-0.27 -0.16 C2.98 -0.17, 16.26 0.09, 19.71 0.15 M0.59 -0.72 C4.01 -0.92, 17.51 -0.72, 20.79 -0.73" stroke="#1e1e1e" stroke-width="2" fill="none"></path></g></g><mask></mask><g stroke-linecap="round"><g transform="translate(731.1271659837756 730.824286292037) rotate(0 10 0)"><path d="M-0.26 -0.23 C3.13 -0.27, 16.45 0.32, 19.88 0.33 M0.61 -0.82 C3.96 -0.79, 16.13 -0.65, 19.38 -0.47" stroke="#1e1e1e" stroke-width="2" fill="none"></path></g></g><mask></mask><g stroke-linecap="round"><g transform="translate(731.2053618678217 830.6925463812659) rotate(0 10 0)"><path d="M0.21 -0.35 C3.54 -0.27, 17 0.08, 20.33 0.18 M-0.34 0.67 C2.91 0.59, 16.69 -0.46, 20.08 -0.69" stroke="#1e1e1e" stroke-width="2" fill="none"></path></g></g><mask></mask><g transform="translate(666.0790555602729 610) rotate(0 26.623264002536985 34.99999565737636)"><text x="0" y="52.05925280000869" font-family="Nunito, Segoe UI Emoji" font-size="51.851845418335344px" fill="#1971c2" text-anchor="start" style="white-space: pre;" direction="ltr" dominant-baseline="alphabetic">-1</text></g><g transform="translate(666.2568148539232 710) rotate(0 26.934342727827925 34.99999565737636)"><text x="0" y="52.05925280000869" font-family="Nunito, Segoe UI Emoji" font-size="51.851845418335344px" fill="#1971c2" text-anchor="start" style="white-space: pre;" direction="ltr" dominant-baseline="alphabetic">-2</text></g><g transform="translate(666.0790555602729 810) rotate(0 26.623264002536985 34.99999565737636)"><text x="0" y="52.05925280000869" font-family="Nunito, Segoe UI Emoji" font-size="51.851845418335344px" fill="#1971c2" text-anchor="start" style="white-space: pre;" direction="ltr" dominant-baseline="alphabetic">-3</text></g><g transform="translate(679.7537613029463 210) rotate(0 15.554000425633888 34.99999565737636)"><text x="0" y="52.05925280000869" font-family="Nunito, Segoe UI Emoji" font-size="51.851845418335344px" fill="#1971c2" text-anchor="start" style="white-space: pre;" direction="ltr" dominant-baseline="alphabetic">3</text></g><g transform="translate(679.9167080197208 310) rotate(0 15.839157144608691 34.99999565737636)"><text x="0" y="52.05925280000869" font-family="Nunito, Segoe UI Emoji" font-size="51.851845418335344px" fill="#1971c2" text-anchor="start" style="white-space: pre;" direction="ltr" dominant-baseline="alphabetic">2</text></g><g transform="translate(680.4203612767394 410) rotate(0 16.720550235032476 34.99999565737636)"><text x="0" y="52.05925280000869" font-family="Nunito, Segoe UI Emoji" font-size="51.851845418335344px" fill="#1971c2" text-anchor="start" style="white-space: pre;" direction="ltr" dominant-baseline="alphabetic">1</text></g><g transform="translate(1490.8657599569483 490) rotate(0 25.535999434334826 30)"><text x="0" y="42.287999999999975" font-family="Excalifont, Xiaolai, Segoe UI Emoji" font-size="47.99999999999997px" fill="#f08c00" text-anchor="start" style="white-space: pre;" direction="ltr" dominant-baseline="alphabetic">x</text></g><g transform="translate(710.8657599569484 10) rotate(0 10.976279556751251 23.496241121984795)"><text x="0" y="33.120301485549774" font-family="Excalifont, Xiaolai, Segoe UI Emoji" font-size="37.593985795175676px" fill="#f08c00" text-anchor="start" style="white-space: pre;" direction="ltr" dominant-baseline="alphabetic">y</text></g><g stroke-linecap="round"><g transform="translate(731.2384362848196 930.6982914433535) rotate(0 10 0)"><path d="M-0.37 -0.06 C2.97 0.01, 16.59 0.14, 19.92 0.18 M0.44 -0.57 C3.71 -0.64, 16.07 -0.66, 19.44 -0.7" stroke="#1e1e1e" stroke-width="2" fill="none"></path></g></g><mask></mask><g transform="translate(666.6567748805846 910) rotate(0 27.634272687641726 34.99999565737636)"><text x="0" y="52.05925280000869" font-family="Nunito, Segoe UI Emoji" font-size="51.851845418335344px" fill="#1971c2" text-anchor="start" style="white-space: pre;" direction="ltr" dominant-baseline="alphabetic">-4</text></g><g stroke-linecap="round"><g transform="translate(730.7766073272097 130.81152130732463) rotate(0 10 0)"><path d="M0.5 -0.04 C3.78 -0.07, 16.57 0.17, 19.89 0.14 M0.09 -0.54 C3.28 -0.76, 16.04 -0.89, 19.4 -0.76" stroke="#1e1e1e" stroke-width="2" fill="none"></path></g></g><mask></mask><g transform="translate(680.0352146746643 110) rotate(0 16.04654376502816 34.99999565737636)"><text x="0" y="52.05925280000869" font-family="Nunito, Segoe UI Emoji" font-size="51.851845418335344px" fill="#1971c2" text-anchor="start" style="white-space: pre;" direction="ltr" dominant-baseline="alphabetic">4</text></g><g stroke-linecap="round"><g transform="translate(1231.4125381292542 509.9491553725535) rotate(0 0 10)"><path d="M0.08 0.35 C0.17 3.72, 0.43 16.68, 0.36 19.98 M-0.55 0.05 C-0.48 3.54, -0.11 17.21, 0.11 20.66" stroke="#1e1e1e" stroke-width="2" fill="none"></path></g></g><mask></mask><g stroke-linecap="round"><g transform="translate(1331.374640481466 510.2644653900992) rotate(0 0 10)"><path d="M-0.34 -0.26 C-0.35 3.23, -0.51 17.11, -0.51 20.52 M0.49 0.79 C0.68 4.18, 0.41 16.74, 0.46 19.82" stroke="#1e1e1e" stroke-width="2" fill="none"></path></g></g><mask></mask><g transform="translate(1230.8657599569483 550) rotate(0 14.020822606506613 30)"><text x="0" y="44.62222222222222" font-family="Nunito, Segoe UI Emoji" font-size="44.444444444444436px" fill="#1e1e1e" text-anchor="start" style="white-space: pre;" direction="ltr" dominant-baseline="alphabetic">5</text></g><g transform="translate(1330.8657599569483 550) rotate(0 13.598642707875229 30)"><text x="0" y="44.62222222222222" font-family="Nunito, Segoe UI Emoji" font-size="44.444444444444436px" fill="#1e1e1e" text-anchor="start" style="white-space: pre;" direction="ltr" dominant-baseline="alphabetic">6</text></g><g transform="translate(210.8657599569484 550) rotate(0 19.368434443867073 24.99999565737636)"><text x="0" y="37.18517872593462" font-family="Nunito, Segoe UI Emoji" font-size="37.037030603520535px" fill="#1e1e1e" text-anchor="start" style="white-space: pre;" direction="ltr" dominant-baseline="alphabetic">-5</text></g><g stroke-linecap="round"><g transform="translate(230.84653117948204 510.6179028976243) rotate(0 0 10)"><path d="M0.48 -0.09 C0.53 3.18, 0.42 16.75, 0.3 20.06 M0.06 -0.62 C0.06 2.72, 0.15 17.31, 0.02 20.79" stroke="#1e1e1e" stroke-width="2" fill="none"></path></g></g><mask></mask><g stroke-linecap="round"><g transform="translate(131.39053892136548 510.02973376306704) rotate(0 0 10)"><path d="M-0.52 0.29 C-0.49 3.63, 0.18 16.93, 0.25 20.17 M0.21 -0.03 C0.19 3.13, 0.07 15.92, -0.05 19.29" stroke="#1e1e1e" stroke-width="2" fill="none"></path></g></g><mask></mask><g transform="translate(110.86575995694841 550) rotate(0 19.294365744344447 24.99999565737636)"><text x="0" y="37.18517872593462" font-family="Nunito, Segoe UI Emoji" font-size="37.037030603520535px" fill="#1e1e1e" text-anchor="start" style="white-space: pre;" direction="ltr" dominant-baseline="alphabetic">-6</text></g><g transform="translate(10.86575995694841 550) rotate(0 19.072166003604877 24.99999565737636)"><text x="0" y="37.18517872593462" font-family="Nunito, Segoe UI Emoji" font-size="37.037030603520535px" fill="#1e1e1e" text-anchor="start" style="white-space: pre;" direction="ltr" dominant-baseline="alphabetic">-7</text></g><g stroke-linecap="round"><g transform="translate(31.427402399489605 509.86542088712565) rotate(0 0 10)"><path d="M-0.28 0.4 C-0.27 3.62, -0.12 16.34, -0.09 19.64 M0.57 0.13 C0.53 3.38, -0.4 16.97, -0.56 20.15" stroke="#1e1e1e" stroke-width="2" fill="none"></path></g></g><mask></mask><g stroke-linecap="round"><g transform="translate(1431.2368604364196 509.787577722841) rotate(0 0 10)"><path d="M-0.32 0.45 C-0.42 3.77, -0.36 16.25, -0.31 19.59 M0.52 0.21 C0.58 3.61, 0.92 16.83, 0.77 20.07" stroke="#1e1e1e" stroke-width="2" fill="none"></path></g></g><mask></mask><g transform="translate(1430.8657599569483 550) rotate(0 13.331993103027344 30)"><text x="0" y="44.62222222222222" font-family="Nunito, Segoe UI Emoji" font-size="44.444444444444436px" fill="#1e1e1e" text-anchor="start" style="white-space: pre;" direction="ltr" dominant-baseline="alphabetic">7</text></g></svg>