<svg version="1.1" xmlns="http://www.w3.org/2000/svg" viewBox="0 0 741.2364698845718 641.1906400574348" width="1482.4729397691435" height="1282.3812801148697">
  <!-- svg-source:excalidraw -->
  
  <defs>
    <style class="style-fonts">
      @font-face { font-family: Virgil; src: url(https://unpkg.com/@excalidraw/excalidraw/dist/prod/fonts/Virgil/Virgil-Regular.woff2); }
    </style>
    
  </defs>
  <rect x="0" y="0" width="741.2364698845718" height="641.1906400574348" fill="#ffffff"></rect><g stroke-linecap="round"><g stroke-opacity="0.8" fill-opacity="0.8" transform="translate(131.18761602228557 12.447878194454404) rotate(0 38.68118580041573 22.723332960850136)"><path d="M1.19 0.8 C8.12 0.6, 27.87 -1.14, 40.43 -1.29 C52.99 -1.44, 67.78 -1.62, 76.54 -0.1 C85.29 1.41, 89.24 3.9, 92.95 7.79 C96.66 11.69, 98.9 18.14, 98.79 23.24 C98.68 28.34, 96.03 34.63, 92.27 38.39 C88.52 42.14, 84.82 44.48, 76.27 45.77 C67.72 47.07, 53.25 46.21, 40.96 46.17 C28.67 46.14, 11.75 46.84, 2.53 45.58 C-6.68 44.31, -10.33 42.2, -14.31 38.56 C-18.3 34.92, -21.02 28.97, -21.38 23.73 C-21.74 18.49, -20.16 11.09, -16.5 7.12 C-12.83 3.15, -1.94 1.27, 0.61 -0.09 M0.35 0.17 C7.27 0.19, 27.22 0.66, 39.73 0.27 C52.25 -0.11, 66.56 -3.47, 75.42 -2.14 C84.28 -0.8, 89.27 3.96, 92.91 8.3 C96.56 12.63, 97.25 18.94, 97.29 23.86 C97.32 28.78, 96.6 33.87, 93.12 37.83 C89.63 41.78, 84.7 46.32, 76.39 47.6 C68.08 48.88, 55.75 45.57, 43.26 45.51 C30.78 45.44, 10.97 47.95, 1.49 47.22 C-8 46.5, -9.86 44.94, -13.65 41.15 C-17.45 37.35, -21.1 30.24, -21.29 24.46 C-21.48 18.68, -18.55 10.71, -14.81 6.47 C-11.06 2.23, -1.5 0.41, 1.16 -0.97" stroke="#f08c00" stroke-width="2" fill="none"></path></g></g><mask></mask><g stroke-opacity="0.8" fill-opacity="0.8" transform="translate(149.93784390562303 25.657418504566607) rotate(0 18.718499363001513 11.669887634192776)"><text x="18.718499363001516" y="16.449873609158132" font-family="Virgil, Segoe UI Emoji" font-size="18.671820214708436px" fill="#f08c00" text-anchor="middle" style="white-space: pre;" direction="ltr" dominant-baseline="alphabetic">开始</text></g><g stroke-linecap="round"><g transform="translate(106.19689286167647 92.1537670696469) rotate(0 52.49671026200963 33.04911114256694)"><path d="M0 0 C43.62 -1.28, 88.34 -1.76, 141.19 -0.86 M0 0 C37.08 -1.64, 72.07 -2.32, 141.19 -0.86 M141.19 -0.86 C128.8 26.21, 117.01 53.17, 111.65 67.56 M141.19 -0.86 C134.23 16.01, 127.11 31.55, 111.65 67.56 M111.65 67.56 C53.37 67.35, -2.42 65.63, -36.2 67.76 M111.65 67.56 C82.38 66.93, 51.75 65.52, -36.2 67.76 M-36.2 67.76 C-22.53 43.04, -14.04 15.63, -4.11 0.03 M-36.2 67.76 C-27.1 49.48, -18.98 30.02, -4.11 0.03" stroke="#0c8599" stroke-width="2" fill="none"></path></g></g><mask></mask><g transform="translate(116.79803129834454 100.00570900561326) rotate(0 40 25)"><text x="40" y="17.619999999999997" font-family="Virgil, Segoe UI Emoji" font-size="20px" fill="#0c8599" text-anchor="middle" style="white-space: pre;" direction="ltr" dominant-baseline="alphabetic">读取输入</text><text x="40" y="42.62" font-family="Virgil, Segoe UI Emoji" font-size="20px" fill="#0c8599" text-anchor="middle" style="white-space: pre;" direction="ltr" dominant-baseline="alphabetic">x</text></g><g stroke-linecap="round" transform="translate(10 190.49516288588734) rotate(0 160 40)"><path d="M0 0 C113.38 -0.94, 227.96 -2.23, 320 0 M0 0 C65.84 -1.11, 132.44 -0.84, 320 0 M320 0 C320.98 25.55, 320.63 48.45, 320 80 M320 0 C320.53 24.6, 320.06 50.52, 320 80 M320 80 C242.69 81.24, 165.75 82.28, 0 80 M320 80 C221 80.65, 121.81 79.69, 0 80 M0 80 C0.31 61.74, -0.8 41.67, 0 0 M0 80 C-0.05 58.58, 0.53 37.47, 0 0" stroke="#1971c2" stroke-width="2" fill="none"></path></g><g transform="translate(54.62001830339432 217.99516288588734) rotate(0 115.37998169660568 12.5)"><text x="115.37998169660568" y="17.619999999999997" font-family="Virgil, Segoe UI Emoji" font-size="20px" fill="#1971c2" text-anchor="middle" style="white-space: pre;" direction="ltr" dominant-baseline="alphabetic">令 r 为 x 除以 7 的余数</text></g><g stroke-linecap="round" transform="translate(70 310.49516288588734) rotate(0 99.98046875 40.93359375)"><path d="M100 0 C123.22 9.41, 149.64 21.28, 199.96 41 M100 0 C122.72 8.65, 144.13 17.57, 199.96 41 M199.96 41 C173.08 52.69, 147 62.73, 100 81.87 M199.96 41 C162.44 55.23, 126.33 70.16, 100 81.87 M100 81.87 C63.58 67.8, 26.21 51.39, 0 41 M100 81.87 C78.9 74.26, 59.55 67.06, 0 41 M0 41 C21.44 33.83, 40.06 21.94, 100 0 M0 41 C32.1 27.28, 62.07 14.27, 100 0" stroke="#9c36b5" stroke-width="2" fill="none"></path></g><g transform="translate(137.690242305398 338.96195976088734) rotate(0 32.29999206960201 12.5)"><text x="32.29999206960201" y="17.619999999999997" font-family="Virgil, Segoe UI Emoji" font-size="20px" fill="#9c36b5" text-anchor="middle" style="white-space: pre;" direction="ltr" dominant-baseline="alphabetic">r = 0?</text></g><g stroke-linecap="round"><g transform="translate(170 70.49516288588734) rotate(0 0.13290487832256304 10.013625650340686)"><path d="M-0.43 -0.47 C-0.53 2.86, -0.44 17.09, -0.33 20.5 M0.35 0.47 C0.41 3.9, 0.8 16.45, 0.73 19.79" stroke="#1e1e1e" stroke-width="2" fill="none"></path></g><g transform="translate(170 70.49516288588734) rotate(0 0.13290487832256304 10.013625650340686)"><path d="M-2.77 10.42 C-1.94 13.4, 0.17 17.13, 0.73 19.79 M-2.77 10.42 C-1.88 13.43, -0.57 16.11, 0.73 19.79" stroke="#1e1e1e" stroke-width="2" fill="none"></path></g><g transform="translate(170 70.49516288588734) rotate(0 0.13290487832256304 10.013625650340686)"><path d="M4.07 10.37 C2.52 13.34, 2.24 17.09, 0.73 19.79 M4.07 10.37 C2.94 13.36, 2.24 16.06, 0.73 19.79" stroke="#1e1e1e" stroke-width="2" fill="none"></path></g></g><mask></mask><g stroke-linecap="round"><g transform="translate(170 170.49516288588734) rotate(0 -0.04898320079456653 10.001776761456853)"><path d="M-0.4 -0.49 C-0.34 2.74, -0.06 16.48, -0.04 19.86 M0.39 0.45 C0.41 4, -0.3 17.19, -0.49 20.49" stroke="#1e1e1e" stroke-width="2" fill="none"></path></g><g transform="translate(170 170.49516288588734) rotate(0 -0.04898320079456653 10.001776761456853)"><path d="M-3.4 10.93 C-3.14 13.08, -2.15 15.08, -0.49 20.49 M-3.4 10.93 C-2.59 13.57, -2.1 16.08, -0.49 20.49" stroke="#1e1e1e" stroke-width="2" fill="none"></path></g><g transform="translate(170 170.49516288588734) rotate(0 -0.04898320079456653 10.001776761456853)"><path d="M3.43 11.29 C2.13 13.34, 1.56 15.25, -0.49 20.49 M3.43 11.29 C2.44 13.81, 1.13 16.23, -0.49 20.49" stroke="#1e1e1e" stroke-width="2" fill="none"></path></g></g><mask></mask><g stroke-linecap="round"><g transform="translate(170 270.49516288588734) rotate(0 0.22537781005269153 19.121046276509276)"><path d="M-0.04 0.27 C0.13 6.61, 0.98 31.5, 1.17 37.76 M-0.72 -0.06 C-0.6 6.37, 0.7 31.91, 0.97 38.3" stroke="#1e1e1e" stroke-width="2" fill="none"></path></g><g transform="translate(170 270.49516288588734) rotate(0 0.22537781005269153 19.121046276509276)"><path d="M-6.37 20.74 C-3.49 27.37, -2.05 33.06, 0.97 38.3 M-6.37 20.74 C-4.3 25.18, -2.81 29.5, 0.97 38.3" stroke="#1e1e1e" stroke-width="2" fill="none"></path></g><g transform="translate(170 270.49516288588734) rotate(0 0.22537781005269153 19.121046276509276)"><path d="M6.64 20.13 C5.18 26.96, 2.29 32.86, 0.97 38.3 M6.64 20.13 C5.38 24.75, 3.55 29.23, 0.97 38.3" stroke="#1e1e1e" stroke-width="2" fill="none"></path></g></g><mask></mask><g stroke-linecap="round" transform="translate(90 430.49516288588734) rotate(0 80 40)"><path d="M0 0 C60.29 -1.04, 123.4 -1.91, 160 0 M0 0 C35.73 0.81, 69.48 -0.11, 160 0 M160 0 C160.52 21.9, 162.34 44.12, 160 80 M160 0 C159.7 27.74, 159.65 57.47, 160 80 M160 80 C119.49 79.51, 77.96 81.26, 0 80 M160 80 C108.36 79.53, 55.38 79.89, 0 80 M0 80 C0.62 62.98, -1.02 41.54, 0 0 M0 80 C-0.64 61.55, 0.5 43.57, 0 0" stroke="#1971c2" stroke-width="2" fill="none"></path></g><g transform="translate(150 457.99516288588734) rotate(0 20 12.5)"><text x="20" y="17.619999999999997" font-family="Virgil, Segoe UI Emoji" font-size="20px" fill="#1971c2" text-anchor="middle" style="white-space: pre;" direction="ltr" dominant-baseline="alphabetic">拍手</text></g><g stroke-linecap="round"><g transform="translate(170.48336123225067 391.2197238161459) rotate(0 -0.10311345945706307 18.781970743790737)"><path d="M-0.48 -0.16 C-0.54 6.19, 0.05 31.41, 0.09 37.73 M0.28 -0.72 C0.11 5.73, -0.14 31.79, -0.29 38.29" stroke="#1e1e1e" stroke-width="2" fill="none"></path></g><g transform="translate(170.48336123225067 391.2197238161459) rotate(0 -0.10311345945706307 18.781970743790737)"><path d="M-6.51 20.33 C-4.45 27.48, -2.22 33.95, -0.29 38.29 M-6.51 20.33 C-4.59 24.76, -3.61 29.63, -0.29 38.29" stroke="#1e1e1e" stroke-width="2" fill="none"></path></g><g transform="translate(170.48336123225067 391.2197238161459) rotate(0 -0.10311345945706307 18.781970743790737)"><path d="M6.49 20.54 C3.51 27.55, 0.7 33.94, -0.29 38.29 M6.49 20.54 C5.04 24.94, 2.65 29.75, -0.29 38.29" stroke="#1e1e1e" stroke-width="2" fill="none"></path></g></g><mask></mask><g stroke-linecap="round"><g transform="translate(168.36570665112447 515.4820724945048) rotate(0 0.5525535367488601 27.111195813119423)"><path d="M0.48 -0.4 C0.8 9.04, 1.67 46.61, 1.83 55.88 M-0.73 -1.65 C-0.54 7.53, 0.76 44.5, 0.99 54.21" stroke="#1e1e1e" stroke-width="2" fill="none"></path></g><g transform="translate(168.36570665112447 515.4820724945048) rotate(0 0.5525535367488601 27.111195813119423)"><path d="M-8.26 30.98 C-6.38 38.03, -1.59 44.19, 0.99 54.21 M-8.26 30.98 C-4.59 38.24, -2.44 45.56, 0.99 54.21" stroke="#1e1e1e" stroke-width="2" fill="none"></path></g><g transform="translate(168.36570665112447 515.4820724945048) rotate(0 0.5525535367488601 27.111195813119423)"><path d="M8.84 30.47 C5.74 37.74, 5.56 44.05, 0.99 54.21 M8.84 30.47 C7.12 37.86, 3.9 45.34, 0.99 54.21" stroke="#1e1e1e" stroke-width="2" fill="none"></path></g></g><mask></mask><g stroke-linecap="round"><g stroke-opacity="0.8" fill-opacity="0.8" transform="translate(115.3011668412887 573.66279407472) rotate(0 47.21462667514987 27.18010739694114)"><path d="M0.93 0.95 C8.6 0.46, 31.44 -2.04, 46.58 -2.27 C61.73 -2.49, 80.99 -2.4, 91.79 -0.4 C102.58 1.59, 107.06 5.1, 111.38 9.7 C115.69 14.29, 117.71 21.25, 117.68 27.19 C117.64 33.14, 115.34 40.42, 111.17 45.37 C107.01 50.31, 103.14 55.31, 92.71 56.85 C82.27 58.4, 63.63 54.66, 48.56 54.63 C33.5 54.61, 13.25 57.94, 2.3 56.7 C-8.64 55.47, -12.51 51.84, -17.11 47.24 C-21.71 42.64, -25.25 35.65, -25.3 29.11 C-25.35 22.57, -21.76 12.79, -17.39 8 C-13.02 3.22, -1.87 1.58, 0.91 0.39 M-0.04 0.4 C7.94 0, 33.59 -0.59, 48.73 -1.08 C63.88 -1.57, 80.38 -4.42, 90.84 -2.53 C101.31 -0.63, 106.72 5.27, 111.53 10.29 C116.34 15.31, 119.57 21.84, 119.72 27.57 C119.88 33.3, 116.83 39.91, 112.47 44.67 C108.12 49.42, 103.92 53.99, 93.61 56.1 C83.3 58.21, 66.07 57.37, 50.63 57.32 C35.2 57.27, 12.19 57.56, 1.01 55.79 C-10.18 54.02, -12.14 50.97, -16.49 46.7 C-20.85 42.44, -24.85 36.21, -25.15 30.21 C-25.44 24.21, -22.73 15.79, -18.26 10.72 C-13.8 5.64, -1.12 1.36, 1.62 -0.23" stroke="#f08c00" stroke-width="2" fill="none"></path></g></g><mask></mask><g stroke-opacity="0.8" fill-opacity="0.8" transform="translate(139.85821116151857 590.848501122343) rotate(0 20.149998903274508 12.5)"><text x="20.149998903274536" y="17.619999999999997" font-family="Virgil, Segoe UI Emoji" font-size="20px" fill="#f08c00" text-anchor="middle" style="white-space: pre;" direction="ltr" dominant-baseline="alphabetic">结束</text></g><g stroke-linecap="round"><g transform="translate(270 350.49516288588734) rotate(0 60.31448799868116 -0.8205151263334187)"><path d="M-0.77 -0.09 C19.19 0.05, 98.96 0.27, 119.14 0.22 M1.02 -1.18 C21.41 -1.37, 101.63 -2.11, 121.4 -1.79" stroke="#1e1e1e" stroke-width="2" fill="none"></path></g><g transform="translate(270 350.49516288588734) rotate(0 60.31448799868116 -0.8205151263334187)"><path d="M97.9 6.73 C103.61 3.34, 109.95 3.14, 121.4 -1.79 M97.9 6.73 C104.22 3.65, 110.43 1.1, 121.4 -1.79" stroke="#1e1e1e" stroke-width="2" fill="none"></path></g><g transform="translate(270 350.49516288588734) rotate(0 60.31448799868116 -0.8205151263334187)"><path d="M97.92 -10.37 C103.54 -9.53, 109.87 -5.49, 121.4 -1.79 M97.92 -10.37 C104.37 -8.89, 110.58 -6.87, 121.4 -1.79" stroke="#1e1e1e" stroke-width="2" fill="none"></path></g></g><mask></mask><g stroke-linecap="round" transform="translate(390 290.49516288588734) rotate(0 140 60)"><path d="M141 0 C185.63 18.98, 230.51 37.19, 280 61 M141 0 C172.14 14.49, 204.82 28.97, 280 61 M280 61 C246.36 76.05, 211.07 88.87, 141 120 M280 61 C231.51 83.45, 181.04 103.43, 141 120 M141 120 C92.64 97.03, 41.36 79.22, 0 61 M141 120 C98.22 102.48, 53.64 84.28, 0 61 M0 61 C37.04 43.8, 77.18 28.39, 141 0 M0 61 C39.39 44.95, 78.63 27.47, 141 0" stroke="#9c36b5" stroke-width="2" fill="none"></path></g><g transform="translate(469.3800048828125 325.49516288588734) rotate(0 60.6199951171875 25)"><text x="60.6199951171875" y="17.619999999999997" font-family="Virgil, Segoe UI Emoji" font-size="20px" fill="#9c36b5" text-anchor="middle" style="white-space: pre;" direction="ltr" dominant-baseline="alphabetic">x 的十进制表</text><text x="60.6199951171875" y="42.62" font-family="Virgil, Segoe UI Emoji" font-size="20px" fill="#9c36b5" text-anchor="middle" style="white-space: pre;" direction="ltr" dominant-baseline="alphabetic">达是否含 7？</text></g><g stroke-linecap="round"><g transform="translate(530 410.49516288588734) rotate(0 -0.32173343771830787 30.10277498315088)"><path d="M-0.99 -1.18 C-1.15 8.81, -0.29 49.69, -0.25 59.9 M0.69 0.81 C0.29 11, -1.51 51.28, -1.32 61.39" stroke="#1e1e1e" stroke-width="2" fill="none"></path></g></g><mask></mask><g stroke-linecap="round"><g transform="translate(530 470.49516288588734) rotate(0 -140.26033110077492 -0.8124352639562176)"><path d="M0.6 -0.34 C-46.17 -0.36, -233.2 0.23, -280.11 0.34 M-0.55 -1.56 C-47.52 -2.01, -234.81 -2.16, -281.12 -1.61" stroke="#1e1e1e" stroke-width="2" fill="none"></path></g><g transform="translate(530 470.49516288588734) rotate(0 -140.26033110077492 -0.8124352639562176)"><path d="M-257.66 -10.26 C-266.17 -7.39, -273.01 -5.68, -281.12 -1.61 M-257.66 -10.26 C-265.09 -7.31, -273.31 -4.42, -281.12 -1.61" stroke="#1e1e1e" stroke-width="2" fill="none"></path></g><g transform="translate(530 470.49516288588734) rotate(0 -140.26033110077492 -0.8124352639562176)"><path d="M-257.59 6.84 C-266.19 3.9, -273.06 -0.21, -281.12 -1.61 M-257.59 6.84 C-265.18 4.22, -273.42 1.54, -281.12 -1.61" stroke="#1e1e1e" stroke-width="2" fill="none"></path></g></g><mask></mask><g stroke-linecap="round"><g transform="translate(670 350.49516288588734) rotate(0 29.49922245930884 -0.28483818247434556)"><path d="M0.49 -0.27 C10.54 -0.14, 49.8 0.96, 59.71 0.93 M-0.71 -1.45 C9.21 -1.67, 48.63 -1.06, 58.6 -0.71" stroke="#1e1e1e" stroke-width="2" fill="none"></path></g></g><mask></mask><g stroke-linecap="round"><g transform="translate(730 350.49516288588734) rotate(0 0.026075306456846192 89.41594469994305)"><path d="M-1 -0.49 C-1.33 29.46, -1.14 149.34, -1.01 179.4 M0.68 -1.79 C0.62 28.33, 1.47 150.13, 1.17 180.62" stroke="#1e1e1e" stroke-width="2" fill="none"></path></g></g><mask></mask><g stroke-linecap="round"><g transform="translate(730 530.4951628858873) rotate(0 -279.8577538579516 0.2035228177718409)"><path d="M-1.09 0.25 C-94.41 0.02, -466.28 -0.07, -559.55 -0.3 M0.54 -0.67 C-92.93 -0.2, -466.54 1.03, -560.26 1.07" stroke="#1e1e1e" stroke-width="2" fill="none"></path></g><g transform="translate(730 530.4951628858873) rotate(0 -279.8577538579516 0.2035228177718409)"><path d="M-536.78 -7.53 C-544.08 -4.13, -552.78 -3.15, -560.26 1.07 M-536.78 -7.53 C-542 -5.81, -547.39 -3.35, -560.26 1.07" stroke="#1e1e1e" stroke-width="2" fill="none"></path></g><g transform="translate(730 530.4951628858873) rotate(0 -279.8577538579516 0.2035228177718409)"><path d="M-536.75 9.58 C-544.2 7.3, -552.92 2.62, -560.26 1.07 M-536.75 9.58 C-541.85 7.77, -547.25 6.71, -560.26 1.07" stroke="#1e1e1e" stroke-width="2" fill="none"></path></g></g><mask></mask></svg>