<svg version="1.1" xmlns="http://www.w3.org/2000/svg" viewBox="0 0 902.3795407140256 150.2445840636238" width="1804.759081428051" height="300.4891681272476">
  <!-- svg-source:excalidraw -->
  
  <defs>
    <style class="style-fonts">
      @font-face { font-family: Nunito; src: url(https://unpkg.com/@excalidraw/excalidraw/dist/prod/fonts/Nunito/Nunito-Regular-XRXI3I6Li01BKofiOc5wtlZ2di8HDIkhdTQ3j6zbXWjgeg.woff2); }
    </style>
    
  </defs>
  <rect x="0" y="0" width="902.3795407140256" height="150.2445840636238" fill="#ffffff"></rect><g stroke-linecap="round"><g transform="translate(10.865759956948466 30.24459274887107) rotate(0 440 0)"><path d="M0.39 -0.11 C146.94 -0.13, 732.8 -0.99, 879.21 -1.13 M-0.87 -1.22 C146.08 -1.04, 734.5 -0.37, 881.51 -0.19" stroke="#1e1e1e" stroke-width="4" fill="none"></path></g><g transform="translate(10.865759956948466 30.24459274887107) rotate(0 440 0)"><path d="M858.01 8.33 C864.72 4.48, 869.84 1.45, 881.51 -0.19 M858.01 8.33 C862.63 6.24, 869.32 4.67, 881.51 -0.19" stroke="#1e1e1e" stroke-width="4" fill="none"></path></g><g transform="translate(10.865759956948466 30.24459274887107) rotate(0 440 0)"><path d="M858.03 -8.77 C864.58 -7.66, 869.7 -5.72, 881.51 -0.19 M858.03 -8.77 C862.69 -7.07, 869.38 -4.85, 881.51 -0.19" stroke="#1e1e1e" stroke-width="4" fill="none"></path></g></g><mask></mask><g stroke-linecap="round"><g transform="translate(450.86575995694847 10.24459274887107) rotate(0 0.2573877580312569 10.122296374435535)"><path d="M-0.51 0.15 C-0.49 3.46, 0.48 16.42, 0.65 19.81 M0.23 -0.24 C0.15 3.12, 0.3 16.98, 0.29 20.28" stroke="#1e1e1e" stroke-width="4" fill="none"></path></g></g><mask></mask><g stroke-linecap="round"><g transform="translate(551.1764878340718 10.722232669568598) rotate(0 0 10)"><path d="M0.28 0 C0.16 3.48, -0.26 17.17, -0.31 20.45 M-0.24 -0.48 C-0.21 2.89, 0.78 16.28, 0.76 19.72" stroke="#1e1e1e" stroke-width="2" fill="none"></path></g></g><mask></mask><g stroke-linecap="round"><g transform="translate(651.3097725661282 10.652906297501147) rotate(0 0 10)"><path d="M-0.15 0.04 C-0.26 3.39, -0.47 16.67, -0.44 19.94 M0.78 -0.41 C0.81 3.04, 0.74 17.19, 0.57 20.6" stroke="#1e1e1e" stroke-width="2" fill="none"></path></g></g><mask></mask><g stroke-linecap="round"><g transform="translate(751.3082023030738 10.771133810482013) rotate(0 0 10)"><path d="M0.22 -0.03 C0.15 3.29, 0.04 16.92, 0 20.33 M-0.33 -0.53 C-0.51 2.6, -0.42 16.18, -0.44 19.54" stroke="#1e1e1e" stroke-width="2" fill="none"></path></g></g><mask></mask><g stroke-linecap="round"><g transform="translate(851.3480527984118 10.972343026227293) rotate(0 0 10)"><path d="M0.12 -0.17 C0.05 3.14, -0.31 16.56, -0.42 20.02 M-0.48 -0.73 C-0.38 2.66, 0.43 17.31, 0.6 20.72" stroke="#1e1e1e" stroke-width="2" fill="none"></path></g></g><mask></mask><g stroke-linecap="round"><g transform="translate(51.34607145213232 10.921411288171043) rotate(0 0 10)"><path d="M0.11 -0.07 C0.17 3.41, 0.38 17.15, 0.32 20.44 M-0.49 -0.58 C-0.48 2.79, 0.1 16.26, 0.05 19.71" stroke="#1e1e1e" stroke-width="2" fill="none"></path></g></g><mask></mask><g stroke-linecap="round"><g transform="translate(151.47935618418893 10.852084916103536) rotate(0 0 10)"><path d="M0.32 0.44 C0.25 3.74, -0.14 16.43, -0.28 19.69 M-0.18 0.2 C-0.08 3.56, 0.69 16.82, 0.81 20.22" stroke="#1e1e1e" stroke-width="2" fill="none"></path></g></g><mask></mask><g stroke-linecap="round"><g transform="translate(251.47778592113463 10.970312429084402) rotate(0 0 10)"><path d="M-0.28 -0.31 C-0.42 2.95, -0.49 16.71, -0.51 20.01 M0.57 0.71 C0.57 4.03, 0.43 17.53, 0.46 20.71" stroke="#1e1e1e" stroke-width="2" fill="none"></path></g></g><mask></mask><g stroke-linecap="round"><g transform="translate(351.5176364164724 11.171521644829681) rotate(0 0 10)"><path d="M-0.51 0.01 C-0.53 3.31, -0.39 16.18, -0.39 19.49 M0.23 -0.46 C0.4 2.91, 0.59 16.45, 0.64 19.92" stroke="#1e1e1e" stroke-width="2" fill="none"></path></g></g><mask></mask><g transform="translate(430.86575995694847 50.24459274887107) rotate(0 20 44.99999565737636)"><text x="0" y="66.93332687408277" font-family="Nunito, Segoe UI Emoji" font-size="66.66666023315015px" fill="#1e1e1e" text-anchor="start" style="white-space: pre;" direction="ltr" dominant-baseline="alphabetic">0</text></g><g transform="translate(530.8657599569485 50.24459274887107) rotate(0 21.49785089492798 44.99999565737636)"><text x="0" y="66.93332687408277" font-family="Nunito, Segoe UI Emoji" font-size="66.66666023315015px" fill="#1e1e1e" text-anchor="start" style="white-space: pre;" direction="ltr" dominant-baseline="alphabetic">1</text></g><g transform="translate(630.8657599569485 50.24459274887107) rotate(0 20.364631175994873 44.99999565737636)"><text x="0" y="66.93332687408277" font-family="Nunito, Segoe UI Emoji" font-size="66.66666023315015px" fill="#1e1e1e" text-anchor="start" style="white-space: pre;" direction="ltr" dominant-baseline="alphabetic">2</text></g><g transform="translate(830.8657599569485 50.24459274887107) rotate(0 20.63127112388611 44.99999565737636)"><text x="0" y="66.93332687408277" font-family="Nunito, Segoe UI Emoji" font-size="66.66666023315015px" fill="#1e1e1e" text-anchor="start" style="white-space: pre;" direction="ltr" dominant-baseline="alphabetic">4</text></g><g transform="translate(730.8657599569485 50.24459274887107) rotate(0 19.998001098632812 44.99999565737636)"><text x="0" y="66.93332687408277" font-family="Nunito, Segoe UI Emoji" font-size="66.66666023315015px" fill="#1e1e1e" text-anchor="start" style="white-space: pre;" direction="ltr" dominant-baseline="alphabetic">3</text></g><g transform="translate(10.865759956948466 50.24459274887107) rotate(0 35.52978014945984 44.99999565737636)"><text x="0" y="66.93332687408277" font-family="Nunito, Segoe UI Emoji" font-size="66.66666023315015px" fill="#1e1e1e" text-anchor="start" style="white-space: pre;" direction="ltr" dominant-baseline="alphabetic">-4</text></g><g transform="translate(110.86575995694847 50.24459274887107) rotate(0 34.22991180419922 44.99999565737636)"><text x="0" y="66.93332687408277" font-family="Nunito, Segoe UI Emoji" font-size="66.66666023315015px" fill="#1e1e1e" text-anchor="start" style="white-space: pre;" direction="ltr" dominant-baseline="alphabetic">-3</text></g><g transform="translate(310.86575995694847 50.24459274887107) rotate(0 34.22991180419922 44.99999565737636)"><text x="0" y="66.93332687408277" font-family="Nunito, Segoe UI Emoji" font-size="66.66666023315015px" fill="#1e1e1e" text-anchor="start" style="white-space: pre;" direction="ltr" dominant-baseline="alphabetic">-1</text></g><g transform="translate(210.86575995694847 50.24459274887107) rotate(0 34.62987017631531 44.99999565737636)"><text x="0" y="66.93332687408277" font-family="Nunito, Segoe UI Emoji" font-size="66.66666023315015px" fill="#1e1e1e" text-anchor="start" style="white-space: pre;" direction="ltr" dominant-baseline="alphabetic">-2</text></g></svg>