<svg version="1.1" xmlns="http://www.w3.org/2000/svg" viewBox="0 0 700 500" width="1400" height="1000">
  <!-- svg-source:excalidraw -->
  
  <defs>
    <style class="style-fonts">
      
    </style>
    
  </defs>
  <rect x="0" y="0" width="700" height="500" fill="#ffffff"></rect><g stroke-linecap="round"><g transform="translate(350 50) rotate(0 -150.10156867044512 200.4069901411701)"><path d="M0.19 0.96 C-49.89 67.36, -249.5 332.58, -299.64 399.25 M-1.17 0.41 C-51.45 66.88, -250.3 333.94, -300.39 400.4" stroke="#1e1e1e" stroke-width="2" fill="none"></path></g></g><mask></mask><g stroke-linecap="round"><g transform="translate(350 50) rotate(0 149.21243514369706 200.53682140153367)"><path d="M0.05 1.04 C50.21 67.75, 249.89 334.07, 299.81 400.54 M-1.38 0.54 C48.7 66.87, 248.77 331.94, 298.76 398.7" stroke="#1e1e1e" stroke-width="2" fill="none"></path></g></g><mask></mask><g stroke-linecap="round"><g transform="translate(50 450) rotate(0 299.96428678255063 0.2367611924537414)"><path d="M0.55 -0.81 C100.51 -1.05, 500.72 -0.79, 600.55 -0.46 M-0.62 1.38 C99.16 1.22, 500.03 1.16, 599.89 0.83" stroke="#1e1e1e" stroke-width="2" fill="none"></path></g></g><mask></mask><g stroke-linecap="round" transform="translate(310 10) rotate(0 40 40)"><path d="M80 40 C80 41.9, 79.86 43.81, 79.59 45.69 C79.32 47.57, 78.91 49.45, 78.38 51.27 C77.85 53.09, 77.17 54.89, 76.39 56.62 C75.6 58.34, 74.68 60.03, 73.65 61.63 C72.62 63.22, 71.47 64.76, 70.23 66.19 C68.99 67.63, 67.63 68.99, 66.19 70.23 C64.76 71.47, 63.22 72.62, 61.63 73.65 C60.03 74.68, 58.34 75.6, 56.62 76.39 C54.89 77.17, 53.09 77.85, 51.27 78.38 C49.45 78.91, 47.57 79.32, 45.69 79.59 C43.81 79.86, 41.9 80, 40 80 C38.1 80, 36.19 79.86, 34.31 79.59 C32.43 79.32, 30.55 78.91, 28.73 78.38 C26.91 77.85, 25.11 77.17, 23.38 76.39 C21.66 75.6, 19.97 74.68, 18.37 73.65 C16.78 72.62, 15.24 71.47, 13.81 70.23 C12.37 68.99, 11.01 67.63, 9.77 66.19 C8.53 64.76, 7.38 63.22, 6.35 61.63 C5.32 60.03, 4.4 58.34, 3.61 56.62 C2.83 54.89, 2.15 53.09, 1.62 51.27 C1.09 49.45, 0.68 47.57, 0.41 45.69 C0.14 43.81, 0 41.9, 0 40 C0 38.1, 0.14 36.19, 0.41 34.31 C0.68 32.43, 1.09 30.55, 1.62 28.73 C2.15 26.91, 2.83 25.11, 3.61 23.38 C4.4 21.66, 5.32 19.97, 6.35 18.37 C7.38 16.78, 8.53 15.24, 9.77 13.81 C11.01 12.37, 12.37 11.01, 13.81 9.77 C15.24 8.53, 16.78 7.38, 18.37 6.35 C19.97 5.32, 21.66 4.4, 23.38 3.61 C25.11 2.83, 26.91 2.15, 28.73 1.62 C30.55 1.09, 32.43 0.68, 34.31 0.41 C36.19 0.14, 38.1 0, 40 0 C41.9 0, 43.81 0.14, 45.69 0.41 C47.57 0.68, 49.45 1.09, 51.27 1.62 C53.09 2.15, 54.89 2.83, 56.62 3.61 C58.34 4.4, 60.03 5.32, 61.63 6.35 C63.22 7.38, 64.76 8.53, 66.19 9.77 C67.63 11.01, 68.99 12.37, 70.23 13.81 C71.47 15.24, 72.62 16.78, 73.65 18.37 C74.68 19.97, 75.6 21.66, 76.39 23.38 C77.17 25.11, 77.85 26.91, 78.38 28.73 C78.91 30.55, 79.32 32.43, 79.59 34.31 C79.86 36.19, 79.93 39.05, 80 40 C80.07 40.95, 80.07 39.05, 80 40" stroke="none" stroke-width="0" fill="#ffc9c9"></path><path d="M80 40 C80 41.9, 79.86 43.81, 79.59 45.69 C79.32 47.57, 78.91 49.45, 78.38 51.27 C77.85 53.09, 77.17 54.89, 76.39 56.62 C75.6 58.34, 74.68 60.03, 73.65 61.63 C72.62 63.22, 71.47 64.76, 70.23 66.19 C68.99 67.63, 67.63 68.99, 66.19 70.23 C64.76 71.47, 63.22 72.62, 61.63 73.65 C60.03 74.68, 58.34 75.6, 56.62 76.39 C54.89 77.17, 53.09 77.85, 51.27 78.38 C49.45 78.91, 47.57 79.32, 45.69 79.59 C43.81 79.86, 41.9 80, 40 80 C38.1 80, 36.19 79.86, 34.31 79.59 C32.43 79.32, 30.55 78.91, 28.73 78.38 C26.91 77.85, 25.11 77.17, 23.38 76.39 C21.66 75.6, 19.97 74.68, 18.37 73.65 C16.78 72.62, 15.24 71.47, 13.81 70.23 C12.37 68.99, 11.01 67.63, 9.77 66.19 C8.53 64.76, 7.38 63.22, 6.35 61.63 C5.32 60.03, 4.4 58.34, 3.61 56.62 C2.83 54.89, 2.15 53.09, 1.62 51.27 C1.09 49.45, 0.68 47.57, 0.41 45.69 C0.14 43.81, 0 41.9, 0 40 C0 38.1, 0.14 36.19, 0.41 34.31 C0.68 32.43, 1.09 30.55, 1.62 28.73 C2.15 26.91, 2.83 25.11, 3.61 23.38 C4.4 21.66, 5.32 19.97, 6.35 18.37 C7.38 16.78, 8.53 15.24, 9.77 13.81 C11.01 12.37, 12.37 11.01, 13.81 9.77 C15.24 8.53, 16.78 7.38, 18.37 6.35 C19.97 5.32, 21.66 4.4, 23.38 3.61 C25.11 2.83, 26.91 2.15, 28.73 1.62 C30.55 1.09, 32.43 0.68, 34.31 0.41 C36.19 0.14, 38.1 0, 40 0 C41.9 0, 43.81 0.14, 45.69 0.41 C47.57 0.68, 49.45 1.09, 51.27 1.62 C53.09 2.15, 54.89 2.83, 56.62 3.61 C58.34 4.4, 60.03 5.32, 61.63 6.35 C63.22 7.38, 64.76 8.53, 66.19 9.77 C67.63 11.01, 68.99 12.37, 70.23 13.81 C71.47 15.24, 72.62 16.78, 73.65 18.37 C74.68 19.97, 75.6 21.66, 76.39 23.38 C77.17 25.11, 77.85 26.91, 78.38 28.73 C78.91 30.55, 79.32 32.43, 79.59 34.31 C79.86 36.19, 79.93 39.05, 80 40 C80.07 40.95, 80.07 39.05, 80 40" stroke="#e03131" stroke-width="2" fill="none"></path></g><g stroke-linecap="round" transform="translate(610 410) rotate(0 40 40)"><path d="M80 40 C80 41.9, 79.86 43.81, 79.59 45.69 C79.32 47.57, 78.91 49.45, 78.38 51.27 C77.85 53.09, 77.17 54.89, 76.39 56.62 C75.6 58.34, 74.68 60.03, 73.65 61.63 C72.62 63.22, 71.47 64.76, 70.23 66.19 C68.99 67.63, 67.63 68.99, 66.19 70.23 C64.76 71.47, 63.22 72.62, 61.63 73.65 C60.03 74.68, 58.34 75.6, 56.62 76.39 C54.89 77.17, 53.09 77.85, 51.27 78.38 C49.45 78.91, 47.57 79.32, 45.69 79.59 C43.81 79.86, 41.9 80, 40 80 C38.1 80, 36.19 79.86, 34.31 79.59 C32.43 79.32, 30.55 78.91, 28.73 78.38 C26.91 77.85, 25.11 77.17, 23.38 76.39 C21.66 75.6, 19.97 74.68, 18.37 73.65 C16.78 72.62, 15.24 71.47, 13.81 70.23 C12.37 68.99, 11.01 67.63, 9.77 66.19 C8.53 64.76, 7.38 63.22, 6.35 61.63 C5.32 60.03, 4.4 58.34, 3.61 56.62 C2.83 54.89, 2.15 53.09, 1.62 51.27 C1.09 49.45, 0.68 47.57, 0.41 45.69 C0.14 43.81, 0 41.9, 0 40 C0 38.1, 0.14 36.19, 0.41 34.31 C0.68 32.43, 1.09 30.55, 1.62 28.73 C2.15 26.91, 2.83 25.11, 3.61 23.38 C4.4 21.66, 5.32 19.97, 6.35 18.37 C7.38 16.78, 8.53 15.24, 9.77 13.81 C11.01 12.37, 12.37 11.01, 13.81 9.77 C15.24 8.53, 16.78 7.38, 18.37 6.35 C19.97 5.32, 21.66 4.4, 23.38 3.61 C25.11 2.83, 26.91 2.15, 28.73 1.62 C30.55 1.09, 32.43 0.68, 34.31 0.41 C36.19 0.14, 38.1 0, 40 0 C41.9 0, 43.81 0.14, 45.69 0.41 C47.57 0.68, 49.45 1.09, 51.27 1.62 C53.09 2.15, 54.89 2.83, 56.62 3.61 C58.34 4.4, 60.03 5.32, 61.63 6.35 C63.22 7.38, 64.76 8.53, 66.19 9.77 C67.63 11.01, 68.99 12.37, 70.23 13.81 C71.47 15.24, 72.62 16.78, 73.65 18.37 C74.68 19.97, 75.6 21.66, 76.39 23.38 C77.17 25.11, 77.85 26.91, 78.38 28.73 C78.91 30.55, 79.32 32.43, 79.59 34.31 C79.86 36.19, 79.93 39.05, 80 40 C80.07 40.95, 80.07 39.05, 80 40" stroke="none" stroke-width="0" fill="#ffc9c9"></path><path d="M80 40 C80 41.9, 79.86 43.81, 79.59 45.69 C79.32 47.57, 78.91 49.45, 78.38 51.27 C77.85 53.09, 77.17 54.89, 76.39 56.62 C75.6 58.34, 74.68 60.03, 73.65 61.63 C72.62 63.22, 71.47 64.76, 70.23 66.19 C68.99 67.63, 67.63 68.99, 66.19 70.23 C64.76 71.47, 63.22 72.62, 61.63 73.65 C60.03 74.68, 58.34 75.6, 56.62 76.39 C54.89 77.17, 53.09 77.85, 51.27 78.38 C49.45 78.91, 47.57 79.32, 45.69 79.59 C43.81 79.86, 41.9 80, 40 80 C38.1 80, 36.19 79.86, 34.31 79.59 C32.43 79.32, 30.55 78.91, 28.73 78.38 C26.91 77.85, 25.11 77.17, 23.38 76.39 C21.66 75.6, 19.97 74.68, 18.37 73.65 C16.78 72.62, 15.24 71.47, 13.81 70.23 C12.37 68.99, 11.01 67.63, 9.77 66.19 C8.53 64.76, 7.38 63.22, 6.35 61.63 C5.32 60.03, 4.4 58.34, 3.61 56.62 C2.83 54.89, 2.15 53.09, 1.62 51.27 C1.09 49.45, 0.68 47.57, 0.41 45.69 C0.14 43.81, 0 41.9, 0 40 C0 38.1, 0.14 36.19, 0.41 34.31 C0.68 32.43, 1.09 30.55, 1.62 28.73 C2.15 26.91, 2.83 25.11, 3.61 23.38 C4.4 21.66, 5.32 19.97, 6.35 18.37 C7.38 16.78, 8.53 15.24, 9.77 13.81 C11.01 12.37, 12.37 11.01, 13.81 9.77 C15.24 8.53, 16.78 7.38, 18.37 6.35 C19.97 5.32, 21.66 4.4, 23.38 3.61 C25.11 2.83, 26.91 2.15, 28.73 1.62 C30.55 1.09, 32.43 0.68, 34.31 0.41 C36.19 0.14, 38.1 0, 40 0 C41.9 0, 43.81 0.14, 45.69 0.41 C47.57 0.68, 49.45 1.09, 51.27 1.62 C53.09 2.15, 54.89 2.83, 56.62 3.61 C58.34 4.4, 60.03 5.32, 61.63 6.35 C63.22 7.38, 64.76 8.53, 66.19 9.77 C67.63 11.01, 68.99 12.37, 70.23 13.81 C71.47 15.24, 72.62 16.78, 73.65 18.37 C74.68 19.97, 75.6 21.66, 76.39 23.38 C77.17 25.11, 77.85 26.91, 78.38 28.73 C78.91 30.55, 79.32 32.43, 79.59 34.31 C79.86 36.19, 79.93 39.05, 80 40 C80.07 40.95, 80.07 39.05, 80 40" stroke="#e03131" stroke-width="2" fill="none"></path></g><g stroke-linecap="round" transform="translate(10 410) rotate(0 40 40)"><path d="M80 40 C80 41.9, 79.86 43.81, 79.59 45.69 C79.32 47.57, 78.91 49.45, 78.38 51.27 C77.85 53.09, 77.17 54.89, 76.39 56.62 C75.6 58.34, 74.68 60.03, 73.65 61.63 C72.62 63.22, 71.47 64.76, 70.23 66.19 C68.99 67.63, 67.63 68.99, 66.19 70.23 C64.76 71.47, 63.22 72.62, 61.63 73.65 C60.03 74.68, 58.34 75.6, 56.62 76.39 C54.89 77.17, 53.09 77.85, 51.27 78.38 C49.45 78.91, 47.57 79.32, 45.69 79.59 C43.81 79.86, 41.9 80, 40 80 C38.1 80, 36.19 79.86, 34.31 79.59 C32.43 79.32, 30.55 78.91, 28.73 78.38 C26.91 77.85, 25.11 77.17, 23.38 76.39 C21.66 75.6, 19.97 74.68, 18.37 73.65 C16.78 72.62, 15.24 71.47, 13.81 70.23 C12.37 68.99, 11.01 67.63, 9.77 66.19 C8.53 64.76, 7.38 63.22, 6.35 61.63 C5.32 60.03, 4.4 58.34, 3.61 56.62 C2.83 54.89, 2.15 53.09, 1.62 51.27 C1.09 49.45, 0.68 47.57, 0.41 45.69 C0.14 43.81, 0 41.9, 0 40 C0 38.1, 0.14 36.19, 0.41 34.31 C0.68 32.43, 1.09 30.55, 1.62 28.73 C2.15 26.91, 2.83 25.11, 3.61 23.38 C4.4 21.66, 5.32 19.97, 6.35 18.37 C7.38 16.78, 8.53 15.24, 9.77 13.81 C11.01 12.37, 12.37 11.01, 13.81 9.77 C15.24 8.53, 16.78 7.38, 18.37 6.35 C19.97 5.32, 21.66 4.4, 23.38 3.61 C25.11 2.83, 26.91 2.15, 28.73 1.62 C30.55 1.09, 32.43 0.68, 34.31 0.41 C36.19 0.14, 38.1 0, 40 0 C41.9 0, 43.81 0.14, 45.69 0.41 C47.57 0.68, 49.45 1.09, 51.27 1.62 C53.09 2.15, 54.89 2.83, 56.62 3.61 C58.34 4.4, 60.03 5.32, 61.63 6.35 C63.22 7.38, 64.76 8.53, 66.19 9.77 C67.63 11.01, 68.99 12.37, 70.23 13.81 C71.47 15.24, 72.62 16.78, 73.65 18.37 C74.68 19.97, 75.6 21.66, 76.39 23.38 C77.17 25.11, 77.85 26.91, 78.38 28.73 C78.91 30.55, 79.32 32.43, 79.59 34.31 C79.86 36.19, 79.93 39.05, 80 40 C80.07 40.95, 80.07 39.05, 80 40" stroke="none" stroke-width="0" fill="#ffc9c9"></path><path d="M80 40 C80 41.9, 79.86 43.81, 79.59 45.69 C79.32 47.57, 78.91 49.45, 78.38 51.27 C77.85 53.09, 77.17 54.89, 76.39 56.62 C75.6 58.34, 74.68 60.03, 73.65 61.63 C72.62 63.22, 71.47 64.76, 70.23 66.19 C68.99 67.63, 67.63 68.99, 66.19 70.23 C64.76 71.47, 63.22 72.62, 61.63 73.65 C60.03 74.68, 58.34 75.6, 56.62 76.39 C54.89 77.17, 53.09 77.85, 51.27 78.38 C49.45 78.91, 47.57 79.32, 45.69 79.59 C43.81 79.86, 41.9 80, 40 80 C38.1 80, 36.19 79.86, 34.31 79.59 C32.43 79.32, 30.55 78.91, 28.73 78.38 C26.91 77.85, 25.11 77.17, 23.38 76.39 C21.66 75.6, 19.97 74.68, 18.37 73.65 C16.78 72.62, 15.24 71.47, 13.81 70.23 C12.37 68.99, 11.01 67.63, 9.77 66.19 C8.53 64.76, 7.38 63.22, 6.35 61.63 C5.32 60.03, 4.4 58.34, 3.61 56.62 C2.83 54.89, 2.15 53.09, 1.62 51.27 C1.09 49.45, 0.68 47.57, 0.41 45.69 C0.14 43.81, 0 41.9, 0 40 C0 38.1, 0.14 36.19, 0.41 34.31 C0.68 32.43, 1.09 30.55, 1.62 28.73 C2.15 26.91, 2.83 25.11, 3.61 23.38 C4.4 21.66, 5.32 19.97, 6.35 18.37 C7.38 16.78, 8.53 15.24, 9.77 13.81 C11.01 12.37, 12.37 11.01, 13.81 9.77 C15.24 8.53, 16.78 7.38, 18.37 6.35 C19.97 5.32, 21.66 4.4, 23.38 3.61 C25.11 2.83, 26.91 2.15, 28.73 1.62 C30.55 1.09, 32.43 0.68, 34.31 0.41 C36.19 0.14, 38.1 0, 40 0 C41.9 0, 43.81 0.14, 45.69 0.41 C47.57 0.68, 49.45 1.09, 51.27 1.62 C53.09 2.15, 54.89 2.83, 56.62 3.61 C58.34 4.4, 60.03 5.32, 61.63 6.35 C63.22 7.38, 64.76 8.53, 66.19 9.77 C67.63 11.01, 68.99 12.37, 70.23 13.81 C71.47 15.24, 72.62 16.78, 73.65 18.37 C74.68 19.97, 75.6 21.66, 76.39 23.38 C77.17 25.11, 77.85 26.91, 78.38 28.73 C78.91 30.55, 79.32 32.43, 79.59 34.31 C79.86 36.19, 79.93 39.05, 80 40 C80.07 40.95, 80.07 39.05, 80 40" stroke="#e03131" stroke-width="2" fill="none"></path></g><g stroke-linecap="round" transform="translate(170 190) rotate(0 40 40)"><path d="M80 40 C80 41.9, 79.86 43.81, 79.59 45.69 C79.32 47.57, 78.91 49.45, 78.38 51.27 C77.85 53.09, 77.17 54.89, 76.39 56.62 C75.6 58.34, 74.68 60.03, 73.65 61.63 C72.62 63.22, 71.47 64.76, 70.23 66.19 C68.99 67.63, 67.63 68.99, 66.19 70.23 C64.76 71.47, 63.22 72.62, 61.63 73.65 C60.03 74.68, 58.34 75.6, 56.62 76.39 C54.89 77.17, 53.09 77.85, 51.27 78.38 C49.45 78.91, 47.57 79.32, 45.69 79.59 C43.81 79.86, 41.9 80, 40 80 C38.1 80, 36.19 79.86, 34.31 79.59 C32.43 79.32, 30.55 78.91, 28.73 78.38 C26.91 77.85, 25.11 77.17, 23.38 76.39 C21.66 75.6, 19.97 74.68, 18.37 73.65 C16.78 72.62, 15.24 71.47, 13.81 70.23 C12.37 68.99, 11.01 67.63, 9.77 66.19 C8.53 64.76, 7.38 63.22, 6.35 61.63 C5.32 60.03, 4.4 58.34, 3.61 56.62 C2.83 54.89, 2.15 53.09, 1.62 51.27 C1.09 49.45, 0.68 47.57, 0.41 45.69 C0.14 43.81, 0 41.9, 0 40 C0 38.1, 0.14 36.19, 0.41 34.31 C0.68 32.43, 1.09 30.55, 1.62 28.73 C2.15 26.91, 2.83 25.11, 3.61 23.38 C4.4 21.66, 5.32 19.97, 6.35 18.37 C7.38 16.78, 8.53 15.24, 9.77 13.81 C11.01 12.37, 12.37 11.01, 13.81 9.77 C15.24 8.53, 16.78 7.38, 18.37 6.35 C19.97 5.32, 21.66 4.4, 23.38 3.61 C25.11 2.83, 26.91 2.15, 28.73 1.62 C30.55 1.09, 32.43 0.68, 34.31 0.41 C36.19 0.14, 38.1 0, 40 0 C41.9 0, 43.81 0.14, 45.69 0.41 C47.57 0.68, 49.45 1.09, 51.27 1.62 C53.09 2.15, 54.89 2.83, 56.62 3.61 C58.34 4.4, 60.03 5.32, 61.63 6.35 C63.22 7.38, 64.76 8.53, 66.19 9.77 C67.63 11.01, 68.99 12.37, 70.23 13.81 C71.47 15.24, 72.62 16.78, 73.65 18.37 C74.68 19.97, 75.6 21.66, 76.39 23.38 C77.17 25.11, 77.85 26.91, 78.38 28.73 C78.91 30.55, 79.32 32.43, 79.59 34.31 C79.86 36.19, 79.93 39.05, 80 40 C80.07 40.95, 80.07 39.05, 80 40" stroke="none" stroke-width="0" fill="#ffc9c9"></path><path d="M80 40 C80 41.9, 79.86 43.81, 79.59 45.69 C79.32 47.57, 78.91 49.45, 78.38 51.27 C77.85 53.09, 77.17 54.89, 76.39 56.62 C75.6 58.34, 74.68 60.03, 73.65 61.63 C72.62 63.22, 71.47 64.76, 70.23 66.19 C68.99 67.63, 67.63 68.99, 66.19 70.23 C64.76 71.47, 63.22 72.62, 61.63 73.65 C60.03 74.68, 58.34 75.6, 56.62 76.39 C54.89 77.17, 53.09 77.85, 51.27 78.38 C49.45 78.91, 47.57 79.32, 45.69 79.59 C43.81 79.86, 41.9 80, 40 80 C38.1 80, 36.19 79.86, 34.31 79.59 C32.43 79.32, 30.55 78.91, 28.73 78.38 C26.91 77.85, 25.11 77.17, 23.38 76.39 C21.66 75.6, 19.97 74.68, 18.37 73.65 C16.78 72.62, 15.24 71.47, 13.81 70.23 C12.37 68.99, 11.01 67.63, 9.77 66.19 C8.53 64.76, 7.38 63.22, 6.35 61.63 C5.32 60.03, 4.4 58.34, 3.61 56.62 C2.83 54.89, 2.15 53.09, 1.62 51.27 C1.09 49.45, 0.68 47.57, 0.41 45.69 C0.14 43.81, 0 41.9, 0 40 C0 38.1, 0.14 36.19, 0.41 34.31 C0.68 32.43, 1.09 30.55, 1.62 28.73 C2.15 26.91, 2.83 25.11, 3.61 23.38 C4.4 21.66, 5.32 19.97, 6.35 18.37 C7.38 16.78, 8.53 15.24, 9.77 13.81 C11.01 12.37, 12.37 11.01, 13.81 9.77 C15.24 8.53, 16.78 7.38, 18.37 6.35 C19.97 5.32, 21.66 4.4, 23.38 3.61 C25.11 2.83, 26.91 2.15, 28.73 1.62 C30.55 1.09, 32.43 0.68, 34.31 0.41 C36.19 0.14, 38.1 0, 40 0 C41.9 0, 43.81 0.14, 45.69 0.41 C47.57 0.68, 49.45 1.09, 51.27 1.62 C53.09 2.15, 54.89 2.83, 56.62 3.61 C58.34 4.4, 60.03 5.32, 61.63 6.35 C63.22 7.38, 64.76 8.53, 66.19 9.77 C67.63 11.01, 68.99 12.37, 70.23 13.81 C71.47 15.24, 72.62 16.78, 73.65 18.37 C74.68 19.97, 75.6 21.66, 76.39 23.38 C77.17 25.11, 77.85 26.91, 78.38 28.73 C78.91 30.55, 79.32 32.43, 79.59 34.31 C79.86 36.19, 79.93 39.05, 80 40 C80.07 40.95, 80.07 39.05, 80 40" stroke="#e03131" stroke-width="2" fill="none"></path></g><g stroke-linecap="round" transform="translate(450 190) rotate(0 40 40)"><path d="M80 40 C80 41.9, 79.86 43.81, 79.59 45.69 C79.32 47.57, 78.91 49.45, 78.38 51.27 C77.85 53.09, 77.17 54.89, 76.39 56.62 C75.6 58.34, 74.68 60.03, 73.65 61.63 C72.62 63.22, 71.47 64.76, 70.23 66.19 C68.99 67.63, 67.63 68.99, 66.19 70.23 C64.76 71.47, 63.22 72.62, 61.63 73.65 C60.03 74.68, 58.34 75.6, 56.62 76.39 C54.89 77.17, 53.09 77.85, 51.27 78.38 C49.45 78.91, 47.57 79.32, 45.69 79.59 C43.81 79.86, 41.9 80, 40 80 C38.1 80, 36.19 79.86, 34.31 79.59 C32.43 79.32, 30.55 78.91, 28.73 78.38 C26.91 77.85, 25.11 77.17, 23.38 76.39 C21.66 75.6, 19.97 74.68, 18.37 73.65 C16.78 72.62, 15.24 71.47, 13.81 70.23 C12.37 68.99, 11.01 67.63, 9.77 66.19 C8.53 64.76, 7.38 63.22, 6.35 61.63 C5.32 60.03, 4.4 58.34, 3.61 56.62 C2.83 54.89, 2.15 53.09, 1.62 51.27 C1.09 49.45, 0.68 47.57, 0.41 45.69 C0.14 43.81, 0 41.9, 0 40 C0 38.1, 0.14 36.19, 0.41 34.31 C0.68 32.43, 1.09 30.55, 1.62 28.73 C2.15 26.91, 2.83 25.11, 3.61 23.38 C4.4 21.66, 5.32 19.97, 6.35 18.37 C7.38 16.78, 8.53 15.24, 9.77 13.81 C11.01 12.37, 12.37 11.01, 13.81 9.77 C15.24 8.53, 16.78 7.38, 18.37 6.35 C19.97 5.32, 21.66 4.4, 23.38 3.61 C25.11 2.83, 26.91 2.15, 28.73 1.62 C30.55 1.09, 32.43 0.68, 34.31 0.41 C36.19 0.14, 38.1 0, 40 0 C41.9 0, 43.81 0.14, 45.69 0.41 C47.57 0.68, 49.45 1.09, 51.27 1.62 C53.09 2.15, 54.89 2.83, 56.62 3.61 C58.34 4.4, 60.03 5.32, 61.63 6.35 C63.22 7.38, 64.76 8.53, 66.19 9.77 C67.63 11.01, 68.99 12.37, 70.23 13.81 C71.47 15.24, 72.62 16.78, 73.65 18.37 C74.68 19.97, 75.6 21.66, 76.39 23.38 C77.17 25.11, 77.85 26.91, 78.38 28.73 C78.91 30.55, 79.32 32.43, 79.59 34.31 C79.86 36.19, 79.93 39.05, 80 40 C80.07 40.95, 80.07 39.05, 80 40" stroke="none" stroke-width="0" fill="#ffc9c9"></path><path d="M80 40 C80 41.9, 79.86 43.81, 79.59 45.69 C79.32 47.57, 78.91 49.45, 78.38 51.27 C77.85 53.09, 77.17 54.89, 76.39 56.62 C75.6 58.34, 74.68 60.03, 73.65 61.63 C72.62 63.22, 71.47 64.76, 70.23 66.19 C68.99 67.63, 67.63 68.99, 66.19 70.23 C64.76 71.47, 63.22 72.62, 61.63 73.65 C60.03 74.68, 58.34 75.6, 56.62 76.39 C54.89 77.17, 53.09 77.85, 51.27 78.38 C49.45 78.91, 47.57 79.32, 45.69 79.59 C43.81 79.86, 41.9 80, 40 80 C38.1 80, 36.19 79.86, 34.31 79.59 C32.43 79.32, 30.55 78.91, 28.73 78.38 C26.91 77.85, 25.11 77.17, 23.38 76.39 C21.66 75.6, 19.97 74.68, 18.37 73.65 C16.78 72.62, 15.24 71.47, 13.81 70.23 C12.37 68.99, 11.01 67.63, 9.77 66.19 C8.53 64.76, 7.38 63.22, 6.35 61.63 C5.32 60.03, 4.4 58.34, 3.61 56.62 C2.83 54.89, 2.15 53.09, 1.62 51.27 C1.09 49.45, 0.68 47.57, 0.41 45.69 C0.14 43.81, 0 41.9, 0 40 C0 38.1, 0.14 36.19, 0.41 34.31 C0.68 32.43, 1.09 30.55, 1.62 28.73 C2.15 26.91, 2.83 25.11, 3.61 23.38 C4.4 21.66, 5.32 19.97, 6.35 18.37 C7.38 16.78, 8.53 15.24, 9.77 13.81 C11.01 12.37, 12.37 11.01, 13.81 9.77 C15.24 8.53, 16.78 7.38, 18.37 6.35 C19.97 5.32, 21.66 4.4, 23.38 3.61 C25.11 2.83, 26.91 2.15, 28.73 1.62 C30.55 1.09, 32.43 0.68, 34.31 0.41 C36.19 0.14, 38.1 0, 40 0 C41.9 0, 43.81 0.14, 45.69 0.41 C47.57 0.68, 49.45 1.09, 51.27 1.62 C53.09 2.15, 54.89 2.83, 56.62 3.61 C58.34 4.4, 60.03 5.32, 61.63 6.35 C63.22 7.38, 64.76 8.53, 66.19 9.77 C67.63 11.01, 68.99 12.37, 70.23 13.81 C71.47 15.24, 72.62 16.78, 73.65 18.37 C74.68 19.97, 75.6 21.66, 76.39 23.38 C77.17 25.11, 77.85 26.91, 78.38 28.73 C78.91 30.55, 79.32 32.43, 79.59 34.31 C79.86 36.19, 79.93 39.05, 80 40 C80.07 40.95, 80.07 39.05, 80 40" stroke="#e03131" stroke-width="2" fill="none"></path></g><g stroke-linecap="round" transform="translate(310 410) rotate(0 40 40)"><path d="M80 40 C80 41.9, 79.86 43.81, 79.59 45.69 C79.32 47.57, 78.91 49.45, 78.38 51.27 C77.85 53.09, 77.17 54.89, 76.39 56.62 C75.6 58.34, 74.68 60.03, 73.65 61.63 C72.62 63.22, 71.47 64.76, 70.23 66.19 C68.99 67.63, 67.63 68.99, 66.19 70.23 C64.76 71.47, 63.22 72.62, 61.63 73.65 C60.03 74.68, 58.34 75.6, 56.62 76.39 C54.89 77.17, 53.09 77.85, 51.27 78.38 C49.45 78.91, 47.57 79.32, 45.69 79.59 C43.81 79.86, 41.9 80, 40 80 C38.1 80, 36.19 79.86, 34.31 79.59 C32.43 79.32, 30.55 78.91, 28.73 78.38 C26.91 77.85, 25.11 77.17, 23.38 76.39 C21.66 75.6, 19.97 74.68, 18.37 73.65 C16.78 72.62, 15.24 71.47, 13.81 70.23 C12.37 68.99, 11.01 67.63, 9.77 66.19 C8.53 64.76, 7.38 63.22, 6.35 61.63 C5.32 60.03, 4.4 58.34, 3.61 56.62 C2.83 54.89, 2.15 53.09, 1.62 51.27 C1.09 49.45, 0.68 47.57, 0.41 45.69 C0.14 43.81, 0 41.9, 0 40 C0 38.1, 0.14 36.19, 0.41 34.31 C0.68 32.43, 1.09 30.55, 1.62 28.73 C2.15 26.91, 2.83 25.11, 3.61 23.38 C4.4 21.66, 5.32 19.97, 6.35 18.37 C7.38 16.78, 8.53 15.24, 9.77 13.81 C11.01 12.37, 12.37 11.01, 13.81 9.77 C15.24 8.53, 16.78 7.38, 18.37 6.35 C19.97 5.32, 21.66 4.4, 23.38 3.61 C25.11 2.83, 26.91 2.15, 28.73 1.62 C30.55 1.09, 32.43 0.68, 34.31 0.41 C36.19 0.14, 38.1 0, 40 0 C41.9 0, 43.81 0.14, 45.69 0.41 C47.57 0.68, 49.45 1.09, 51.27 1.62 C53.09 2.15, 54.89 2.83, 56.62 3.61 C58.34 4.4, 60.03 5.32, 61.63 6.35 C63.22 7.38, 64.76 8.53, 66.19 9.77 C67.63 11.01, 68.99 12.37, 70.23 13.81 C71.47 15.24, 72.62 16.78, 73.65 18.37 C74.68 19.97, 75.6 21.66, 76.39 23.38 C77.17 25.11, 77.85 26.91, 78.38 28.73 C78.91 30.55, 79.32 32.43, 79.59 34.31 C79.86 36.19, 79.93 39.05, 80 40 C80.07 40.95, 80.07 39.05, 80 40" stroke="none" stroke-width="0" fill="#ffc9c9"></path><path d="M80 40 C80 41.9, 79.86 43.81, 79.59 45.69 C79.32 47.57, 78.91 49.45, 78.38 51.27 C77.85 53.09, 77.17 54.89, 76.39 56.62 C75.6 58.34, 74.68 60.03, 73.65 61.63 C72.62 63.22, 71.47 64.76, 70.23 66.19 C68.99 67.63, 67.63 68.99, 66.19 70.23 C64.76 71.47, 63.22 72.62, 61.63 73.65 C60.03 74.68, 58.34 75.6, 56.62 76.39 C54.89 77.17, 53.09 77.85, 51.27 78.38 C49.45 78.91, 47.57 79.32, 45.69 79.59 C43.81 79.86, 41.9 80, 40 80 C38.1 80, 36.19 79.86, 34.31 79.59 C32.43 79.32, 30.55 78.91, 28.73 78.38 C26.91 77.85, 25.11 77.17, 23.38 76.39 C21.66 75.6, 19.97 74.68, 18.37 73.65 C16.78 72.62, 15.24 71.47, 13.81 70.23 C12.37 68.99, 11.01 67.63, 9.77 66.19 C8.53 64.76, 7.38 63.22, 6.35 61.63 C5.32 60.03, 4.4 58.34, 3.61 56.62 C2.83 54.89, 2.15 53.09, 1.62 51.27 C1.09 49.45, 0.68 47.57, 0.41 45.69 C0.14 43.81, 0 41.9, 0 40 C0 38.1, 0.14 36.19, 0.41 34.31 C0.68 32.43, 1.09 30.55, 1.62 28.73 C2.15 26.91, 2.83 25.11, 3.61 23.38 C4.4 21.66, 5.32 19.97, 6.35 18.37 C7.38 16.78, 8.53 15.24, 9.77 13.81 C11.01 12.37, 12.37 11.01, 13.81 9.77 C15.24 8.53, 16.78 7.38, 18.37 6.35 C19.97 5.32, 21.66 4.4, 23.38 3.61 C25.11 2.83, 26.91 2.15, 28.73 1.62 C30.55 1.09, 32.43 0.68, 34.31 0.41 C36.19 0.14, 38.1 0, 40 0 C41.9 0, 43.81 0.14, 45.69 0.41 C47.57 0.68, 49.45 1.09, 51.27 1.62 C53.09 2.15, 54.89 2.83, 56.62 3.61 C58.34 4.4, 60.03 5.32, 61.63 6.35 C63.22 7.38, 64.76 8.53, 66.19 9.77 C67.63 11.01, 68.99 12.37, 70.23 13.81 C71.47 15.24, 72.62 16.78, 73.65 18.37 C74.68 19.97, 75.6 21.66, 76.39 23.38 C77.17 25.11, 77.85 26.91, 78.38 28.73 C78.91 30.55, 79.32 32.43, 79.59 34.31 C79.86 36.19, 79.93 39.05, 80 40 C80.07 40.95, 80.07 39.05, 80 40" stroke="#e03131" stroke-width="2" fill="none"></path></g></svg>