<svg version="1.1" xmlns="http://www.w3.org/2000/svg" viewBox="0 0 422.5148995954636 402.6658076795936" width="845.0297991909272" height="805.3316153591873">
  <!-- svg-source:excalidraw -->
  
  <defs>
    <style class="style-fonts">
      
    </style>
    
  </defs>
  <rect x="0" y="0" width="422.5148995954636" height="402.6658076795936" fill="#ffffff"></rect><g stroke-linecap="round"><g transform="translate(211.4108287986461 10.980585301434616) rotate(0 -100 80)"><path d="M0 0 C-33.33 26.67, -166.67 133.33, -200 160 M0 0 C-33.33 26.67, -166.67 133.33, -200 160" stroke="#e03131" stroke-width="4" fill="none"></path></g></g><mask></mask><g stroke-linecap="round"><g transform="translate(211.4108287986461 10.980585301434616) rotate(0 100 80)"><path d="M0 0 C33.33 26.67, 166.67 133.33, 200 160 M0 0 C33.33 26.67, 166.67 133.33, 200 160" stroke="#e03131" stroke-width="4" fill="none"></path></g></g><mask></mask><g stroke-linecap="round"><g transform="translate(11.840339303482324 172.0402410415467) rotate(0 39.785244747581885 109.47017212994396)"><path d="M0 0 C13.26 36.49, 66.31 182.45, 79.57 218.94 M0 0 C13.26 36.49, 66.31 182.45, 79.57 218.94" stroke="#e03131" stroke-width="4" fill="none"></path></g></g><mask></mask><g stroke-linecap="round"><g transform="translate(91.4108287986461 390.98058530143464) rotate(0 120 0)"><path d="M0 0 C40 0, 200 0, 240 0 M0 0 C40 0, 200 0, 240 0" stroke="#e03131" stroke-width="4" fill="none"></path></g></g><mask></mask><g stroke-linecap="round"><g transform="translate(411.4108287986461 170.98058530143462) rotate(0 -40 110)"><path d="M0 0 C-13.33 36.67, -66.67 183.33, -80 220 M0 0 C-13.33 36.67, -66.67 183.33, -80 220" stroke="#e03131" stroke-width="4" fill="none"></path></g></g><mask></mask><g stroke-linecap="round"><g transform="translate(11.410828798646094 170.98058530143462) rotate(0 200 0)"><path d="M0.07 0.64 C66.72 0.73, 333.64 1.05, 400.11 0.76 M-1.36 -0.07 C65.13 -0.33, 332.13 -0.92, 399.22 -0.97" stroke="#1e1e1e" stroke-width="2" fill="none"></path></g></g><mask></mask><g stroke-linecap="round"><g transform="translate(411.4108287986461 170.98058530143462) rotate(0 -160 110)"><path d="M1.1 0.2 C-52 36.74, -265.34 183.11, -319.02 219.88 M0.22 -0.74 C-52.91 35.93, -266.32 184.74, -319.45 221.36" stroke="#1e1e1e" stroke-width="2" fill="none"></path></g></g><mask></mask><g stroke-linecap="round"><g transform="translate(211.4108287986461 10.980585301434616) rotate(0 -60 190)"><path d="M0.63 -0.79 C-19.25 62.44, -100.32 315.65, -120.25 379.03 M-0.5 1.41 C-20.48 64.79, -101.55 316.87, -121.33 380.07" stroke="#1e1e1e" stroke-width="2" fill="none"></path></g></g><mask></mask><g stroke-linecap="round"><g transform="translate(11.410828798646094 170.98058530143462) rotate(0 160 110)"><path d="M0.03 0.36 C53.35 37.2, 267.11 183.66, 320.54 220.1 M-1.41 -0.5 C51.74 36.64, 266.27 184.97, 319.88 221.69" stroke="#1e1e1e" stroke-width="2" fill="none"></path></g></g><mask></mask><g stroke-linecap="round"><g transform="translate(211.4108287986461 10.980585301434616) rotate(0 60 190)"><path d="M-0.13 0.04 C19.51 63.52, 99.01 317.16, 118.84 380.58 M-1.65 -0.98 C18.24 62.17, 100.48 315.51, 120.95 378.77" stroke="#1e1e1e" stroke-width="2" fill="none"></path></g></g><mask></mask></svg>