<svg version="1.1" xmlns="http://www.w3.org/2000/svg" viewBox="0 0 960 340" width="1920" height="680">
  <!-- svg-source:excalidraw -->
  
  <defs>
    <style class="style-fonts">
      
    </style>
    
  </defs>
  <rect x="0" y="0" width="960" height="340" fill="#ffffff"></rect><g stroke-linecap="round" transform="translate(10 10) rotate(0 20 20)"><path d="M0 0 C8.14 0, 16.29 0, 40 0 M0 0 C11.96 0, 23.91 0, 40 0 M40 0 C40 15.6, 40 31.21, 40 40 M40 0 C40 11.88, 40 23.75, 40 40 M40 40 C24.63 40, 9.26 40, 0 40 M40 40 C29.05 40, 18.09 40, 0 40 M0 40 C0 26.37, 0 12.73, 0 0 M0 40 C0 24.58, 0 9.17, 0 0" stroke="#1e1e1e" stroke-width="1" fill="none"></path></g><g stroke-linecap="round" transform="translate(130 10) rotate(0 20 20)"><path d="M0 0 C13.09 0, 26.17 0, 40 0 M0 0 C10.82 0, 21.64 0, 40 0 M40 0 C40 8.79, 40 17.58, 40 40 M40 0 C40 9.51, 40 19.02, 40 40 M40 40 C27.92 40, 15.84 40, 0 40 M40 40 C30.52 40, 21.05 40, 0 40 M0 40 C0 29.54, 0 19.08, 0 0 M0 40 C0 31.39, 0 22.79, 0 0" stroke="#1e1e1e" stroke-width="1" fill="none"></path></g><g stroke-linecap="round" transform="translate(90 10) rotate(0 20 20)"><path d="M0 0 C12.36 0, 24.72 0, 40 0 M0 0 C11.46 0, 22.91 0, 40 0 M40 0 C40 9.41, 40 18.81, 40 40 M40 0 C40 9.36, 40 18.72, 40 40 M40 40 C31.55 40, 23.1 40, 0 40 M40 40 C25.78 40, 11.57 40, 0 40 M0 40 C0 28.1, 0 16.21, 0 0 M0 40 C0 29.33, 0 18.66, 0 0" stroke="#1e1e1e" stroke-width="1" fill="none"></path></g><g stroke-linecap="round" transform="translate(50 10) rotate(0 20 20)"><path d="M0 0 C12.47 0, 24.93 0, 40 0 M0 0 C12.68 0, 25.35 0, 40 0 M40 0 C40 8.62, 40 17.25, 40 40 M40 0 C40 15.35, 40 30.71, 40 40 M40 40 C26.99 40, 13.97 40, 0 40 M40 40 C26.36 40, 12.72 40, 0 40 M0 40 C0 29.37, 0 18.75, 0 0 M0 40 C0 29.96, 0 19.92, 0 0" stroke="#1e1e1e" stroke-width="1" fill="none"></path></g><g stroke-linecap="round" transform="translate(10 50) rotate(0 20 20)"><path d="M0 0 C13.18 0, 26.36 0, 40 0 M0 0 C9.49 0, 18.98 0, 40 0 M40 0 C40 14.84, 40 29.69, 40 40 M40 0 C40 15.09, 40 30.19, 40 40 M40 40 C24.36 40, 8.72 40, 0 40 M40 40 C31.41 40, 22.81 40, 0 40 M0 40 C0 31.43, 0 22.86, 0 0 M0 40 C0 25.46, 0 10.92, 0 0" stroke="#1e1e1e" stroke-width="1" fill="none"></path></g><g stroke-linecap="round" transform="translate(130 50) rotate(0 20 20)"><path d="M0 0 C11.08 0, 22.15 0, 40 0 M0 0 C15.38 0, 30.75 0, 40 0 M40 0 C40 8.69, 40 17.38, 40 40 M40 0 C40 12.86, 40 25.71, 40 40 M40 40 C29.62 40, 19.24 40, 0 40 M40 40 C29.79 40, 19.58 40, 0 40 M0 40 C0 30.39, 0 20.77, 0 0 M0 40 C0 26.12, 0 12.23, 0 0" stroke="#1e1e1e" stroke-width="1" fill="none"></path></g><g stroke-linecap="round" transform="translate(90 50) rotate(0 20 20)"><path d="M0 0 C13.61 0, 27.23 0, 40 0 M0 0 C10.3 0, 20.6 0, 40 0 M40 0 C40 11.97, 40 23.95, 40 40 M40 0 C40 8.72, 40 17.45, 40 40 M40 40 C31.19 40, 22.39 40, 0 40 M40 40 C31.84 40, 23.68 40, 0 40 M0 40 C0 25.19, 0 10.38, 0 0 M0 40 C0 31.78, 0 23.57, 0 0" stroke="#1e1e1e" stroke-width="1" fill="none"></path></g><g stroke-linecap="round" transform="translate(50 50) rotate(0 20 20)"><path d="M0 0 C9.72 0, 19.43 0, 40 0 M0 0 C13.44 0, 26.88 0, 40 0 M40 0 C40 12.72, 40 25.44, 40 40 M40 0 C40 11.15, 40 22.3, 40 40 M40 40 C24.7 40, 9.4 40, 0 40 M40 40 C29.07 40, 18.14 40, 0 40 M0 40 C0 25.86, 0 11.71, 0 0 M0 40 C0 31.22, 0 22.43, 0 0" stroke="#1e1e1e" stroke-width="1" fill="none"></path></g><g stroke-linecap="round" transform="translate(10 90) rotate(0 20 20)"><path d="M0 0 C12.28 0, 24.57 0, 40 0 M0 0 C9.77 0, 19.55 0, 40 0 M40 0 C40 11.88, 40 23.75, 40 40 M40 0 C40 9.01, 40 18.03, 40 40 M40 40 C30.3 40, 20.6 40, 0 40 M40 40 C30.49 40, 20.99 40, 0 40 M0 40 C0 26.47, 0 12.94, 0 0 M0 40 C0 29.35, 0 18.7, 0 0" stroke="#1e1e1e" stroke-width="1" fill="none"></path></g><g stroke-linecap="round" transform="translate(130 90) rotate(0 20 20)"><path d="M0 0 C13.07 0, 26.13 0, 40 0 M0 0 C15.74 0, 31.48 0, 40 0 M40 0 C40 15.22, 40 30.43, 40 40 M40 0 C40 14.01, 40 28.03, 40 40 M40 40 C26.18 40, 12.35 40, 0 40 M40 40 C30.4 40, 20.8 40, 0 40 M0 40 C0 31.61, 0 23.22, 0 0 M0 40 C0 27.44, 0 14.89, 0 0" stroke="#1e1e1e" stroke-width="1" fill="none"></path></g><g stroke-linecap="round" transform="translate(90 90) rotate(0 20 20)"><path d="M0 0 C9.23 0, 18.46 0, 40 0 M0 0 C15.28 0, 30.56 0, 40 0 M40 0 C40 14.87, 40 29.75, 40 40 M40 0 C40 9.13, 40 18.26, 40 40 M40 40 C28.58 40, 17.16 40, 0 40 M40 40 C25.23 40, 10.46 40, 0 40 M0 40 C0 25.16, 0 10.32, 0 0 M0 40 C0 31.84, 0 23.68, 0 0" stroke="#1e1e1e" stroke-width="1" fill="none"></path></g><g stroke-linecap="round" transform="translate(50 90) rotate(0 20 20)"><path d="M0 0 C10.61 0, 21.21 0, 40 0 M0 0 C14.03 0, 28.06 0, 40 0 M40 0 C40 15.04, 40 30.09, 40 40 M40 0 C40 14.02, 40 28.05, 40 40 M40 40 C29.72 40, 19.44 40, 0 40 M40 40 C26.54 40, 13.09 40, 0 40 M0 40 C0 26.48, 0 12.96, 0 0 M0 40 C0 26.58, 0 13.15, 0 0" stroke="#1e1e1e" stroke-width="1" fill="none"></path></g><g stroke-linecap="round" transform="translate(10 130) rotate(0 20 20)"><path d="M0 0 C8.04 0, 16.07 0, 40 0 M0 0 C13.16 0, 26.31 0, 40 0 M40 0 C40 9.17, 40 18.35, 40 40 M40 0 C40 11.31, 40 22.62, 40 40 M40 40 C29.67 40, 19.34 40, 0 40 M40 40 C24.8 40, 9.59 40, 0 40 M0 40 C0 27.64, 0 15.28, 0 0 M0 40 C0 30.09, 0 20.19, 0 0" stroke="#1e1e1e" stroke-width="1" fill="none"></path></g><g stroke-linecap="round" transform="translate(130 130) rotate(0 20 20)"><path d="M0 0 C8.33 0, 16.66 0, 40 0 M0 0 C8.49 0, 16.98 0, 40 0 M40 0 C40 15.79, 40 31.58, 40 40 M40 0 C40 15.69, 40 31.39, 40 40 M40 40 C28.7 40, 17.4 40, 0 40 M40 40 C29.85 40, 19.69 40, 0 40 M0 40 C0 31.07, 0 22.14, 0 0 M0 40 C0 25.91, 0 11.82, 0 0" stroke="#1e1e1e" stroke-width="1" fill="none"></path></g><g stroke-linecap="round" transform="translate(90 130) rotate(0 20 20)"><path d="M0 0 C9.82 0, 19.64 0, 40 0 M0 0 C11.21 0, 22.43 0, 40 0 M40 0 C40 8.88, 40 17.77, 40 40 M40 0 C40 14.43, 40 28.87, 40 40 M40 40 C29.28 40, 18.55 40, 0 40 M40 40 C25.66 40, 11.31 40, 0 40 M0 40 C0 28.6, 0 17.2, 0 0 M0 40 C0 30.44, 0 20.88, 0 0" stroke="#1e1e1e" stroke-width="1" fill="none"></path></g><g stroke-linecap="round" transform="translate(50 130) rotate(0 20 20)"><path d="M0 0 C10.91 0, 21.81 0, 40 0 M0 0 C9.67 0, 19.35 0, 40 0 M40 0 C40 10.69, 40 21.37, 40 40 M40 0 C40 12.4, 40 24.8, 40 40 M40 40 C24.06 40, 8.11 40, 0 40 M40 40 C28.09 40, 16.17 40, 0 40 M0 40 C0 26.54, 0 13.08, 0 0 M0 40 C0 29.52, 0 19.04, 0 0" stroke="#1e1e1e" stroke-width="1" fill="none"></path></g><g stroke-linecap="round" transform="translate(170 10) rotate(0 20 20)"><path d="M0 0 C13.74 0, 27.47 0, 40 0 M0 0 C13.45 0, 26.9 0, 40 0 M40 0 C40 9.74, 40 19.48, 40 40 M40 0 C40 8.66, 40 17.33, 40 40 M40 40 C29.08 40, 18.16 40, 0 40 M40 40 C26.61 40, 13.22 40, 0 40 M0 40 C0 28.61, 0 17.22, 0 0 M0 40 C0 28.81, 0 17.62, 0 0" stroke="#1e1e1e" stroke-width="1" fill="none"></path></g><g stroke-linecap="round" transform="translate(290 10) rotate(0 20 20)"><path d="M0 0 C15.64 0, 31.28 0, 40 0 M0 0 C14.07 0, 28.14 0, 40 0 M40 0 C40 9.52, 40 19.04, 40 40 M40 0 C40 15.67, 40 31.33, 40 40 M40 40 C29.3 40, 18.59 40, 0 40 M40 40 C27.56 40, 15.13 40, 0 40 M0 40 C0 29.96, 0 19.92, 0 0 M0 40 C0 30.42, 0 20.83, 0 0" stroke="#1e1e1e" stroke-width="1" fill="none"></path></g><g stroke-linecap="round" transform="translate(250 10) rotate(0 20 20)"><path d="M0 0 C10.03 0, 20.06 0, 40 0 M0 0 C11.6 0, 23.19 0, 40 0 M40 0 C40 14.57, 40 29.14, 40 40 M40 0 C40 14.78, 40 29.56, 40 40 M40 40 C28.24 40, 16.48 40, 0 40 M40 40 C25.79 40, 11.58 40, 0 40 M0 40 C0 26.08, 0 12.15, 0 0 M0 40 C0 24.01, 0 8.02, 0 0" stroke="#1e1e1e" stroke-width="1" fill="none"></path></g><g stroke-linecap="round" transform="translate(210 10) rotate(0 20 20)"><path d="M0 0 C13.16 0, 26.32 0, 40 0 M0 0 C14.77 0, 29.53 0, 40 0 M40 0 C40 8.5, 40 16.99, 40 40 M40 0 C40 15.76, 40 31.53, 40 40 M40 40 C25.71 40, 11.42 40, 0 40 M40 40 C31.76 40, 23.51 40, 0 40 M0 40 C0 30.91, 0 21.83, 0 0 M0 40 C0 29.54, 0 19.08, 0 0" stroke="#1e1e1e" stroke-width="1" fill="none"></path></g><g stroke-linecap="round" transform="translate(170 50) rotate(0 20 20)"><path d="M0 0 C12.86 0, 25.72 0, 40 0 M0 0 C13.35 0, 26.71 0, 40 0 M40 0 C40 15.23, 40 30.46, 40 40 M40 0 C40 8.66, 40 17.33, 40 40 M40 40 C24.42 40, 8.85 40, 0 40 M40 40 C28.39 40, 16.79 40, 0 40 M0 40 C0 24.58, 0 9.16, 0 0 M0 40 C0 24.16, 0 8.33, 0 0" stroke="#1e1e1e" stroke-width="1" fill="none"></path></g><g stroke-linecap="round" transform="translate(290 50) rotate(0 20 20)"><path d="M0 0 C13.8 0, 27.59 0, 40 0 M0 0 C8.92 0, 17.83 0, 40 0 M40 0 C40 8.29, 40 16.59, 40 40 M40 0 C40 10.56, 40 21.12, 40 40 M40 40 C24.76 40, 9.51 40, 0 40 M40 40 C28.35 40, 16.69 40, 0 40 M0 40 C0 28.11, 0 16.21, 0 0 M0 40 C0 31.5, 0 23, 0 0" stroke="#1e1e1e" stroke-width="1" fill="none"></path></g><g stroke-linecap="round" transform="translate(250 50) rotate(0 20 20)"><path d="M0 0 C10.73 0, 21.45 0, 40 0 M0 0 C13.56 0, 27.11 0, 40 0 M40 0 C40 12.04, 40 24.09, 40 40 M40 0 C40 8.33, 40 16.66, 40 40 M40 40 C27.5 40, 15 40, 0 40 M40 40 C27.21 40, 14.43 40, 0 40 M0 40 C0 26.18, 0 12.35, 0 0 M0 40 C0 26.88, 0 13.76, 0 0" stroke="#1e1e1e" stroke-width="1" fill="none"></path></g><g stroke-linecap="round" transform="translate(210 50) rotate(0 20 20)"><path d="M0 0 C9.74 0, 19.48 0, 40 0 M0 0 C8.66 0, 17.33 0, 40 0 M40 0 C40 10.92, 40 21.84, 40 40 M40 0 C40 13.39, 40 26.78, 40 40 M40 40 C28.61 40, 17.22 40, 0 40 M40 40 C28.81 40, 17.62 40, 0 40 M0 40 C0 25.9, 0 11.8, 0 0 M0 40 C0 26.6, 0 13.19, 0 0" stroke="#1e1e1e" stroke-width="1" fill="none"></path></g><g stroke-linecap="round" transform="translate(170 90) rotate(0 20 20)"><path d="M0 0 C9.52 0, 19.04 0, 40 0 M0 0 C15.67 0, 31.33 0, 40 0 M40 0 C40 10.7, 40 21.41, 40 40 M40 0 C40 12.44, 40 24.87, 40 40 M40 40 C29.96 40, 19.92 40, 0 40 M40 40 C30.42 40, 20.83 40, 0 40 M0 40 C0 27.54, 0 15.08, 0 0 M0 40 C0 25.14, 0 10.28, 0 0" stroke="#1e1e1e" stroke-width="1" fill="none"></path></g><g stroke-linecap="round" transform="translate(90 10) rotate(0 20 20)"><path d="M0 0 C14.57 0, 29.14 0, 40 0 M0 0 C14.78 0, 29.56 0, 40 0 M40 0 C40 11.76, 40 23.52, 40 40 M40 0 C40 14.21, 40 28.42, 40 40 M40 40 C26.08 40, 12.15 40, 0 40 M40 40 C24.01 40, 8.02 40, 0 40 M0 40 C0 27.29, 0 14.57, 0 0 M0 40 C0 28.48, 0 16.97, 0 0" stroke="#1e1e1e" stroke-width="1" fill="none"></path></g><g stroke-linecap="round" transform="translate(50 10) rotate(0 20 20)"><path d="M0 0 C8.5 0, 16.99 0, 40 0 M0 0 C15.76 0, 31.53 0, 40 0 M40 0 C40 14.29, 40 28.58, 40 40 M40 0 C40 8.24, 40 16.49, 40 40 M40 40 C30.91 40, 21.83 40, 0 40 M40 40 C29.54 40, 19.08 40, 0 40 M0 40 C0 27.98, 0 15.96, 0 0 M0 40 C0 31.29, 0 22.59, 0 0" stroke="#1e1e1e" stroke-width="1" fill="none"></path></g><g stroke-linecap="round" transform="translate(210 90) rotate(0 20 20)"><path d="M0 0 C15.23 0, 30.46 0, 40 0 M0 0 C8.66 0, 17.33 0, 40 0 M40 0 C40 15.58, 40 31.15, 40 40 M40 0 C40 11.61, 40 23.21, 40 40 M40 40 C24.58 40, 9.16 40, 0 40 M40 40 C24.16 40, 8.33 40, 0 40 M0 40 C0 25.88, 0 11.76, 0 0 M0 40 C0 26.21, 0 12.42, 0 0" stroke="#1e1e1e" stroke-width="1" fill="none"></path></g><g stroke-linecap="round" transform="translate(170 130) rotate(0 20 20)"><path d="M0 0 C8.29 0, 16.59 0, 40 0 M0 0 C10.56 0, 21.12 0, 40 0 M40 0 C40 15.24, 40 30.49, 40 40 M40 0 C40 11.65, 40 23.31, 40 40 M40 40 C28.11 40, 16.21 40, 0 40 M40 40 C31.5 40, 23 40, 0 40 M0 40 C0 29.42, 0 18.83, 0 0 M0 40 C0 29.07, 0 18.14, 0 0" stroke="#1e1e1e" stroke-width="1" fill="none"></path></g><g stroke-linecap="round" transform="translate(290 130) rotate(0 20 20)"><path d="M0 0 C12.04 0, 24.09 0, 40 0 M0 0 C8.33 0, 16.66 0, 40 0 M40 0 C40 12.5, 40 25, 40 40 M40 0 C40 12.79, 40 25.57, 40 40 M40 40 C26.18 40, 12.35 40, 0 40 M40 40 C26.88 40, 13.76 40, 0 40 M0 40 C0 29.92, 0 19.84, 0 0 M0 40 C0 24.19, 0 8.37, 0 0" stroke="#1e1e1e" stroke-width="1" fill="none"></path></g><g stroke-linecap="round" transform="translate(250 130) rotate(0 20 20)"><path d="M0 0 C10.92 0, 21.84 0, 40 0 M0 0 C13.39 0, 26.78 0, 40 0 M40 0 C40 11.39, 40 22.78, 40 40 M40 0 C40 11.19, 40 22.38, 40 40 M40 40 C25.9 40, 11.8 40, 0 40 M40 40 C26.6 40, 13.19 40, 0 40 M0 40 C0 28.4, 0 16.81, 0 0 M0 40 C0 29.57, 0 19.15, 0 0" stroke="#1e1e1e" stroke-width="1" fill="none"></path></g><g stroke-linecap="round" transform="translate(210 130) rotate(0 20 20)"><path d="M0 0 C10.7 0, 21.41 0, 40 0 M0 0 C12.44 0, 24.87 0, 40 0 M40 0 C40 10.04, 40 20.08, 40 40 M40 0 C40 9.58, 40 19.17, 40 40 M40 40 C27.54 40, 15.08 40, 0 40 M40 40 C25.14 40, 10.28 40, 0 40 M0 40 C0 30.28, 0 20.55, 0 0 M0 40 C0 26.21, 0 12.42, 0 0" stroke="#1e1e1e" stroke-width="1" fill="none"></path></g><g stroke-linecap="round" transform="translate(10 170) rotate(0 20 20)"><path d="M0 0 C10.78 0, 21.57 0, 40 0 M0 0 C15.62 0, 31.24 0, 40 0 M40 0 C40 12.19, 40 24.38, 40 40 M40 0 C40 13.79, 40 27.58, 40 40 M40 40 C26.18 40, 12.36 40, 0 40 M40 40 C31.94 40, 23.88 40, 0 40 M0 40 C0 30.19, 0 20.38, 0 0 M0 40 C0 30.44, 0 20.87, 0 0" stroke="#1e1e1e" stroke-width="1" fill="none"></path></g><g stroke-linecap="round" transform="translate(130 170) rotate(0 20 20)"><path d="M0 0 C15.2 0, 30.4 0, 40 0 M0 0 C9.68 0, 19.36 0, 40 0 M40 0 C40 14.96, 40 29.93, 40 40 M40 0 C40 14.42, 40 28.84, 40 40 M40 40 C31.09 40, 22.18 40, 0 40 M40 40 C26.92 40, 13.84 40, 0 40 M0 40 C0 29.68, 0 19.36, 0 0 M0 40 C0 26.74, 0 13.48, 0 0" stroke="#1e1e1e" stroke-width="1" fill="none"></path></g><g stroke-linecap="round" transform="translate(90 170) rotate(0 20 20)"><path d="M0 0 C12.02 0, 24.04 0, 40 0 M0 0 C10.41 0, 20.83 0, 40 0 M40 0 C40 15.18, 40 30.36, 40 40 M40 0 C40 14.65, 40 29.3, 40 40 M40 40 C27.62 40, 15.24 40, 0 40 M40 40 C27.93 40, 15.85 40, 0 40 M0 40 C0 24.68, 0 9.36, 0 0 M0 40 C0 24.48, 0 8.96, 0 0" stroke="#1e1e1e" stroke-width="1" fill="none"></path></g><g stroke-linecap="round" transform="translate(50 170) rotate(0 20 20)"><path d="M0 0 C9.03 0, 18.07 0, 40 0 M0 0 C13.63 0, 27.25 0, 40 0 M40 0 C40 11.13, 40 22.27, 40 40 M40 0 C40 13.37, 40 26.74, 40 40 M40 40 C24.18 40, 8.37 40, 0 40 M40 40 C31.71 40, 23.41 40, 0 40 M0 40 C0 27.59, 0 15.18, 0 0 M0 40 C0 30.8, 0 21.6, 0 0" stroke="#1e1e1e" stroke-width="1" fill="none"></path></g><g stroke-linecap="round" transform="translate(10 210) rotate(0 20 20)"><path d="M0 0 C9.56 0, 19.11 0, 40 0 M0 0 C8.95 0, 17.91 0, 40 0 M40 0 C40 11.92, 40 23.85, 40 40 M40 0 C40 8.08, 40 16.16, 40 40 M40 40 C27.17 40, 14.35 40, 0 40 M40 40 C31.67 40, 23.34 40, 0 40 M0 40 C0 25.51, 0 11.03, 0 0 M0 40 C0 28.76, 0 17.52, 0 0" stroke="#1e1e1e" stroke-width="1" fill="none"></path></g><g stroke-linecap="round" transform="translate(130 210) rotate(0 20 20)"><path d="M0 0 C11.19 0, 22.38 0, 40 0 M0 0 C9.12 0, 18.24 0, 40 0 M40 0 C40 12.18, 40 24.37, 40 40 M40 0 C40 8.1, 40 16.2, 40 40 M40 40 C26.18 40, 12.37 40, 0 40 M40 40 C28.63 40, 17.26 40, 0 40 M0 40 C0 29.53, 0 19.05, 0 0 M0 40 C0 28.08, 0 16.15, 0 0" stroke="#1e1e1e" stroke-width="1" fill="none"></path></g><g stroke-linecap="round" transform="translate(90 210) rotate(0 20 20)"><path d="M0 0 C12.59 0, 25.18 0, 40 0 M0 0 C15.18 0, 30.36 0, 40 0 M40 0 C40 14.83, 40 29.66, 40 40 M40 0 C40 15.85, 40 31.69, 40 40 M40 40 C27.27 40, 14.53 40, 0 40 M40 40 C25.59 40, 11.18 40, 0 40 M0 40 C0 27.91, 0 15.83, 0 0 M0 40 C0 27.89, 0 15.77, 0 0" stroke="#1e1e1e" stroke-width="1" fill="none"></path></g><g stroke-linecap="round" transform="translate(50 210) rotate(0 20 20)"><path d="M0 0 C12.19 0, 24.38 0, 40 0 M0 0 C13.79 0, 27.58 0, 40 0 M40 0 C40 13.82, 40 27.64, 40 40 M40 0 C40 8.06, 40 16.12, 40 40 M40 40 C30.19 40, 20.38 40, 0 40 M40 40 C30.44 40, 20.87 40, 0 40 M0 40 C0 27.41, 0 14.83, 0 0 M0 40 C0 27.49, 0 14.98, 0 0" stroke="#1e1e1e" stroke-width="1" fill="none"></path></g><g stroke-linecap="round" transform="translate(10 250) rotate(0 20 20)"><path d="M0 0 C14.96 0, 29.93 0, 40 0 M0 0 C14.42 0, 28.84 0, 40 0 M40 0 C40 8.91, 40 17.82, 40 40 M40 0 C40 13.08, 40 26.16, 40 40 M40 40 C29.68 40, 19.36 40, 0 40 M40 40 C26.74 40, 13.48 40, 0 40 M0 40 C0 30.48, 0 20.97, 0 0 M0 40 C0 29.1, 0 18.2, 0 0" stroke="#1e1e1e" stroke-width="1" fill="none"></path></g><g stroke-linecap="round" transform="translate(130 250) rotate(0 20 20)"><path d="M0 0 C15.18 0, 30.36 0, 40 0 M0 0 C14.65 0, 29.3 0, 40 0 M40 0 C40 12.38, 40 24.76, 40 40 M40 0 C40 12.07, 40 24.15, 40 40 M40 40 C24.68 40, 9.36 40, 0 40 M40 40 C24.48 40, 8.96 40, 0 40 M0 40 C0 28.54, 0 17.08, 0 0 M0 40 C0 24.6, 0 9.2, 0 0" stroke="#1e1e1e" stroke-width="1" fill="none"></path></g><g stroke-linecap="round" transform="translate(90 250) rotate(0 20 20)"><path d="M0 0 C11.13 0, 22.27 0, 40 0 M0 0 C13.37 0, 26.74 0, 40 0 M40 0 C40 15.82, 40 31.63, 40 40 M40 0 C40 8.29, 40 16.59, 40 40 M40 40 C27.59 40, 15.18 40, 0 40 M40 40 C30.8 40, 21.6 40, 0 40 M0 40 C0 27.21, 0 14.41, 0 0 M0 40 C0 30.27, 0 20.54, 0 0" stroke="#1e1e1e" stroke-width="1" fill="none"></path></g><g stroke-linecap="round" transform="translate(50 250) rotate(0 20 20)"><path d="M0 0 C11.92 0, 23.85 0, 40 0 M0 0 C8.08 0, 16.16 0, 40 0 M40 0 C40 12.83, 40 25.65, 40 40 M40 0 C40 8.33, 40 16.66, 40 40 M40 40 C25.51 40, 11.03 40, 0 40 M40 40 C28.76 40, 17.52 40, 0 40 M0 40 C0 31.57, 0 23.14, 0 0 M0 40 C0 25.58, 0 11.15, 0 0" stroke="#1e1e1e" stroke-width="1" fill="none"></path></g><g stroke-linecap="round" transform="translate(10 290) rotate(0 20 20)"><path d="M0 0 C12.18 0, 24.37 0, 40 0 M0 0 C8.1 0, 16.2 0, 40 0 M40 0 C40 13.82, 40 27.63, 40 40 M40 0 C40 11.37, 40 22.74, 40 40 M40 40 C29.53 40, 19.05 40, 0 40 M40 40 C28.08 40, 16.15 40, 0 40 M0 40 C0 31.43, 0 22.86, 0 0 M0 40 C0 27.88, 0 15.77, 0 0" stroke="#1e1e1e" stroke-width="1" fill="none"></path></g><g stroke-linecap="round" transform="translate(130 290) rotate(0 20 20)"><path d="M0 0 C14.83 0, 29.66 0, 40 0 M0 0 C15.85 0, 31.69 0, 40 0 M40 0 C40 12.73, 40 25.47, 40 40 M40 0 C40 14.41, 40 28.82, 40 40 M40 40 C27.91 40, 15.83 40, 0 40 M40 40 C27.89 40, 15.77 40, 0 40 M0 40 C0 26.55, 0 13.1, 0 0 M0 40 C0 31.23, 0 22.46, 0 0" stroke="#1e1e1e" stroke-width="1" fill="none"></path></g><g stroke-linecap="round" transform="translate(90 290) rotate(0 20 20)"><path d="M0 0 C13.82 0, 27.64 0, 40 0 M0 0 C8.06 0, 16.12 0, 40 0 M40 0 C40 9.81, 40 19.62, 40 40 M40 0 C40 9.56, 40 19.13, 40 40 M40 40 C27.41 40, 14.83 40, 0 40 M40 40 C27.49 40, 14.98 40, 0 40 M0 40 C0 27.89, 0 15.78, 0 0 M0 40 C0 25.06, 0 10.11, 0 0" stroke="#1e1e1e" stroke-width="1" fill="none"></path></g><g stroke-linecap="round" transform="translate(50 290) rotate(0 20 20)"><path d="M0 0 C8.91 0, 17.82 0, 40 0 M0 0 C13.08 0, 26.16 0, 40 0 M40 0 C40 10.32, 40 20.64, 40 40 M40 0 C40 13.26, 40 26.52, 40 40 M40 40 C30.48 40, 20.97 40, 0 40 M40 40 C29.1 40, 18.2 40, 0 40 M0 40 C0 26.89, 0 13.78, 0 0 M0 40 C0 28.98, 0 17.96, 0 0" stroke="#1e1e1e" stroke-width="1" fill="none"></path></g><g stroke-linecap="round" transform="translate(170 170) rotate(0 20 20)"><path d="M0 0 C10.73 0, 21.46 0, 40 0 M0 0 C13.03 0, 26.05 0, 40 0 M40 0 C40 12.77, 40 25.55, 40 40 M40 0 C40 15.04, 40 30.09, 40 40 M40 40 C26.34 40, 12.68 40, 0 40 M40 40 C25.03 40, 10.06 40, 0 40 M0 40 C0 26.69, 0 13.38, 0 0 M0 40 C0 28.31, 0 16.63, 0 0" stroke="#1e1e1e" stroke-width="1" fill="none"></path></g><g stroke-linecap="round" transform="translate(290 170) rotate(0 20 20)"><path d="M0 0 C8.33 0, 16.65 0, 40 0 M0 0 C15.1 0, 30.19 0, 40 0 M40 0 C40 13.05, 40 26.09, 40 40 M40 0 C40 12.47, 40 24.94, 40 40 M40 40 C24.24 40, 8.49 40, 0 40 M40 40 C29.72 40, 19.44 40, 0 40 M0 40 C0 28.65, 0 17.3, 0 0 M0 40 C0 29.2, 0 18.4, 0 0" stroke="#1e1e1e" stroke-width="1" fill="none"></path></g><g stroke-linecap="round" transform="translate(250 170) rotate(0 20 20)"><path d="M0 0 C14.23 0, 28.46 0, 40 0 M0 0 C14.88 0, 29.76 0, 40 0 M40 0 C40 10.1, 40 20.2, 40 40 M40 0 C40 10.26, 40 20.52, 40 40 M40 40 C29.94 40, 19.89 40, 0 40 M40 40 C27.74 40, 15.48 40, 0 40 M0 40 C0 27.27, 0 14.55, 0 0 M0 40 C0 26.19, 0 12.37, 0 0" stroke="#1e1e1e" stroke-width="1" fill="none"></path></g><g stroke-linecap="round" transform="translate(210 170) rotate(0 20 20)"><path d="M0 0 C12.83 0, 25.66 0, 40 0 M0 0 C8.86 0, 17.72 0, 40 0 M40 0 C40 13.91, 40 27.83, 40 40 M40 0 C40 15.66, 40 31.32, 40 40 M40 40 C30.6 40, 21.21 40, 0 40 M40 40 C30.31 40, 20.62 40, 0 40 M0 40 C0 29.62, 0 19.23, 0 0 M0 40 C0 30.23, 0 20.45, 0 0" stroke="#1e1e1e" stroke-width="1" fill="none"></path></g><g stroke-linecap="round" transform="translate(170 210) rotate(0 20 20)"><path d="M0 0 C11.84 0, 23.68 0, 40 0 M0 0 C14.79 0, 29.58 0, 40 0 M40 0 C40 14.55, 40 29.11, 40 40 M40 0 C40 8.46, 40 16.92, 40 40 M40 40 C28.56 40, 17.11 40, 0 40 M40 40 C28.87 40, 17.74 40, 0 40 M0 40 C0 29.16, 0 18.32, 0 0 M0 40 C0 25.23, 0 10.47, 0 0" stroke="#1e1e1e" stroke-width="1" fill="none"></path></g><g stroke-linecap="round" transform="translate(290 210) rotate(0 20 20)"><path d="M0 0 C15.56 0, 31.12 0, 40 0 M0 0 C14.48 0, 28.96 0, 40 0 M40 0 C40 11.43, 40 22.85, 40 40 M40 0 C40 11.74, 40 23.47, 40 40 M40 40 C28.05 40, 16.09 40, 0 40 M40 40 C28.33 40, 16.65 40, 0 40 M0 40 C0 24.55, 0 9.1, 0 0 M0 40 C0 25.34, 0 10.68, 0 0" stroke="#1e1e1e" stroke-width="1" fill="none"></path></g><g stroke-linecap="round" transform="translate(250 210) rotate(0 20 20)"><path d="M0 0 C14.13 0, 28.26 0, 40 0 M0 0 C8.52 0, 17.04 0, 40 0 M40 0 C40 10.52, 40 21.04, 40 40 M40 0 C40 10.61, 40 21.21, 40 40 M40 40 C29.98 40, 19.97 40, 0 40 M40 40 C24.28 40, 8.57 40, 0 40 M0 40 C0 30.35, 0 20.69, 0 0 M0 40 C0 28.13, 0 16.25, 0 0" stroke="#1e1e1e" stroke-width="1" fill="none"></path></g><g stroke-linecap="round" transform="translate(210 210) rotate(0 20 20)"><path d="M0 0 C12.77 0, 25.55 0, 40 0 M0 0 C15.04 0, 30.09 0, 40 0 M40 0 C40 13.66, 40 27.32, 40 40 M40 0 C40 14.97, 40 29.94, 40 40 M40 40 C26.69 40, 13.38 40, 0 40 M40 40 C28.31 40, 16.63 40, 0 40 M0 40 C0 31.76, 0 23.53, 0 0 M0 40 C0 31.89, 0 23.79, 0 0" stroke="#1e1e1e" stroke-width="1" fill="none"></path></g><g stroke-linecap="round" transform="translate(170 250) rotate(0 20 20)"><path d="M0 0 C13.05 0, 26.09 0, 40 0 M0 0 C12.47 0, 24.94 0, 40 0 M40 0 C40 15.76, 40 31.51, 40 40 M40 0 C40 10.28, 40 20.56, 40 40 M40 40 C28.65 40, 17.3 40, 0 40 M40 40 C29.2 40, 18.4 40, 0 40 M0 40 C0 27.44, 0 14.88, 0 0 M0 40 C0 28.9, 0 17.8, 0 0" stroke="#1e1e1e" stroke-width="1" fill="none"></path></g><g stroke-linecap="round" transform="translate(290 250) rotate(0 20 20)"><path d="M0 0 C10.1 0, 20.2 0, 40 0 M0 0 C10.26 0, 20.52 0, 40 0 M40 0 C40 10.06, 40 20.11, 40 40 M40 0 C40 12.26, 40 24.52, 40 40 M40 40 C27.27 40, 14.55 40, 0 40 M40 40 C26.19 40, 12.37 40, 0 40 M0 40 C0 24.18, 0 8.35, 0 0 M0 40 C0 30.62, 0 21.24, 0 0" stroke="#1e1e1e" stroke-width="1" fill="none"></path></g><g stroke-linecap="round" transform="translate(250 250) rotate(0 20 20)"><path d="M0 0 C13.91 0, 27.83 0, 40 0 M0 0 C15.66 0, 31.32 0, 40 0 M40 0 C40 9.4, 40 18.79, 40 40 M40 0 C40 9.69, 40 19.38, 40 40 M40 40 C29.62 40, 19.23 40, 0 40 M40 40 C30.23 40, 20.45 40, 0 40 M0 40 C0 31.69, 0 23.37, 0 0 M0 40 C0 28.98, 0 17.95, 0 0" stroke="#1e1e1e" stroke-width="1" fill="none"></path></g><g stroke-linecap="round" transform="translate(210 250) rotate(0 20 20)"><path d="M0 0 C14.55 0, 29.11 0, 40 0 M0 0 C8.46 0, 16.92 0, 40 0 M40 0 C40 11.44, 40 22.89, 40 40 M40 0 C40 11.13, 40 22.26, 40 40 M40 40 C29.16 40, 18.32 40, 0 40 M40 40 C25.23 40, 10.47 40, 0 40 M0 40 C0 25.35, 0 10.69, 0 0 M0 40 C0 29.62, 0 19.23, 0 0" stroke="#1e1e1e" stroke-width="1" fill="none"></path></g><g stroke-linecap="round" transform="translate(170 290) rotate(0 20 20)"><path d="M0 0 C11.43 0, 22.85 0, 40 0 M0 0 C11.74 0, 23.47 0, 40 0 M40 0 C40 11.95, 40 23.91, 40 40 M40 0 C40 11.67, 40 23.35, 40 40 M40 40 C24.55 40, 9.1 40, 0 40 M40 40 C25.34 40, 10.68 40, 0 40 M0 40 C0 28.95, 0 17.9, 0 0 M0 40 C0 29.14, 0 18.28, 0 0" stroke="#1e1e1e" stroke-width="1" fill="none"></path></g><g stroke-linecap="round" transform="translate(290 290) rotate(0 20 20)"><path d="M0 0 C10.52 0, 21.04 0, 40 0 M0 0 C10.61 0, 21.21 0, 40 0 M40 0 C40 10.02, 40 20.03, 40 40 M40 0 C40 15.72, 40 31.43, 40 40 M40 40 C30.35 40, 20.69 40, 0 40 M40 40 C28.13 40, 16.25 40, 0 40 M0 40 C0 29.45, 0 18.9, 0 0 M0 40 C0 24.37, 0 8.73, 0 0" stroke="#1e1e1e" stroke-width="1" fill="none"></path></g><g stroke-linecap="round" transform="translate(250 290) rotate(0 20 20)"><path d="M0 0 C13.66 0, 27.32 0, 40 0 M0 0 C14.97 0, 29.94 0, 40 0 M40 0 C40 13.31, 40 26.62, 40 40 M40 0 C40 11.69, 40 23.37, 40 40 M40 40 C31.76 40, 23.53 40, 0 40 M40 40 C31.89 40, 23.79 40, 0 40 M0 40 C0 27.72, 0 15.43, 0 0 M0 40 C0 29.56, 0 19.13, 0 0" stroke="#1e1e1e" stroke-width="1" fill="none"></path></g><g stroke-linecap="round" transform="translate(210 290) rotate(0 20 20)"><path d="M0 0 C15.76 0, 31.51 0, 40 0 M0 0 C10.28 0, 20.56 0, 40 0 M40 0 C40 11.35, 40 22.7, 40 40 M40 0 C40 10.8, 40 21.6, 40 40 M40 40 C27.44 40, 14.88 40, 0 40 M40 40 C28.9 40, 17.8 40, 0 40 M0 40 C0 25.29, 0 10.57, 0 0 M0 40 C0 29.72, 0 19.44, 0 0" stroke="#1e1e1e" stroke-width="1" fill="none"></path></g><g stroke-linecap="round" transform="translate(290 90) rotate(0 20 20)"><path d="M0 0 C15.6 0, 31.2 0, 40 0 M0 0 C13.36 0, 26.72 0, 40 0 M40 0 C40 11.7, 40 23.41, 40 40 M40 0 C40 10.3, 40 20.61, 40 40 M40 40 C29.52 40, 19.04 40, 0 40 M40 40 C24.09 40, 8.18 40, 0 40 M0 40 C0 24.69, 0 9.38, 0 0 M0 40 C0 25.64, 0 11.29, 0 0" stroke="#1e1e1e" stroke-width="1" fill="none"></path></g><g stroke-linecap="round"><g transform="translate(10 10) rotate(0 160 0)"><path d="M0 0 C77.91 0, 155.82 0, 320 0 M0 0 C89.03 0, 178.07 0, 320 0" stroke="#1e1e1e" stroke-width="4" fill="none"></path></g></g><mask></mask><g stroke-linecap="round"><g transform="translate(10 330) rotate(0 160 0)"><path d="M0 0 C123.16 0, 246.32 0, 320 0 M0 0 C119.24 0, 238.48 0, 320 0" stroke="#1e1e1e" stroke-width="4" fill="none"></path></g></g><mask></mask><g stroke-linecap="round"><g transform="translate(330 10) rotate(0 0 160)"><path d="M0 0 C0 124.26, 0 248.51, 0 320 M0 0 C0 77.34, 0 154.68, 0 320" stroke="#1e1e1e" stroke-width="4" fill="none"></path></g></g><mask></mask><g stroke-linecap="round"><g transform="translate(10 10) rotate(0 0 160)"><path d="M0 0 C0 93.14, 0 186.28, 0 320 M0 0 C0 89.67, 0 179.34, 0 320" stroke="#1e1e1e" stroke-width="4" fill="none"></path></g></g><mask></mask><g stroke-linecap="round"><g transform="translate(210 10) rotate(0 0 160)"><path d="M0 0 C0 67.61, 0 135.21, 0 320 M0 0 C0 122.42, 0 244.85, 0 320" stroke="#1e1e1e" stroke-width="4" fill="none"></path></g></g><mask></mask><g stroke-linecap="round"><g transform="translate(330 10) rotate(0 -60 160)"><path d="M0 0 C-28.02 74.71, -56.03 149.42, -120 320 M0 0 C-34.5 92.01, -69.01 184.02, -120 320" stroke="#1e1e1e" stroke-width="4" fill="none"></path></g></g><mask></mask><g stroke-linecap="round"><g transform="translate(10 130) rotate(0 100 40)"><path d="M0 0 C63.85 25.54, 127.7 51.08, 200 80 M0 0 C53.59 21.44, 107.19 42.88, 200 80" stroke="#1e1e1e" stroke-width="4" fill="none"></path></g></g><mask></mask><g stroke-linecap="round" transform="translate(430 70) rotate(0 20 20)"><path d="M0 0 C11.87 0, 23.75 0, 40 0 M0 0 C8.82 0, 17.63 0, 40 0 M40 0 C40 14.18, 40 28.36, 40 40 M40 0 C40 14.09, 40 28.18, 40 40 M40 40 C27.88 40, 15.77 40, 0 40 M40 40 C28.52 40, 17.04 40, 0 40 M0 40 C0 27.25, 0 14.5, 0 0 M0 40 C0 28.88, 0 17.76, 0 0" stroke="#1e1e1e" stroke-width="1" fill="none"></path></g><g stroke-linecap="round" transform="translate(550 70) rotate(0 20 20)"><path d="M0 0 C10.28 0, 20.56 0, 40 0 M0 0 C15.48 0, 30.96 0, 40 0 M40 0 C40 8.69, 40 17.38, 40 40 M40 0 C40 14.11, 40 28.23, 40 40 M40 40 C27.42 40, 14.84 40, 0 40 M40 40 C30.66 40, 21.31 40, 0 40 M0 40 C0 29.94, 0 19.88, 0 0 M0 40 C0 24.11, 0 8.21, 0 0" stroke="#1e1e1e" stroke-width="1" fill="none"></path></g><g stroke-linecap="round" transform="translate(510 70) rotate(0 20 20)"><path d="M0 0 C14.34 0, 28.68 0, 40 0 M0 0 C10.96 0, 21.92 0, 40 0 M40 0 C40 11.39, 40 22.77, 40 40 M40 0 C40 9.31, 40 18.62, 40 40 M40 40 C31.19 40, 22.38 40, 0 40 M40 40 C26.94 40, 13.87 40, 0 40 M0 40 C0 25.01, 0 10.02, 0 0 M0 40 C0 25.7, 0 11.4, 0 0" stroke="#1e1e1e" stroke-width="1" fill="none"></path></g><g stroke-linecap="round" transform="translate(470 70) rotate(0 20 20)"><path d="M0 0 C8.68 0, 17.36 0, 40 0 M0 0 C13.78 0, 27.55 0, 40 0 M40 0 C40 13.29, 40 26.59, 40 40 M40 0 C40 15.42, 40 30.84, 40 40 M40 40 C27.03 40, 14.05 40, 0 40 M40 40 C31.13 40, 22.26 40, 0 40 M0 40 C0 28.38, 0 16.76, 0 0 M0 40 C0 31.71, 0 23.41, 0 0" stroke="#1e1e1e" stroke-width="1" fill="none"></path></g><g stroke-linecap="round" transform="translate(470 70) rotate(0 20 20)"><path d="M0 0 C10.58 0, 21.16 0, 40 0 M0 0 C13.17 0, 26.35 0, 40 0 M40 0 C40 9.34, 40 18.68, 40 40 M40 0 C40 11.67, 40 23.34, 40 40 M40 40 C27.6 40, 15.21 40, 0 40 M40 40 C28.8 40, 17.61 40, 0 40 M0 40 C0 29.59, 0 19.17, 0 0 M0 40 C0 27.21, 0 14.43, 0 0" stroke="#1e1e1e" stroke-width="1" fill="none"></path></g><g stroke-linecap="round" transform="translate(430 110) rotate(0 20 20)"><path d="M0 0 C12.72 0, 25.44 0, 40 0 M0 0 C8.48 0, 16.96 0, 40 0 M40 0 C40 11.01, 40 22.01, 40 40 M40 0 C40 12.18, 40 24.37, 40 40 M40 40 C29.8 40, 19.61 40, 0 40 M40 40 C31.59 40, 23.17 40, 0 40 M0 40 C0 28.42, 0 16.83, 0 0 M0 40 C0 30.27, 0 20.54, 0 0" stroke="#1e1e1e" stroke-width="1" fill="none"></path></g><g stroke-linecap="round" transform="translate(550 110) rotate(0 20 20)"><path d="M0 0 C13.12 0, 26.24 0, 40 0 M0 0 C8.79 0, 17.58 0, 40 0 M40 0 C40 12.62, 40 25.23, 40 40 M40 0 C40 12.94, 40 25.89, 40 40 M40 40 C30.56 40, 21.12 40, 0 40 M40 40 C26.7 40, 13.4 40, 0 40 M0 40 C0 28, 0 16.01, 0 0 M0 40 C0 28.3, 0 16.61, 0 0" stroke="#1e1e1e" stroke-width="1" fill="none"></path></g><g stroke-linecap="round" transform="translate(510 110) rotate(0 20 20)"><path d="M0 0 C11.21 0, 22.41 0, 40 0 M0 0 C15.65 0, 31.29 0, 40 0 M40 0 C40 14.18, 40 28.37, 40 40 M40 0 C40 9.15, 40 18.3, 40 40 M40 40 C31.24 40, 22.49 40, 0 40 M40 40 C30.67 40, 21.35 40, 0 40 M0 40 C0 24.83, 0 9.66, 0 0 M0 40 C0 25.47, 0 10.94, 0 0" stroke="#1e1e1e" stroke-width="1" fill="none"></path></g><g stroke-linecap="round" transform="translate(470 110) rotate(0 20 20)"><path d="M0 0 C14.7 0, 29.41 0, 40 0 M0 0 C15.62 0, 31.24 0, 40 0 M40 0 C40 15.17, 40 30.33, 40 40 M40 0 C40 14.02, 40 28.05, 40 40 M40 40 C27.43 40, 14.86 40, 0 40 M40 40 C28.9 40, 17.79 40, 0 40 M0 40 C0 28.23, 0 16.46, 0 0 M0 40 C0 31, 0 22, 0 0" stroke="#1e1e1e" stroke-width="1" fill="none"></path></g><g stroke-linecap="round" transform="translate(470 110) rotate(0 20 20)"><path d="M0 0 C11.55 0, 23.1 0, 40 0 M0 0 C13.68 0, 27.37 0, 40 0 M40 0 C40 11.98, 40 23.95, 40 40 M40 0 C40 14.44, 40 28.88, 40 40 M40 40 C24.97 40, 9.94 40, 0 40 M40 40 C29.84 40, 19.67 40, 0 40 M0 40 C0 25.09, 0 10.18, 0 0 M0 40 C0 25.98, 0 11.96, 0 0" stroke="#1e1e1e" stroke-width="1" fill="none"></path></g><g stroke-linecap="round" transform="translate(430 150) rotate(0 20 20)"><path d="M0 0 C15.79 0, 31.58 0, 40 0 M0 0 C10.02 0, 20.04 0, 40 0 M40 0 C40 15.82, 40 31.64, 40 40 M40 0 C40 12.27, 40 24.55, 40 40 M40 40 C25.18 40, 10.37 40, 0 40 M40 40 C26.19 40, 12.39 40, 0 40 M0 40 C0 25.14, 0 10.28, 0 0 M0 40 C0 26.26, 0 12.53, 0 0" stroke="#1e1e1e" stroke-width="1" fill="none"></path></g><g stroke-linecap="round" transform="translate(550 150) rotate(0 20 20)"><path d="M0 0 C15.48 0, 30.96 0, 40 0 M0 0 C10.57 0, 21.14 0, 40 0 M40 0 C40 14.52, 40 29.04, 40 40 M40 0 C40 12.78, 40 25.56, 40 40 M40 40 C28.62 40, 17.24 40, 0 40 M40 40 C26.26 40, 12.52 40, 0 40 M0 40 C0 26.83, 0 13.65, 0 0 M0 40 C0 30.82, 0 21.64, 0 0" stroke="#1e1e1e" stroke-width="1" fill="none"></path></g><g stroke-linecap="round" transform="translate(510 150) rotate(0 20 20)"><path d="M0 0 C9.67 0, 19.35 0, 40 0 M0 0 C13.59 0, 27.18 0, 40 0 M40 0 C40 13.25, 40 26.5, 40 40 M40 0 C40 11.11, 40 22.22, 40 40 M40 40 C25.44 40, 10.89 40, 0 40 M40 40 C28.81 40, 17.62 40, 0 40 M0 40 C0 31.04, 0 22.09, 0 0 M0 40 C0 29.09, 0 18.18, 0 0" stroke="#1e1e1e" stroke-width="1" fill="none"></path></g><g stroke-linecap="round" transform="translate(470 150) rotate(0 20 20)"><path d="M0 0 C11.98 0, 23.97 0, 40 0 M0 0 C8.61 0, 17.22 0, 40 0 M40 0 C40 8.04, 40 16.08, 40 40 M40 0 C40 10.02, 40 20.03, 40 40 M40 40 C30.5 40, 20.99 40, 0 40 M40 40 C28.62 40, 17.24 40, 0 40 M0 40 C0 24.73, 0 9.45, 0 0 M0 40 C0 24.12, 0 8.24, 0 0" stroke="#1e1e1e" stroke-width="1" fill="none"></path></g><g stroke-linecap="round" transform="translate(470 150) rotate(0 20 20)"><path d="M0 0 C12.7 0, 25.4 0, 40 0 M0 0 C11.86 0, 23.72 0, 40 0 M40 0 C40 14.81, 40 29.62, 40 40 M40 0 C40 15.71, 40 31.42, 40 40 M40 40 C27.44 40, 14.89 40, 0 40 M40 40 C24.25 40, 8.5 40, 0 40 M0 40 C0 24.39, 0 8.79, 0 0 M0 40 C0 29.99, 0 19.98, 0 0" stroke="#1e1e1e" stroke-width="1" fill="none"></path></g><g stroke-linecap="round" transform="translate(430 190) rotate(0 20 20)"><path d="M0 0 C15.75 0, 31.5 0, 40 0 M0 0 C15.61 0, 31.21 0, 40 0 M40 0 C40 10.01, 40 20.02, 40 40 M40 0 C40 8.05, 40 16.1, 40 40 M40 40 C26.52 40, 13.05 40, 0 40 M40 40 C24.36 40, 8.73 40, 0 40 M0 40 C0 29.15, 0 18.3, 0 0 M0 40 C0 26.97, 0 13.94, 0 0" stroke="#1e1e1e" stroke-width="1" fill="none"></path></g><g stroke-linecap="round" transform="translate(550 190) rotate(0 20 20)"><path d="M0 0 C15.2 0, 30.4 0, 40 0 M0 0 C14.6 0, 29.19 0, 40 0 M40 0 C40 9.42, 40 18.84, 40 40 M40 0 C40 10.94, 40 21.88, 40 40 M40 40 C26.38 40, 12.76 40, 0 40 M40 40 C31.74 40, 23.48 40, 0 40 M0 40 C0 25.4, 0 10.8, 0 0 M0 40 C0 24.51, 0 9.01, 0 0" stroke="#1e1e1e" stroke-width="1" fill="none"></path></g><g stroke-linecap="round" transform="translate(510 190) rotate(0 20 20)"><path d="M0 0 C15.34 0, 30.67 0, 40 0 M0 0 C8.8 0, 17.61 0, 40 0 M40 0 C40 13.7, 40 27.4, 40 40 M40 0 C40 13.54, 40 27.08, 40 40 M40 40 C30.35 40, 20.7 40, 0 40 M40 40 C25.12 40, 10.24 40, 0 40 M0 40 C0 27.16, 0 14.33, 0 0 M0 40 C0 24.72, 0 9.45, 0 0" stroke="#1e1e1e" stroke-width="1" fill="none"></path></g><g stroke-linecap="round" transform="translate(470 190) rotate(0 20 20)"><path d="M0 0 C13.74 0, 27.47 0, 40 0 M0 0 C13.45 0, 26.89 0, 40 0 M40 0 C40 15.15, 40 30.3, 40 40 M40 0 C40 14.72, 40 29.44, 40 40 M40 40 C30.16 40, 20.31 40, 0 40 M40 40 C31.24 40, 22.48 40, 0 40 M0 40 C0 28.93, 0 17.87, 0 0 M0 40 C0 25.2, 0 10.41, 0 0" stroke="#1e1e1e" stroke-width="1" fill="none"></path></g><g stroke-linecap="round" transform="translate(470 190) rotate(0 20 20)"><path d="M0 0 C9.18 0, 18.36 0, 40 0 M0 0 C9.16 0, 18.32 0, 40 0 M40 0 C40 8.03, 40 16.06, 40 40 M40 0 C40 14.02, 40 28.03, 40 40 M40 40 C30.82 40, 21.64 40, 0 40 M40 40 C24.91 40, 9.83 40, 0 40 M0 40 C0 29.75, 0 19.51, 0 0 M0 40 C0 24.37, 0 8.74, 0 0" stroke="#1e1e1e" stroke-width="1" fill="none"></path></g><g stroke-linecap="round" transform="translate(430 230) rotate(0 20 20)"><path d="M0 0 C9.25 0, 18.49 0, 40 0 M0 0 C11.97 0, 23.93 0, 40 0 M40 0 C40 12.53, 40 25.06, 40 40 M40 0 C40 11, 40 21.99, 40 40 M40 40 C28.88 40, 17.76 40, 0 40 M40 40 C24.21 40, 8.41 40, 0 40 M0 40 C0 31.81, 0 23.62, 0 0 M0 40 C0 25.11, 0 10.23, 0 0" stroke="#1e1e1e" stroke-width="1" fill="none"></path></g><g stroke-linecap="round" transform="translate(550 230) rotate(0 20 20)"><path d="M0 0 C11.89 0, 23.79 0, 40 0 M0 0 C8.4 0, 16.8 0, 40 0 M40 0 C40 11.16, 40 22.33, 40 40 M40 0 C40 8.45, 40 16.91, 40 40 M40 40 C28.24 40, 16.48 40, 0 40 M40 40 C27.91 40, 15.82 40, 0 40 M0 40 C0 29.13, 0 18.26, 0 0 M0 40 C0 24.56, 0 9.11, 0 0" stroke="#1e1e1e" stroke-width="1" fill="none"></path></g><g stroke-linecap="round" transform="translate(510 230) rotate(0 20 20)"><path d="M0 0 C10.93 0, 21.85 0, 40 0 M0 0 C11.5 0, 23 0, 40 0 M40 0 C40 10.31, 40 20.63, 40 40 M40 0 C40 15.83, 40 31.67, 40 40 M40 40 C26.92 40, 13.84 40, 0 40 M40 40 C25.09 40, 10.19 40, 0 40 M0 40 C0 30.31, 0 20.63, 0 0 M0 40 C0 30.8, 0 21.6, 0 0" stroke="#1e1e1e" stroke-width="1" fill="none"></path></g><g stroke-linecap="round" transform="translate(470 230) rotate(0 20 20)"><path d="M0 0 C9.62 0, 19.24 0, 40 0 M0 0 C10.63 0, 21.27 0, 40 0 M40 0 C40 8.65, 40 17.3, 40 40 M40 0 C40 14.73, 40 29.47, 40 40 M40 40 C24.1 40, 8.2 40, 0 40 M40 40 C28.69 40, 17.38 40, 0 40 M0 40 C0 25.64, 0 11.28, 0 0 M0 40 C0 30.05, 0 20.1, 0 0" stroke="#1e1e1e" stroke-width="1" fill="none"></path></g><g stroke-linecap="round" transform="translate(470 230) rotate(0 20 20)"><path d="M0 0 C14.92 0, 29.83 0, 40 0 M0 0 C10.88 0, 21.76 0, 40 0 M40 0 C40 11.77, 40 23.53, 40 40 M40 0 C40 11.21, 40 22.41, 40 40 M40 40 C24.78 40, 9.57 40, 0 40 M40 40 C26.41 40, 12.82 40, 0 40 M0 40 C0 31.97, 0 23.94, 0 0 M0 40 C0 30.54, 0 21.08, 0 0" stroke="#1e1e1e" stroke-width="1" fill="none"></path></g><g stroke-linecap="round" transform="translate(590 70) rotate(0 20 20)"><path d="M0 0 C12.89 0, 25.78 0, 40 0 M0 0 C10.33 0, 20.66 0, 40 0 M40 0 C40 10.6, 40 21.2, 40 40 M40 0 C40 12.08, 40 24.16, 40 40 M40 40 C26.16 40, 12.33 40, 0 40 M40 40 C31.86 40, 23.71 40, 0 40 M0 40 C0 24.5, 0 8.99, 0 0 M0 40 C0 28.4, 0 16.8, 0 0" stroke="#1e1e1e" stroke-width="1" fill="none"></path></g><g stroke-linecap="round" transform="translate(710 70) rotate(0 20 20)"><path d="M0 0 C11.9 0, 23.79 0, 40 0 M0 0 C15.31 0, 30.61 0, 40 0 M40 0 C40 9.04, 40 18.07, 40 40 M40 0 C40 10.97, 40 21.94, 40 40 M40 40 C29.18 40, 18.36 40, 0 40 M40 40 C27.19 40, 14.38 40, 0 40 M0 40 C0 26.49, 0 12.97, 0 0 M0 40 C0 25.08, 0 10.17, 0 0" stroke="#1e1e1e" stroke-width="1" fill="none"></path></g><g stroke-linecap="round" transform="translate(670 70) rotate(0 20 20)"><path d="M0 0 C10.26 0, 20.53 0, 40 0 M0 0 C11.63 0, 23.26 0, 40 0 M40 0 C40 15.6, 40 31.2, 40 40 M40 0 C40 9.74, 40 19.48, 40 40 M40 40 C31.71 40, 23.43 40, 0 40 M40 40 C29.08 40, 18.15 40, 0 40 M0 40 C0 31.31, 0 22.61, 0 0 M0 40 C0 26.45, 0 12.91, 0 0" stroke="#1e1e1e" stroke-width="1" fill="none"></path></g><g stroke-linecap="round" transform="translate(630 70) rotate(0 20 20)"><path d="M0 0 C8.54 0, 17.08 0, 40 0 M0 0 C9.91 0, 19.83 0, 40 0 M40 0 C40 14.81, 40 29.63, 40 40 M40 0 C40 9.41, 40 18.82, 40 40 M40 40 C28.02 40, 16.03 40, 0 40 M40 40 C31.34 40, 22.69 40, 0 40 M0 40 C0 30.73, 0 21.46, 0 0 M0 40 C0 30.44, 0 20.89, 0 0" stroke="#1e1e1e" stroke-width="1" fill="none"></path></g><g stroke-linecap="round" transform="translate(630 70) rotate(0 20 20)"><path d="M0 0 C9.24 0, 18.48 0, 40 0 M0 0 C13.45 0, 26.89 0, 40 0 M40 0 C40 9.92, 40 19.84, 40 40 M40 0 C40 14.9, 40 29.81, 40 40 M40 40 C24.87 40, 9.75 40, 0 40 M40 40 C28.66 40, 17.32 40, 0 40 M0 40 C0 28.32, 0 16.64, 0 0 M0 40 C0 24.57, 0 9.15, 0 0" stroke="#1e1e1e" stroke-width="1" fill="none"></path></g><g stroke-linecap="round" transform="translate(590 110) rotate(0 20 20)"><path d="M0 0 C10.08 0, 20.15 0, 40 0 M0 0 C12.93 0, 25.85 0, 40 0 M40 0 C40 8.11, 40 16.22, 40 40 M40 0 C40 13.82, 40 27.65, 40 40 M40 40 C24.36 40, 8.73 40, 0 40 M40 40 C29.78 40, 19.57 40, 0 40 M0 40 C0 30.17, 0 20.35, 0 0 M0 40 C0 31.2, 0 22.41, 0 0" stroke="#1e1e1e" stroke-width="1" fill="none"></path></g><g stroke-linecap="round" transform="translate(710 110) rotate(0 20 20)"><path d="M0 0 C13.23 0, 26.47 0, 40 0 M0 0 C13.21 0, 26.42 0, 40 0 M40 0 C40 13.79, 40 27.58, 40 40 M40 0 C40 11.18, 40 22.36, 40 40 M40 40 C30.6 40, 21.21 40, 0 40 M40 40 C30.81 40, 21.61 40, 0 40 M0 40 C0 27.68, 0 15.36, 0 0 M0 40 C0 24.78, 0 9.55, 0 0" stroke="#1e1e1e" stroke-width="1" fill="none"></path></g><g stroke-linecap="round" transform="translate(670 110) rotate(0 20 20)"><path d="M0 0 C10.6 0, 21.2 0, 40 0 M0 0 C12.08 0, 24.16 0, 40 0 M40 0 C40 13.84, 40 27.67, 40 40 M40 0 C40 8.14, 40 16.29, 40 40 M40 40 C24.5 40, 8.99 40, 0 40 M40 40 C28.4 40, 16.8 40, 0 40 M0 40 C0 28.27, 0 16.54, 0 0 M0 40 C0 25.07, 0 10.13, 0 0" stroke="#1e1e1e" stroke-width="1" fill="none"></path></g><g stroke-linecap="round" transform="translate(630 110) rotate(0 20 20)"><path d="M0 0 C9.04 0, 18.07 0, 40 0 M0 0 C10.97 0, 21.94 0, 40 0 M40 0 C40 10.82, 40 21.64, 40 40 M40 0 C40 12.81, 40 25.62, 40 40 M40 40 C26.49 40, 12.97 40, 0 40 M40 40 C25.08 40, 10.17 40, 0 40 M0 40 C0 30.16, 0 20.32, 0 0 M0 40 C0 30.44, 0 20.88, 0 0" stroke="#1e1e1e" stroke-width="1" fill="none"></path></g><g stroke-linecap="round" transform="translate(630 110) rotate(0 20 20)"><path d="M0 0 C15.6 0, 31.2 0, 40 0 M0 0 C9.74 0, 19.48 0, 40 0 M40 0 C40 8.29, 40 16.57, 40 40 M40 0 C40 10.92, 40 21.85, 40 40 M40 40 C31.31 40, 22.61 40, 0 40 M40 40 C26.45 40, 12.91 40, 0 40 M0 40 C0 29.11, 0 18.21, 0 0 M0 40 C0 31.1, 0 22.2, 0 0" stroke="#1e1e1e" stroke-width="1" fill="none"></path></g><g stroke-linecap="round" transform="translate(590 150) rotate(0 20 20)"><path d="M0 0 C14.81 0, 29.63 0, 40 0 M0 0 C9.41 0, 18.82 0, 40 0 M40 0 C40 11.98, 40 23.97, 40 40 M40 0 C40 8.66, 40 17.31, 40 40 M40 40 C30.73 40, 21.46 40, 0 40 M40 40 C30.44 40, 20.89 40, 0 40 M0 40 C0 25.16, 0 10.31, 0 0 M0 40 C0 30.33, 0 20.66, 0 0" stroke="#1e1e1e" stroke-width="1" fill="none"></path></g><g stroke-linecap="round" transform="translate(710 150) rotate(0 20 20)"><path d="M0 0 C9.92 0, 19.84 0, 40 0 M0 0 C14.9 0, 29.81 0, 40 0 M40 0 C40 15.13, 40 30.25, 40 40 M40 0 C40 11.34, 40 22.68, 40 40 M40 40 C28.32 40, 16.64 40, 0 40 M40 40 C24.57 40, 9.15 40, 0 40 M0 40 C0 29.39, 0 18.78, 0 0 M0 40 C0 25.75, 0 11.5, 0 0" stroke="#1e1e1e" stroke-width="1" fill="none"></path></g><g stroke-linecap="round" transform="translate(670 150) rotate(0 20 20)"><path d="M0 0 C8.11 0, 16.22 0, 40 0 M0 0 C13.82 0, 27.65 0, 40 0 M40 0 C40 15.64, 40 31.27, 40 40 M40 0 C40 10.22, 40 20.43, 40 40 M40 40 C30.17 40, 20.35 40, 0 40 M40 40 C31.2 40, 22.41 40, 0 40 M0 40 C0 30.69, 0 21.38, 0 0 M0 40 C0 30.58, 0 21.15, 0 0" stroke="#1e1e1e" stroke-width="1" fill="none"></path></g><g stroke-linecap="round" transform="translate(630 150) rotate(0 20 20)"><path d="M0 0 C13.79 0, 27.58 0, 40 0 M0 0 C11.18 0, 22.36 0, 40 0 M40 0 C40 9.4, 40 18.79, 40 40 M40 0 C40 9.19, 40 18.39, 40 40 M40 40 C27.68 40, 15.36 40, 0 40 M40 40 C24.78 40, 9.55 40, 0 40 M0 40 C0 26.46, 0 12.92, 0 0 M0 40 C0 30.85, 0 21.69, 0 0" stroke="#1e1e1e" stroke-width="1" fill="none"></path></g><g stroke-linecap="round" transform="translate(630 150) rotate(0 20 20)"><path d="M0 0 C13.84 0, 27.67 0, 40 0 M0 0 C8.14 0, 16.29 0, 40 0 M40 0 C40 15.5, 40 31.01, 40 40 M40 0 C40 11.6, 40 23.2, 40 40 M40 40 C28.27 40, 16.54 40, 0 40 M40 40 C25.07 40, 10.13 40, 0 40 M0 40 C0 29.41, 0 18.81, 0 0 M0 40 C0 30.69, 0 21.39, 0 0" stroke="#1e1e1e" stroke-width="1" fill="none"></path></g><g stroke-linecap="round" transform="translate(590 190) rotate(0 20 20)"><path d="M0 0 C10.82 0, 21.64 0, 40 0 M0 0 C12.81 0, 25.62 0, 40 0 M40 0 C40 13.51, 40 27.03, 40 40 M40 0 C40 14.92, 40 29.83, 40 40 M40 40 C30.16 40, 20.32 40, 0 40 M40 40 C30.44 40, 20.88 40, 0 40 M0 40 C0 26.27, 0 12.54, 0 0 M0 40 C0 25.58, 0 11.16, 0 0" stroke="#1e1e1e" stroke-width="1" fill="none"></path></g><g stroke-linecap="round" transform="translate(710 190) rotate(0 20 20)"><path d="M0 0 C8.29 0, 16.57 0, 40 0 M0 0 C10.92 0, 21.85 0, 40 0 M40 0 C40 8.69, 40 17.39, 40 40 M40 0 C40 13.55, 40 27.09, 40 40 M40 40 C29.11 40, 18.21 40, 0 40 M40 40 C31.1 40, 22.2 40, 0 40 M0 40 C0 24.58, 0 9.15, 0 0 M0 40 C0 31.56, 0 23.12, 0 0" stroke="#1e1e1e" stroke-width="1" fill="none"></path></g><g stroke-linecap="round" transform="translate(670 190) rotate(0 20 20)"><path d="M0 0 C11.98 0, 23.97 0, 40 0 M0 0 C8.66 0, 17.31 0, 40 0 M40 0 C40 9.27, 40 18.54, 40 40 M40 0 C40 9.56, 40 19.11, 40 40 M40 40 C25.16 40, 10.31 40, 0 40 M40 40 C30.33 40, 20.66 40, 0 40 M0 40 C0 27.4, 0 14.8, 0 0 M0 40 C0 26.53, 0 13.05, 0 0" stroke="#1e1e1e" stroke-width="1" fill="none"></path></g><g stroke-linecap="round" transform="translate(630 190) rotate(0 20 20)"><path d="M0 0 C15.13 0, 30.25 0, 40 0 M0 0 C11.34 0, 22.68 0, 40 0 M40 0 C40 11.68, 40 23.36, 40 40 M40 0 C40 15.43, 40 30.85, 40 40 M40 40 C29.39 40, 18.78 40, 0 40 M40 40 C25.75 40, 11.5 40, 0 40 M0 40 C0 24.1, 0 8.2, 0 0 M0 40 C0 27.44, 0 14.89, 0 0" stroke="#1e1e1e" stroke-width="1" fill="none"></path></g><g stroke-linecap="round" transform="translate(630 190) rotate(0 20 20)"><path d="M0 0 C15.64 0, 31.27 0, 40 0 M0 0 C10.22 0, 20.43 0, 40 0 M40 0 C40 9.83, 40 19.65, 40 40 M40 0 C40 8.8, 40 17.59, 40 40 M40 40 C30.69 40, 21.38 40, 0 40 M40 40 C30.58 40, 21.15 40, 0 40 M0 40 C0 29.07, 0 18.14, 0 0 M0 40 C0 31.63, 0 23.26, 0 0" stroke="#1e1e1e" stroke-width="1" fill="none"></path></g><g stroke-linecap="round" transform="translate(590 230) rotate(0 20 20)"><path d="M0 0 C9.4 0, 18.79 0, 40 0 M0 0 C9.19 0, 18.39 0, 40 0 M40 0 C40 12.32, 40 24.64, 40 40 M40 0 C40 15.22, 40 30.45, 40 40 M40 40 C26.46 40, 12.92 40, 0 40 M40 40 C30.85 40, 21.69 40, 0 40 M0 40 C0 24.5, 0 9, 0 0 M0 40 C0 29.98, 0 19.95, 0 0" stroke="#1e1e1e" stroke-width="1" fill="none"></path></g><g stroke-linecap="round" transform="translate(710 230) rotate(0 20 20)"><path d="M0 0 C15.5 0, 31.01 0, 40 0 M0 0 C11.6 0, 23.2 0, 40 0 M40 0 C40 11.73, 40 23.46, 40 40 M40 0 C40 14.93, 40 29.87, 40 40 M40 40 C29.41 40, 18.81 40, 0 40 M40 40 C30.69 40, 21.39 40, 0 40 M0 40 C0 31.11, 0 22.21, 0 0 M0 40 C0 28.21, 0 16.43, 0 0" stroke="#1e1e1e" stroke-width="1" fill="none"></path></g><g stroke-linecap="round" transform="translate(670 230) rotate(0 20 20)"><path d="M0 0 C13.51 0, 27.03 0, 40 0 M0 0 C14.92 0, 29.83 0, 40 0 M40 0 C40 9.84, 40 19.68, 40 40 M40 0 C40 9.56, 40 19.12, 40 40 M40 40 C26.27 40, 12.54 40, 0 40 M40 40 C25.58 40, 11.16 40, 0 40 M0 40 C0 26.91, 0 13.83, 0 0 M0 40 C0 28.16, 0 16.33, 0 0" stroke="#1e1e1e" stroke-width="1" fill="none"></path></g><g stroke-linecap="round" transform="translate(630 230) rotate(0 20 20)"><path d="M0 0 C8.69 0, 17.39 0, 40 0 M0 0 C13.55 0, 27.09 0, 40 0 M40 0 C40 10.89, 40 21.79, 40 40 M40 0 C40 8.9, 40 17.8, 40 40 M40 40 C24.58 40, 9.15 40, 0 40 M40 40 C31.56 40, 23.12 40, 0 40 M0 40 C0 25.97, 0 11.94, 0 0 M0 40 C0 24.98, 0 9.95, 0 0" stroke="#1e1e1e" stroke-width="1" fill="none"></path></g><g stroke-linecap="round" transform="translate(630 230) rotate(0 20 20)"><path d="M0 0 C9.27 0, 18.54 0, 40 0 M0 0 C9.56 0, 19.11 0, 40 0 M40 0 C40 14.84, 40 29.69, 40 40 M40 0 C40 9.67, 40 19.34, 40 40 M40 40 C27.4 40, 14.8 40, 0 40 M40 40 C26.53 40, 13.05 40, 0 40 M0 40 C0 29.12, 0 18.24, 0 0 M0 40 C0 28.39, 0 16.79, 0 0" stroke="#1e1e1e" stroke-width="1" fill="none"></path></g><g stroke-linecap="round" transform="translate(750 70) rotate(0 20 20)"><path d="M0 0 C13.71 0, 27.43 0, 40 0 M0 0 C10.63 0, 21.26 0, 40 0 M40 0 C40 8.1, 40 16.2, 40 40 M40 0 C40 14.6, 40 29.21, 40 40 M40 40 C29.84 40, 19.67 40, 0 40 M40 40 C25.53 40, 11.05 40, 0 40 M0 40 C0 27.79, 0 15.57, 0 0 M0 40 C0 28.63, 0 17.25, 0 0" stroke="#1e1e1e" stroke-width="1" fill="none"></path></g><g stroke-linecap="round" transform="translate(870 70) rotate(0 20 20)"><path d="M0 0 C13.21 0, 26.42 0, 40 0 M0 0 C13.15 0, 26.31 0, 40 0 M40 0 C40 12.83, 40 25.65, 40 40 M40 0 C40 13.74, 40 27.47, 40 40 M40 40 C30.64 40, 21.27 40, 0 40 M40 40 C30.96 40, 21.91 40, 0 40 M0 40 C0 31.34, 0 22.68, 0 0 M0 40 C0 27.68, 0 15.37, 0 0" stroke="#1e1e1e" stroke-width="1" fill="none"></path></g><g stroke-linecap="round" transform="translate(830 70) rotate(0 20 20)"><path d="M0 0 C13.53 0, 27.07 0, 40 0 M0 0 C9.27 0, 18.55 0, 40 0 M40 0 C40 11.89, 40 23.79, 40 40 M40 0 C40 10.08, 40 20.16, 40 40 M40 40 C31.04 40, 22.07 40, 0 40 M40 40 C26.72 40, 13.44 40, 0 40 M0 40 C0 24.64, 0 9.29, 0 0 M0 40 C0 31.04, 0 22.07, 0 0" stroke="#1e1e1e" stroke-width="1" fill="none"></path></g><g stroke-linecap="round" transform="translate(790 70) rotate(0 20 20)"><path d="M0 0 C14.94 0, 29.88 0, 40 0 M0 0 C11.62 0, 23.24 0, 40 0 M40 0 C40 12.46, 40 24.92, 40 40 M40 0 C40 12.99, 40 25.99, 40 40 M40 40 C26.23 40, 12.46 40, 0 40 M40 40 C25.48 40, 10.97 40, 0 40 M0 40 C0 30.5, 0 20.99, 0 0 M0 40 C0 28.12, 0 16.24, 0 0" stroke="#1e1e1e" stroke-width="1" fill="none"></path></g><g stroke-linecap="round" transform="translate(790 70) rotate(0 20 20)"><path d="M0 0 C13.85 0, 27.7 0, 40 0 M0 0 C8.04 0, 16.08 0, 40 0 M40 0 C40 13.1, 40 26.2, 40 40 M40 0 C40 15.8, 40 31.61, 40 40 M40 40 C24.74 40, 9.49 40, 0 40 M40 40 C31.19 40, 22.39 40, 0 40 M0 40 C0 25.78, 0 11.55, 0 0 M0 40 C0 30.91, 0 21.81, 0 0" stroke="#1e1e1e" stroke-width="1" fill="none"></path></g><g stroke-linecap="round" transform="translate(750 110) rotate(0 20 20)"><path d="M0 0 C13.61 0, 27.23 0, 40 0 M0 0 C10.84 0, 21.68 0, 40 0 M40 0 C40 14.56, 40 29.11, 40 40 M40 0 C40 13.04, 40 26.08, 40 40 M40 40 C29.69 40, 19.38 40, 0 40 M40 40 C29.84 40, 19.69 40, 0 40 M0 40 C0 26.7, 0 13.4, 0 0 M0 40 C0 24.67, 0 9.33, 0 0" stroke="#1e1e1e" stroke-width="1" fill="none"></path></g><g stroke-linecap="round" transform="translate(870 110) rotate(0 20 20)"><path d="M0 0 C11.22 0, 22.45 0, 40 0 M0 0 C10.04 0, 20.07 0, 40 0 M40 0 C40 14.47, 40 28.94, 40 40 M40 0 C40 9.69, 40 19.39, 40 40 M40 40 C28.03 40, 16.06 40, 0 40 M40 40 C28.22 40, 16.43 40, 0 40 M0 40 C0 30.07, 0 20.14, 0 0 M0 40 C0 30.7, 0 21.4, 0 0" stroke="#1e1e1e" stroke-width="1" fill="none"></path></g><g stroke-linecap="round" transform="translate(830 110) rotate(0 20 20)"><path d="M0 0 C8.1 0, 16.2 0, 40 0 M0 0 C14.6 0, 29.21 0, 40 0 M40 0 C40 10.16, 40 20.33, 40 40 M40 0 C40 14.47, 40 28.95, 40 40 M40 40 C27.79 40, 15.57 40, 0 40 M40 40 C28.63 40, 17.25 40, 0 40 M0 40 C0 26.52, 0 13.05, 0 0 M0 40 C0 25.1, 0 10.2, 0 0" stroke="#1e1e1e" stroke-width="1" fill="none"></path></g><g stroke-linecap="round" transform="translate(790 110) rotate(0 20 20)"><path d="M0 0 C12.83 0, 25.65 0, 40 0 M0 0 C13.74 0, 27.47 0, 40 0 M40 0 C40 9.36, 40 18.73, 40 40 M40 0 C40 9.04, 40 18.09, 40 40 M40 40 C31.34 40, 22.68 40, 0 40 M40 40 C27.68 40, 15.37 40, 0 40 M0 40 C0 29.78, 0 19.56, 0 0 M0 40 C0 25.5, 0 10.99, 0 0" stroke="#1e1e1e" stroke-width="1" fill="none"></path></g><g stroke-linecap="round" transform="translate(790 110) rotate(0 20 20)"><path d="M0 0 C11.89 0, 23.79 0, 40 0 M0 0 C10.08 0, 20.16 0, 40 0 M40 0 C40 8.96, 40 17.93, 40 40 M40 0 C40 13.28, 40 26.56, 40 40 M40 40 C24.64 40, 9.29 40, 0 40 M40 40 C31.04 40, 22.07 40, 0 40 M0 40 C0 25.91, 0 11.82, 0 0 M0 40 C0 25.81, 0 11.62, 0 0" stroke="#1e1e1e" stroke-width="1" fill="none"></path></g><g stroke-linecap="round" transform="translate(750 150) rotate(0 20 20)"><path d="M0 0 C12.46 0, 24.92 0, 40 0 M0 0 C12.99 0, 25.99 0, 40 0 M40 0 C40 13.77, 40 27.54, 40 40 M40 0 C40 14.52, 40 29.03, 40 40 M40 40 C30.5 40, 20.99 40, 0 40 M40 40 C28.12 40, 16.24 40, 0 40 M0 40 C0 26.55, 0 13.1, 0 0 M0 40 C0 27.01, 0 14.01, 0 0" stroke="#1e1e1e" stroke-width="1" fill="none"></path></g><g stroke-linecap="round" transform="translate(870 150) rotate(0 20 20)"><path d="M0 0 C13.1 0, 26.2 0, 40 0 M0 0 C15.8 0, 31.61 0, 40 0 M40 0 C40 15.26, 40 30.51, 40 40 M40 0 C40 8.81, 40 17.61, 40 40 M40 40 C25.78 40, 11.55 40, 0 40 M40 40 C30.91 40, 21.81 40, 0 40 M0 40 C0 26.18, 0 12.36, 0 0 M0 40 C0 27.83, 0 15.66, 0 0" stroke="#1e1e1e" stroke-width="1" fill="none"></path></g><g stroke-linecap="round" transform="translate(830 150) rotate(0 20 20)"><path d="M0 0 C14.56 0, 29.11 0, 40 0 M0 0 C13.04 0, 26.08 0, 40 0 M40 0 C40 10.31, 40 20.62, 40 40 M40 0 C40 10.16, 40 20.31, 40 40 M40 40 C26.7 40, 13.4 40, 0 40 M40 40 C24.67 40, 9.33 40, 0 40 M0 40 C0 31.38, 0 22.76, 0 0 M0 40 C0 31.57, 0 23.13, 0 0" stroke="#1e1e1e" stroke-width="1" fill="none"></path></g><g stroke-linecap="round" transform="translate(790 150) rotate(0 20 20)"><path d="M0 0 C14.47 0, 28.94 0, 40 0 M0 0 C9.69 0, 19.39 0, 40 0 M40 0 C40 11.97, 40 23.94, 40 40 M40 0 C40 11.78, 40 23.57, 40 40 M40 40 C30.07 40, 20.14 40, 0 40 M40 40 C30.7 40, 21.4 40, 0 40 M0 40 C0 26.04, 0 12.08, 0 0 M0 40 C0 28.8, 0 17.59, 0 0" stroke="#1e1e1e" stroke-width="1" fill="none"></path></g><g stroke-linecap="round" transform="translate(790 150) rotate(0 20 20)"><path d="M0 0 C10.16 0, 20.33 0, 40 0 M0 0 C14.47 0, 28.95 0, 40 0 M40 0 C40 12.21, 40 24.43, 40 40 M40 0 C40 11.37, 40 22.75, 40 40 M40 40 C26.52 40, 13.05 40, 0 40 M40 40 C25.1 40, 10.2 40, 0 40 M0 40 C0 24.66, 0 9.31, 0 0 M0 40 C0 28.13, 0 16.27, 0 0" stroke="#1e1e1e" stroke-width="1" fill="none"></path></g><g stroke-linecap="round" transform="translate(750 190) rotate(0 20 20)"><path d="M0 0 C9.36 0, 18.73 0, 40 0 M0 0 C9.04 0, 18.09 0, 40 0 M40 0 C40 8.66, 40 17.32, 40 40 M40 0 C40 12.32, 40 24.63, 40 40 M40 40 C29.78 40, 19.56 40, 0 40 M40 40 C25.5 40, 10.99 40, 0 40 M0 40 C0 29.55, 0 19.11, 0 0 M0 40 C0 30.98, 0 21.97, 0 0" stroke="#1e1e1e" stroke-width="1" fill="none"></path></g><g stroke-linecap="round" transform="translate(870 190) rotate(0 20 20)"><path d="M0 0 C8.96 0, 17.93 0, 40 0 M0 0 C13.28 0, 26.56 0, 40 0 M40 0 C40 15.36, 40 30.71, 40 40 M40 0 C40 8.96, 40 17.93, 40 40 M40 40 C25.91 40, 11.82 40, 0 40 M40 40 C25.81 40, 11.62 40, 0 40 M0 40 C0 28.14, 0 16.29, 0 0 M0 40 C0 30.29, 0 20.58, 0 0" stroke="#1e1e1e" stroke-width="1" fill="none"></path></g><g stroke-linecap="round" transform="translate(830 190) rotate(0 20 20)"><path d="M0 0 C13.77 0, 27.54 0, 40 0 M0 0 C14.52 0, 29.03 0, 40 0 M40 0 C40 9.5, 40 19.01, 40 40 M40 0 C40 11.88, 40 23.76, 40 40 M40 40 C26.55 40, 13.1 40, 0 40 M40 40 C27.01 40, 14.01 40, 0 40 M0 40 C0 30.17, 0 20.34, 0 0 M0 40 C0 25.29, 0 10.58, 0 0" stroke="#1e1e1e" stroke-width="1" fill="none"></path></g><g stroke-linecap="round" transform="translate(790 190) rotate(0 20 20)"><path d="M0 0 C15.26 0, 30.51 0, 40 0 M0 0 C8.81 0, 17.61 0, 40 0 M40 0 C40 14.22, 40 28.45, 40 40 M40 0 C40 9.09, 40 18.19, 40 40 M40 40 C26.18 40, 12.36 40, 0 40 M40 40 C27.83 40, 15.66 40, 0 40 M0 40 C0 24.97, 0 9.95, 0 0 M0 40 C0 28.25, 0 16.49, 0 0" stroke="#1e1e1e" stroke-width="1" fill="none"></path></g><g stroke-linecap="round" transform="translate(790 190) rotate(0 20 20)"><path d="M0 0 C10.31 0, 20.62 0, 40 0 M0 0 C10.16 0, 20.31 0, 40 0 M40 0 C40 13.3, 40 26.6, 40 40 M40 0 C40 15.33, 40 30.67, 40 40 M40 40 C31.38 40, 22.76 40, 0 40 M40 40 C31.57 40, 23.13 40, 0 40 M0 40 C0 26.72, 0 13.43, 0 0 M0 40 C0 31.23, 0 22.46, 0 0" stroke="#1e1e1e" stroke-width="1" fill="none"></path></g><g stroke-linecap="round" transform="translate(750 230) rotate(0 20 20)"><path d="M0 0 C11.97 0, 23.94 0, 40 0 M0 0 C11.78 0, 23.57 0, 40 0 M40 0 C40 9.93, 40 19.86, 40 40 M40 0 C40 9.3, 40 18.6, 40 40 M40 40 C26.04 40, 12.08 40, 0 40 M40 40 C28.8 40, 17.59 40, 0 40 M0 40 C0 31.66, 0 23.31, 0 0 M0 40 C0 28.84, 0 17.68, 0 0" stroke="#1e1e1e" stroke-width="1" fill="none"></path></g><g stroke-linecap="round" transform="translate(870 230) rotate(0 20 20)"><path d="M0 0 C12.21 0, 24.43 0, 40 0 M0 0 C11.37 0, 22.75 0, 40 0 M40 0 C40 13.48, 40 26.95, 40 40 M40 0 C40 14.9, 40 29.8, 40 40 M40 40 C24.66 40, 9.31 40, 0 40 M40 40 C28.13 40, 16.27 40, 0 40 M0 40 C0 31.38, 0 22.77, 0 0 M0 40 C0 24.96, 0 9.92, 0 0" stroke="#1e1e1e" stroke-width="1" fill="none"></path></g><g stroke-linecap="round" transform="translate(830 230) rotate(0 20 20)"><path d="M0 0 C8.66 0, 17.32 0, 40 0 M0 0 C12.32 0, 24.63 0, 40 0 M40 0 C40 10.22, 40 20.44, 40 40 M40 0 C40 14.5, 40 29.01, 40 40 M40 40 C29.55 40, 19.11 40, 0 40 M40 40 C30.98 40, 21.97 40, 0 40 M0 40 C0 26.08, 0 12.15, 0 0 M0 40 C0 31.52, 0 23.05, 0 0" stroke="#1e1e1e" stroke-width="1" fill="none"></path></g><g stroke-linecap="round" transform="translate(790 230) rotate(0 20 20)"><path d="M0 0 C15.36 0, 30.71 0, 40 0 M0 0 C8.96 0, 17.93 0, 40 0 M40 0 C40 14.09, 40 28.18, 40 40 M40 0 C40 14.19, 40 28.38, 40 40 M40 40 C28.14 40, 16.29 40, 0 40 M40 40 C30.29 40, 20.58 40, 0 40 M0 40 C0 29.75, 0 19.49, 0 0 M0 40 C0 27.25, 0 14.49, 0 0" stroke="#1e1e1e" stroke-width="1" fill="none"></path></g><g stroke-linecap="round" transform="translate(790 230) rotate(0 20 20)"><path d="M0 0 C9.5 0, 19.01 0, 40 0 M0 0 C11.88 0, 23.76 0, 40 0 M40 0 C40 13.45, 40 26.9, 40 40 M40 0 C40 12.99, 40 25.99, 40 40 M40 40 C30.17 40, 20.34 40, 0 40 M40 40 C25.29 40, 10.58 40, 0 40 M0 40 C0 27.49, 0 14.99, 0 0 M0 40 C0 28.38, 0 16.77, 0 0" stroke="#1e1e1e" stroke-width="1" fill="none"></path></g><g stroke-linecap="round" transform="translate(910 230) rotate(0 20 20)"><path d="M0 0 C11.91 0, 23.82 0, 40 0 M0 0 C9.53 0, 19.06 0, 40 0 M40 0 C40 14.54, 40 29.09, 40 40 M40 0 C40 8.73, 40 17.45, 40 40 M40 40 C26.85 40, 13.71 40, 0 40 M40 40 C31.05 40, 22.1 40, 0 40 M0 40 C0 25.25, 0 10.5, 0 0 M0 40 C0 30.72, 0 21.44, 0 0" stroke="#1e1e1e" stroke-width="1" fill="none"></path></g><g stroke-linecap="round" transform="translate(910 110) rotate(0 20 20)"><path d="M0 0 C12.14 0, 24.28 0, 40 0 M0 0 C14.72 0, 29.43 0, 40 0 M40 0 C40 11.47, 40 22.94, 40 40 M40 0 C40 13.5, 40 26.99, 40 40 M40 40 C25.91 40, 11.83 40, 0 40 M40 40 C28.16 40, 16.32 40, 0 40 M0 40 C0 29.38, 0 18.76, 0 0 M0 40 C0 26.4, 0 12.8, 0 0" stroke="#1e1e1e" stroke-width="1" fill="none"></path></g><g stroke-linecap="round" transform="translate(910 70) rotate(0 20 20)"><path d="M0 0 C10.49 0, 20.99 0, 40 0 M0 0 C9.72 0, 19.43 0, 40 0 M40 0 C40 12.27, 40 24.55, 40 40 M40 0 C40 13.74, 40 27.49, 40 40 M40 40 C30 40, 20 40, 0 40 M40 40 C28.84 40, 17.68 40, 0 40 M0 40 C0 25.36, 0 10.71, 0 0 M0 40 C0 30.15, 0 20.3, 0 0" stroke="#1e1e1e" stroke-width="1" fill="none"></path></g><g stroke-linecap="round" transform="translate(910 190) rotate(0 20 20)"><path d="M0 0 C13.83 0, 27.66 0, 40 0 M0 0 C15.7 0, 31.4 0, 40 0 M40 0 C40 8.05, 40 16.1, 40 40 M40 0 C40 8.79, 40 17.59, 40 40 M40 40 C26.55 40, 13.1 40, 0 40 M40 40 C24.86 40, 9.72 40, 0 40 M0 40 C0 29.88, 0 19.77, 0 0 M0 40 C0 26.1, 0 12.2, 0 0" stroke="#1e1e1e" stroke-width="1" fill="none"></path></g><g stroke-linecap="round" transform="translate(910 150) rotate(0 20 20)"><path d="M0 0 C12.73 0, 25.47 0, 40 0 M0 0 C12.76 0, 25.52 0, 40 0 M40 0 C40 14.35, 40 28.7, 40 40 M40 0 C40 8.13, 40 16.26, 40 40 M40 40 C25.77 40, 11.54 40, 0 40 M40 40 C26.59 40, 13.18 40, 0 40 M0 40 C0 25.7, 0 11.41, 0 0 M0 40 C0 29.72, 0 19.44, 0 0" stroke="#1e1e1e" stroke-width="1" fill="none"></path></g><g stroke-linecap="round"><g transform="translate(750 70) rotate(0 0 60)"><path d="M0 0 C0 28.4, 0 56.79, 0 120 M0 0 C0 47.84, 0 95.68, 0 120" stroke="#1e1e1e" stroke-width="4" fill="none"></path></g></g><mask></mask><g stroke-linecap="round"><g transform="translate(630 150) rotate(0 0 60)"><path d="M0 0 C0 27.89, 0 55.77, 0 120 M0 0 C0 30.86, 0 61.72, 0 120" stroke="#1e1e1e" stroke-width="4" fill="none"></path></g></g><mask></mask><g stroke-linecap="round"><g transform="translate(430 70) rotate(0 260 100)"><path d="M0 0 C193.6 74.46, 387.2 148.92, 520 200 M0 0 C176.17 67.76, 352.33 135.51, 520 200" stroke="#1e1e1e" stroke-width="4" fill="none"></path></g></g><mask></mask></svg>