<svg version="1.1" xmlns="http://www.w3.org/2000/svg" viewBox="0 0 600 340" width="1200" height="680">
  <!-- svg-source:excalidraw -->
  
  <defs>
    <style class="style-fonts">
      
    </style>
    
  </defs>
  <rect x="0" y="0" width="600" height="340" fill="#ffffff"></rect><g stroke-linecap="round" transform="translate(130 150) rotate(0 20 20)"><path d="M0 0 C9.24 0, 18.49 0, 40 0 M0 0 C9.88 0, 19.77 0, 40 0 M40 0 C40 13.52, 40 27.05, 40 40 M40 0 C40 14.11, 40 28.21, 40 40 M40 40 C31.55 40, 23.11 40, 0 40 M40 40 C29.84 40, 19.68 40, 0 40 M0 40 C0 24.52, 0 9.05, 0 0 M0 40 C0 27.41, 0 14.81, 0 0" stroke="#1e1e1e" stroke-width="1" fill="none"></path></g><g stroke-linecap="round" transform="translate(130 190) rotate(0 20 20)"><path d="M0 0 C8.82 0, 17.63 0, 40 0 M0 0 C8.08 0, 16.17 0, 40 0 M40 0 C40 8.64, 40 17.29, 40 40 M40 0 C40 9.68, 40 19.36, 40 40 M40 40 C29.23 40, 18.45 40, 0 40 M40 40 C30.49 40, 20.97 40, 0 40 M0 40 C0 26.59, 0 13.19, 0 0 M0 40 C0 26.34, 0 12.69, 0 0" stroke="#1e1e1e" stroke-width="1" fill="none"></path></g><g stroke-linecap="round" transform="translate(170 190) rotate(0 20 20)"><path d="M0 0 C11.91 0, 23.82 0, 40 0 M0 0 C10.96 0, 21.92 0, 40 0 M40 0 C40 15.63, 40 31.27, 40 40 M40 0 C40 14.53, 40 29.07, 40 40 M40 40 C28.19 40, 16.37 40, 0 40 M40 40 C25.14 40, 10.29 40, 0 40 M0 40 C0 27.79, 0 15.57, 0 0 M0 40 C0 30.53, 0 21.07, 0 0" stroke="#1e1e1e" stroke-width="1" fill="none"></path></g><g stroke-linecap="round" transform="translate(10 150) rotate(0 20 20)"><path d="M0 0 L40 0 L40 40 L0 40" stroke="none" stroke-width="0" fill="#ffc9c9"></path><path d="M0 0 C14.24 0, 28.47 0, 40 0 M0 0 C14.94 0, 29.89 0, 40 0 M40 0 C40 8.56, 40 17.12, 40 40 M40 0 C40 14.99, 40 29.97, 40 40 M40 40 C25.01 40, 10.03 40, 0 40 M40 40 C27.98 40, 15.95 40, 0 40 M0 40 C0 24.27, 0 8.54, 0 0 M0 40 C0 24.15, 0 8.29, 0 0" stroke="#1e1e1e" stroke-width="1" fill="none"></path></g><g stroke-linecap="round" transform="translate(10 190) rotate(0 20 20)"><path d="M0 0 L40 0 L40 40 L0 40" stroke="none" stroke-width="0" fill="#ffc9c9"></path><path d="M0 0 C9.85 0, 19.7 0, 40 0 M0 0 C8.31 0, 16.61 0, 40 0 M40 0 C40 13.67, 40 27.35, 40 40 M40 0 C40 11.19, 40 22.38, 40 40 M40 40 C26.99 40, 13.99 40, 0 40 M40 40 C31.49 40, 22.97 40, 0 40 M0 40 C0 30.19, 0 20.39, 0 0 M0 40 C0 27.54, 0 15.08, 0 0" stroke="#1e1e1e" stroke-width="1" fill="none"></path></g><g stroke-linecap="round" transform="translate(50 190) rotate(0 20 20)"><path d="M0 0 L40 0 L40 40 L0 40" stroke="none" stroke-width="0" fill="#ffc9c9"></path><path d="M0 0 C12.19 0, 24.38 0, 40 0 M0 0 C12.93 0, 25.86 0, 40 0 M40 0 C40 11.43, 40 22.86, 40 40 M40 0 C40 8.12, 40 16.24, 40 40 M40 40 C29.29 40, 18.59 40, 0 40 M40 40 C30.57 40, 21.15 40, 0 40 M0 40 C0 31.37, 0 22.74, 0 0 M0 40 C0 25.95, 0 11.9, 0 0" stroke="#1e1e1e" stroke-width="1" fill="none"></path></g><g stroke-linecap="round" transform="translate(170 150) rotate(0 20 20)"><path d="M0 0 L40 0 L40 40 L0 40" stroke="none" stroke-width="0" fill="#1e1e1e"></path><path d="M0 0 C15.98 0, 31.96 0, 40 0 M0 0 C14.31 0, 28.62 0, 40 0 M40 0 C40 8.34, 40 16.68, 40 40 M40 0 C40 13.08, 40 26.15, 40 40 M40 40 C31.05 40, 22.09 40, 0 40 M40 40 C30.87 40, 21.74 40, 0 40 M0 40 C0 28.91, 0 17.82, 0 0 M0 40 C0 29.66, 0 19.31, 0 0" stroke="#1e1e1e" stroke-width="1" fill="none"></path></g><g stroke-linecap="round" transform="translate(270 10) rotate(0 20 20)"><path d="M0 0 C8.14 0, 16.29 0, 40 0 M0 0 C11.96 0, 23.91 0, 40 0 M40 0 C40 15.6, 40 31.21, 40 40 M40 0 C40 11.88, 40 23.75, 40 40 M40 40 C24.63 40, 9.26 40, 0 40 M40 40 C29.05 40, 18.09 40, 0 40 M0 40 C0 26.37, 0 12.73, 0 0 M0 40 C0 24.58, 0 9.17, 0 0" stroke="#1e1e1e" stroke-width="1" fill="none"></path></g><g stroke-linecap="round" transform="translate(390 10) rotate(0 20 20)"><path d="M0 0 C13.09 0, 26.17 0, 40 0 M0 0 C10.82 0, 21.64 0, 40 0 M40 0 C40 8.79, 40 17.58, 40 40 M40 0 C40 9.51, 40 19.02, 40 40 M40 40 C27.92 40, 15.84 40, 0 40 M40 40 C30.52 40, 21.05 40, 0 40 M0 40 C0 29.54, 0 19.08, 0 0 M0 40 C0 31.39, 0 22.79, 0 0" stroke="#1e1e1e" stroke-width="1" fill="none"></path></g><g stroke-linecap="round" transform="translate(350 10) rotate(0 20 20)"><path d="M0 0 C12.36 0, 24.72 0, 40 0 M0 0 C11.46 0, 22.91 0, 40 0 M40 0 C40 9.41, 40 18.81, 40 40 M40 0 C40 9.36, 40 18.72, 40 40 M40 40 C31.55 40, 23.1 40, 0 40 M40 40 C25.78 40, 11.57 40, 0 40 M0 40 C0 28.1, 0 16.21, 0 0 M0 40 C0 29.33, 0 18.66, 0 0" stroke="#1e1e1e" stroke-width="1" fill="none"></path></g><g stroke-linecap="round" transform="translate(310 10) rotate(0 20 20)"><path d="M0 0 C12.47 0, 24.93 0, 40 0 M0 0 C12.68 0, 25.35 0, 40 0 M40 0 C40 8.62, 40 17.25, 40 40 M40 0 C40 15.35, 40 30.71, 40 40 M40 40 C26.99 40, 13.97 40, 0 40 M40 40 C26.36 40, 12.72 40, 0 40 M0 40 C0 29.37, 0 18.75, 0 0 M0 40 C0 29.96, 0 19.92, 0 0" stroke="#1e1e1e" stroke-width="1" fill="none"></path></g><g stroke-linecap="round" transform="translate(270 50) rotate(0 20 20)"><path d="M0 0 C13.18 0, 26.36 0, 40 0 M0 0 C9.49 0, 18.98 0, 40 0 M40 0 C40 14.84, 40 29.69, 40 40 M40 0 C40 15.09, 40 30.19, 40 40 M40 40 C24.36 40, 8.72 40, 0 40 M40 40 C31.41 40, 22.81 40, 0 40 M0 40 C0 31.43, 0 22.86, 0 0 M0 40 C0 25.46, 0 10.92, 0 0" stroke="#1e1e1e" stroke-width="1" fill="none"></path></g><g stroke-linecap="round" transform="translate(390 50) rotate(0 20 20)"><path d="M0 0 C11.08 0, 22.15 0, 40 0 M0 0 C15.38 0, 30.75 0, 40 0 M40 0 C40 8.69, 40 17.38, 40 40 M40 0 C40 12.86, 40 25.71, 40 40 M40 40 C29.62 40, 19.24 40, 0 40 M40 40 C29.79 40, 19.58 40, 0 40 M0 40 C0 30.39, 0 20.77, 0 0 M0 40 C0 26.12, 0 12.23, 0 0" stroke="#1e1e1e" stroke-width="1" fill="none"></path></g><g stroke-linecap="round" transform="translate(350 50) rotate(0 20 20)"><path d="M0 0 C13.61 0, 27.23 0, 40 0 M0 0 C10.3 0, 20.6 0, 40 0 M40 0 C40 11.97, 40 23.95, 40 40 M40 0 C40 8.72, 40 17.45, 40 40 M40 40 C31.19 40, 22.39 40, 0 40 M40 40 C31.84 40, 23.68 40, 0 40 M0 40 C0 25.19, 0 10.38, 0 0 M0 40 C0 31.78, 0 23.57, 0 0" stroke="#1e1e1e" stroke-width="1" fill="none"></path></g><g stroke-linecap="round" transform="translate(310 50) rotate(0 20 20)"><path d="M0 0 C9.72 0, 19.43 0, 40 0 M0 0 C13.44 0, 26.88 0, 40 0 M40 0 C40 12.72, 40 25.44, 40 40 M40 0 C40 11.15, 40 22.3, 40 40 M40 40 C24.7 40, 9.4 40, 0 40 M40 40 C29.07 40, 18.14 40, 0 40 M0 40 C0 25.86, 0 11.71, 0 0 M0 40 C0 31.22, 0 22.43, 0 0" stroke="#1e1e1e" stroke-width="1" fill="none"></path></g><g stroke-linecap="round" transform="translate(270 90) rotate(0 20 20)"><path d="M0 0 C12.28 0, 24.57 0, 40 0 M0 0 C9.77 0, 19.55 0, 40 0 M40 0 C40 11.88, 40 23.75, 40 40 M40 0 C40 9.01, 40 18.03, 40 40 M40 40 C30.3 40, 20.6 40, 0 40 M40 40 C30.49 40, 20.99 40, 0 40 M0 40 C0 26.47, 0 12.94, 0 0 M0 40 C0 29.35, 0 18.7, 0 0" stroke="#1e1e1e" stroke-width="1" fill="none"></path></g><g stroke-linecap="round" transform="translate(390 90) rotate(0 20 20)"><path d="M0 0 C13.07 0, 26.13 0, 40 0 M0 0 C15.74 0, 31.48 0, 40 0 M40 0 C40 15.22, 40 30.43, 40 40 M40 0 C40 14.01, 40 28.03, 40 40 M40 40 C26.18 40, 12.35 40, 0 40 M40 40 C30.4 40, 20.8 40, 0 40 M0 40 C0 31.61, 0 23.22, 0 0 M0 40 C0 27.44, 0 14.89, 0 0" stroke="#1e1e1e" stroke-width="1" fill="none"></path></g><g stroke-linecap="round" transform="translate(350 90) rotate(0 20 20)"><path d="M0 0 C9.23 0, 18.46 0, 40 0 M0 0 C15.28 0, 30.56 0, 40 0 M40 0 C40 14.87, 40 29.75, 40 40 M40 0 C40 9.13, 40 18.26, 40 40 M40 40 C28.58 40, 17.16 40, 0 40 M40 40 C25.23 40, 10.46 40, 0 40 M0 40 C0 25.16, 0 10.32, 0 0 M0 40 C0 31.84, 0 23.68, 0 0" stroke="#1e1e1e" stroke-width="1" fill="none"></path></g><g stroke-linecap="round" transform="translate(310 90) rotate(0 20 20)"><path d="M0 0 C10.61 0, 21.21 0, 40 0 M0 0 C14.03 0, 28.06 0, 40 0 M40 0 C40 15.04, 40 30.09, 40 40 M40 0 C40 14.02, 40 28.05, 40 40 M40 40 C29.72 40, 19.44 40, 0 40 M40 40 C26.54 40, 13.09 40, 0 40 M0 40 C0 26.48, 0 12.96, 0 0 M0 40 C0 26.58, 0 13.15, 0 0" stroke="#1e1e1e" stroke-width="1" fill="none"></path></g><g stroke-linecap="round" transform="translate(270 130) rotate(0 20 20)"><path d="M0 0 C8.04 0, 16.07 0, 40 0 M0 0 C13.16 0, 26.31 0, 40 0 M40 0 C40 9.17, 40 18.35, 40 40 M40 0 C40 11.31, 40 22.62, 40 40 M40 40 C29.67 40, 19.34 40, 0 40 M40 40 C24.8 40, 9.59 40, 0 40 M0 40 C0 27.64, 0 15.28, 0 0 M0 40 C0 30.09, 0 20.19, 0 0" stroke="#1e1e1e" stroke-width="1" fill="none"></path></g><g stroke-linecap="round" transform="translate(390 130) rotate(0 20 20)"><path d="M0 0 C8.33 0, 16.66 0, 40 0 M0 0 C8.49 0, 16.98 0, 40 0 M40 0 C40 15.79, 40 31.58, 40 40 M40 0 C40 15.69, 40 31.39, 40 40 M40 40 C28.7 40, 17.4 40, 0 40 M40 40 C29.85 40, 19.69 40, 0 40 M0 40 C0 31.07, 0 22.14, 0 0 M0 40 C0 25.91, 0 11.82, 0 0" stroke="#1e1e1e" stroke-width="1" fill="none"></path></g><g stroke-linecap="round" transform="translate(350 130) rotate(0 20 20)"><path d="M0 0 C9.82 0, 19.64 0, 40 0 M0 0 C11.21 0, 22.43 0, 40 0 M40 0 C40 8.88, 40 17.77, 40 40 M40 0 C40 14.43, 40 28.87, 40 40 M40 40 C29.28 40, 18.55 40, 0 40 M40 40 C25.66 40, 11.31 40, 0 40 M0 40 C0 28.6, 0 17.2, 0 0 M0 40 C0 30.44, 0 20.88, 0 0" stroke="#1e1e1e" stroke-width="1" fill="none"></path></g><g stroke-linecap="round" transform="translate(310 130) rotate(0 20 20)"><path d="M0 0 C10.91 0, 21.81 0, 40 0 M0 0 C9.67 0, 19.35 0, 40 0 M40 0 C40 10.69, 40 21.37, 40 40 M40 0 C40 12.4, 40 24.8, 40 40 M40 40 C24.06 40, 8.11 40, 0 40 M40 40 C28.09 40, 16.17 40, 0 40 M0 40 C0 26.54, 0 13.08, 0 0 M0 40 C0 29.52, 0 19.04, 0 0" stroke="#1e1e1e" stroke-width="1" fill="none"></path></g><g stroke-linecap="round" transform="translate(430 10) rotate(0 20 20)"><path d="M0 0 C13.74 0, 27.47 0, 40 0 M0 0 C13.45 0, 26.9 0, 40 0 M40 0 C40 9.74, 40 19.48, 40 40 M40 0 C40 8.66, 40 17.33, 40 40 M40 40 C29.08 40, 18.16 40, 0 40 M40 40 C26.61 40, 13.22 40, 0 40 M0 40 C0 28.61, 0 17.22, 0 0 M0 40 C0 28.81, 0 17.62, 0 0" stroke="#1e1e1e" stroke-width="1" fill="none"></path></g><g stroke-linecap="round" transform="translate(550 10) rotate(0 20 20)"><path d="M0 0 C15.64 0, 31.28 0, 40 0 M0 0 C14.07 0, 28.14 0, 40 0 M40 0 C40 9.52, 40 19.04, 40 40 M40 0 C40 15.67, 40 31.33, 40 40 M40 40 C29.3 40, 18.59 40, 0 40 M40 40 C27.56 40, 15.13 40, 0 40 M0 40 C0 29.96, 0 19.92, 0 0 M0 40 C0 30.42, 0 20.83, 0 0" stroke="#1e1e1e" stroke-width="1" fill="none"></path></g><g stroke-linecap="round" transform="translate(510 10) rotate(0 20 20)"><path d="M0 0 C10.03 0, 20.06 0, 40 0 M0 0 C11.6 0, 23.19 0, 40 0 M40 0 C40 14.57, 40 29.14, 40 40 M40 0 C40 14.78, 40 29.56, 40 40 M40 40 C28.24 40, 16.48 40, 0 40 M40 40 C25.79 40, 11.58 40, 0 40 M0 40 C0 26.08, 0 12.15, 0 0 M0 40 C0 24.01, 0 8.02, 0 0" stroke="#1e1e1e" stroke-width="1" fill="none"></path></g><g stroke-linecap="round" transform="translate(470 10) rotate(0 20 20)"><path d="M0 0 C13.16 0, 26.32 0, 40 0 M0 0 C14.77 0, 29.53 0, 40 0 M40 0 C40 8.5, 40 16.99, 40 40 M40 0 C40 15.76, 40 31.53, 40 40 M40 40 C25.71 40, 11.42 40, 0 40 M40 40 C31.76 40, 23.51 40, 0 40 M0 40 C0 30.91, 0 21.83, 0 0 M0 40 C0 29.54, 0 19.08, 0 0" stroke="#1e1e1e" stroke-width="1" fill="none"></path></g><g stroke-linecap="round" transform="translate(430 50) rotate(0 20 20)"><path d="M0 0 C12.86 0, 25.72 0, 40 0 M0 0 C13.35 0, 26.71 0, 40 0 M40 0 C40 15.23, 40 30.46, 40 40 M40 0 C40 8.66, 40 17.33, 40 40 M40 40 C24.42 40, 8.85 40, 0 40 M40 40 C28.39 40, 16.79 40, 0 40 M0 40 C0 24.58, 0 9.16, 0 0 M0 40 C0 24.16, 0 8.33, 0 0" stroke="#1e1e1e" stroke-width="1" fill="none"></path></g><g stroke-linecap="round" transform="translate(550 50) rotate(0 20 20)"><path d="M0 0 C13.8 0, 27.59 0, 40 0 M0 0 C8.92 0, 17.83 0, 40 0 M40 0 C40 8.29, 40 16.59, 40 40 M40 0 C40 10.56, 40 21.12, 40 40 M40 40 C24.76 40, 9.51 40, 0 40 M40 40 C28.35 40, 16.69 40, 0 40 M0 40 C0 28.11, 0 16.21, 0 0 M0 40 C0 31.5, 0 23, 0 0" stroke="#1e1e1e" stroke-width="1" fill="none"></path></g><g stroke-linecap="round" transform="translate(510 50) rotate(0 20 20)"><path d="M0 0 C10.73 0, 21.45 0, 40 0 M0 0 C13.56 0, 27.11 0, 40 0 M40 0 C40 12.04, 40 24.09, 40 40 M40 0 C40 8.33, 40 16.66, 40 40 M40 40 C27.5 40, 15 40, 0 40 M40 40 C27.21 40, 14.43 40, 0 40 M0 40 C0 26.18, 0 12.35, 0 0 M0 40 C0 26.88, 0 13.76, 0 0" stroke="#1e1e1e" stroke-width="1" fill="none"></path></g><g stroke-linecap="round" transform="translate(470 50) rotate(0 20 20)"><path d="M0 0 C9.74 0, 19.48 0, 40 0 M0 0 C8.66 0, 17.33 0, 40 0 M40 0 C40 10.92, 40 21.84, 40 40 M40 0 C40 13.39, 40 26.78, 40 40 M40 40 C28.61 40, 17.22 40, 0 40 M40 40 C28.81 40, 17.62 40, 0 40 M0 40 C0 25.9, 0 11.8, 0 0 M0 40 C0 26.6, 0 13.19, 0 0" stroke="#1e1e1e" stroke-width="1" fill="none"></path></g><g stroke-linecap="round" transform="translate(430 90) rotate(0 20 20)"><path d="M0 0 L40 0 L40 40 L0 40" stroke="none" stroke-width="0" fill="#1e1e1e"></path><path d="M0 0 C9.52 0, 19.04 0, 40 0 M0 0 C15.67 0, 31.33 0, 40 0 M40 0 C40 10.7, 40 21.41, 40 40 M40 0 C40 12.44, 40 24.87, 40 40 M40 40 C29.96 40, 19.92 40, 0 40 M40 40 C30.42 40, 20.83 40, 0 40 M0 40 C0 27.54, 0 15.08, 0 0 M0 40 C0 25.14, 0 10.28, 0 0" stroke="#1e1e1e" stroke-width="1" fill="none"></path></g><g stroke-linecap="round" transform="translate(350 10) rotate(0 20 20)"><path d="M0 0 C14.57 0, 29.14 0, 40 0 M0 0 C14.78 0, 29.56 0, 40 0 M40 0 C40 11.76, 40 23.52, 40 40 M40 0 C40 14.21, 40 28.42, 40 40 M40 40 C26.08 40, 12.15 40, 0 40 M40 40 C24.01 40, 8.02 40, 0 40 M0 40 C0 27.29, 0 14.57, 0 0 M0 40 C0 28.48, 0 16.97, 0 0" stroke="#1e1e1e" stroke-width="1" fill="none"></path></g><g stroke-linecap="round" transform="translate(310 10) rotate(0 20 20)"><path d="M0 0 C8.5 0, 16.99 0, 40 0 M0 0 C15.76 0, 31.53 0, 40 0 M40 0 C40 14.29, 40 28.58, 40 40 M40 0 C40 8.24, 40 16.49, 40 40 M40 40 C30.91 40, 21.83 40, 0 40 M40 40 C29.54 40, 19.08 40, 0 40 M0 40 C0 27.98, 0 15.96, 0 0 M0 40 C0 31.29, 0 22.59, 0 0" stroke="#1e1e1e" stroke-width="1" fill="none"></path></g><g stroke-linecap="round" transform="translate(470 90) rotate(0 20 20)"><path d="M0 0 C15.23 0, 30.46 0, 40 0 M0 0 C8.66 0, 17.33 0, 40 0 M40 0 C40 15.58, 40 31.15, 40 40 M40 0 C40 11.61, 40 23.21, 40 40 M40 40 C24.58 40, 9.16 40, 0 40 M40 40 C24.16 40, 8.33 40, 0 40 M0 40 C0 25.88, 0 11.76, 0 0 M0 40 C0 26.21, 0 12.42, 0 0" stroke="#1e1e1e" stroke-width="1" fill="none"></path></g><g stroke-linecap="round" transform="translate(430 130) rotate(0 20 20)"><path d="M0 0 C8.29 0, 16.59 0, 40 0 M0 0 C10.56 0, 21.12 0, 40 0 M40 0 C40 15.24, 40 30.49, 40 40 M40 0 C40 11.65, 40 23.31, 40 40 M40 40 C28.11 40, 16.21 40, 0 40 M40 40 C31.5 40, 23 40, 0 40 M0 40 C0 29.42, 0 18.83, 0 0 M0 40 C0 29.07, 0 18.14, 0 0" stroke="#1e1e1e" stroke-width="1" fill="none"></path></g><g stroke-linecap="round" transform="translate(550 130) rotate(0 20 20)"><path d="M0 0 C12.04 0, 24.09 0, 40 0 M0 0 C8.33 0, 16.66 0, 40 0 M40 0 C40 12.5, 40 25, 40 40 M40 0 C40 12.79, 40 25.57, 40 40 M40 40 C26.18 40, 12.35 40, 0 40 M40 40 C26.88 40, 13.76 40, 0 40 M0 40 C0 29.92, 0 19.84, 0 0 M0 40 C0 24.19, 0 8.37, 0 0" stroke="#1e1e1e" stroke-width="1" fill="none"></path></g><g stroke-linecap="round" transform="translate(510 130) rotate(0 20 20)"><path d="M0 0 C10.92 0, 21.84 0, 40 0 M0 0 C13.39 0, 26.78 0, 40 0 M40 0 C40 11.39, 40 22.78, 40 40 M40 0 C40 11.19, 40 22.38, 40 40 M40 40 C25.9 40, 11.8 40, 0 40 M40 40 C26.6 40, 13.19 40, 0 40 M0 40 C0 28.4, 0 16.81, 0 0 M0 40 C0 29.57, 0 19.15, 0 0" stroke="#1e1e1e" stroke-width="1" fill="none"></path></g><g stroke-linecap="round" transform="translate(470 130) rotate(0 20 20)"><path d="M0 0 C10.7 0, 21.41 0, 40 0 M0 0 C12.44 0, 24.87 0, 40 0 M40 0 C40 10.04, 40 20.08, 40 40 M40 0 C40 9.58, 40 19.17, 40 40 M40 40 C27.54 40, 15.08 40, 0 40 M40 40 C25.14 40, 10.28 40, 0 40 M0 40 C0 30.28, 0 20.55, 0 0 M0 40 C0 26.21, 0 12.42, 0 0" stroke="#1e1e1e" stroke-width="1" fill="none"></path></g><g stroke-linecap="round" transform="translate(270 170) rotate(0 20 20)"><path d="M0 0 C10.78 0, 21.57 0, 40 0 M0 0 C15.62 0, 31.24 0, 40 0 M40 0 C40 12.19, 40 24.38, 40 40 M40 0 C40 13.79, 40 27.58, 40 40 M40 40 C26.18 40, 12.36 40, 0 40 M40 40 C31.94 40, 23.88 40, 0 40 M0 40 C0 30.19, 0 20.38, 0 0 M0 40 C0 30.44, 0 20.87, 0 0" stroke="#1e1e1e" stroke-width="1" fill="none"></path></g><g stroke-linecap="round" transform="translate(390 170) rotate(0 20 20)"><path d="M0 0 C15.2 0, 30.4 0, 40 0 M0 0 C9.68 0, 19.36 0, 40 0 M40 0 C40 14.96, 40 29.93, 40 40 M40 0 C40 14.42, 40 28.84, 40 40 M40 40 C31.09 40, 22.18 40, 0 40 M40 40 C26.92 40, 13.84 40, 0 40 M0 40 C0 29.68, 0 19.36, 0 0 M0 40 C0 26.74, 0 13.48, 0 0" stroke="#1e1e1e" stroke-width="1" fill="none"></path></g><g stroke-linecap="round" transform="translate(350 170) rotate(0 20 20)"><path d="M0 0 C12.02 0, 24.04 0, 40 0 M0 0 C10.41 0, 20.83 0, 40 0 M40 0 C40 15.18, 40 30.36, 40 40 M40 0 C40 14.65, 40 29.3, 40 40 M40 40 C27.62 40, 15.24 40, 0 40 M40 40 C27.93 40, 15.85 40, 0 40 M0 40 C0 24.68, 0 9.36, 0 0 M0 40 C0 24.48, 0 8.96, 0 0" stroke="#1e1e1e" stroke-width="1" fill="none"></path></g><g stroke-linecap="round" transform="translate(310 170) rotate(0 20 20)"><path d="M0 0 C9.03 0, 18.07 0, 40 0 M0 0 C13.63 0, 27.25 0, 40 0 M40 0 C40 11.13, 40 22.27, 40 40 M40 0 C40 13.37, 40 26.74, 40 40 M40 40 C24.18 40, 8.37 40, 0 40 M40 40 C31.71 40, 23.41 40, 0 40 M0 40 C0 27.59, 0 15.18, 0 0 M0 40 C0 30.8, 0 21.6, 0 0" stroke="#1e1e1e" stroke-width="1" fill="none"></path></g><g stroke-linecap="round" transform="translate(270 210) rotate(0 20 20)"><path d="M0 0 C9.56 0, 19.11 0, 40 0 M0 0 C8.95 0, 17.91 0, 40 0 M40 0 C40 11.92, 40 23.85, 40 40 M40 0 C40 8.08, 40 16.16, 40 40 M40 40 C27.17 40, 14.35 40, 0 40 M40 40 C31.67 40, 23.34 40, 0 40 M0 40 C0 25.51, 0 11.03, 0 0 M0 40 C0 28.76, 0 17.52, 0 0" stroke="#1e1e1e" stroke-width="1" fill="none"></path></g><g stroke-linecap="round" transform="translate(390 210) rotate(0 20 20)"><path d="M0 0 C11.19 0, 22.38 0, 40 0 M0 0 C9.12 0, 18.24 0, 40 0 M40 0 C40 12.18, 40 24.37, 40 40 M40 0 C40 8.1, 40 16.2, 40 40 M40 40 C26.18 40, 12.37 40, 0 40 M40 40 C28.63 40, 17.26 40, 0 40 M0 40 C0 29.53, 0 19.05, 0 0 M0 40 C0 28.08, 0 16.15, 0 0" stroke="#1e1e1e" stroke-width="1" fill="none"></path></g><g stroke-linecap="round" transform="translate(350 210) rotate(0 20 20)"><path d="M0 0 C12.59 0, 25.18 0, 40 0 M0 0 C15.18 0, 30.36 0, 40 0 M40 0 C40 14.83, 40 29.66, 40 40 M40 0 C40 15.85, 40 31.69, 40 40 M40 40 C27.27 40, 14.53 40, 0 40 M40 40 C25.59 40, 11.18 40, 0 40 M0 40 C0 27.91, 0 15.83, 0 0 M0 40 C0 27.89, 0 15.77, 0 0" stroke="#1e1e1e" stroke-width="1" fill="none"></path></g><g stroke-linecap="round" transform="translate(310 210) rotate(0 20 20)"><path d="M0 0 C12.19 0, 24.38 0, 40 0 M0 0 C13.79 0, 27.58 0, 40 0 M40 0 C40 13.82, 40 27.64, 40 40 M40 0 C40 8.06, 40 16.12, 40 40 M40 40 C30.19 40, 20.38 40, 0 40 M40 40 C30.44 40, 20.87 40, 0 40 M0 40 C0 27.41, 0 14.83, 0 0 M0 40 C0 27.49, 0 14.98, 0 0" stroke="#1e1e1e" stroke-width="1" fill="none"></path></g><g stroke-linecap="round" transform="translate(270 250) rotate(0 20 20)"><path d="M0 0 C14.96 0, 29.93 0, 40 0 M0 0 C14.42 0, 28.84 0, 40 0 M40 0 C40 8.91, 40 17.82, 40 40 M40 0 C40 13.08, 40 26.16, 40 40 M40 40 C29.68 40, 19.36 40, 0 40 M40 40 C26.74 40, 13.48 40, 0 40 M0 40 C0 30.48, 0 20.97, 0 0 M0 40 C0 29.1, 0 18.2, 0 0" stroke="#1e1e1e" stroke-width="1" fill="none"></path></g><g stroke-linecap="round" transform="translate(390 250) rotate(0 20 20)"><path d="M0 0 C15.18 0, 30.36 0, 40 0 M0 0 C14.65 0, 29.3 0, 40 0 M40 0 C40 12.38, 40 24.76, 40 40 M40 0 C40 12.07, 40 24.15, 40 40 M40 40 C24.68 40, 9.36 40, 0 40 M40 40 C24.48 40, 8.96 40, 0 40 M0 40 C0 28.54, 0 17.08, 0 0 M0 40 C0 24.6, 0 9.2, 0 0" stroke="#1e1e1e" stroke-width="1" fill="none"></path></g><g stroke-linecap="round" transform="translate(350 250) rotate(0 20 20)"><path d="M0 0 C11.13 0, 22.27 0, 40 0 M0 0 C13.37 0, 26.74 0, 40 0 M40 0 C40 15.82, 40 31.63, 40 40 M40 0 C40 8.29, 40 16.59, 40 40 M40 40 C27.59 40, 15.18 40, 0 40 M40 40 C30.8 40, 21.6 40, 0 40 M0 40 C0 27.21, 0 14.41, 0 0 M0 40 C0 30.27, 0 20.54, 0 0" stroke="#1e1e1e" stroke-width="1" fill="none"></path></g><g stroke-linecap="round" transform="translate(310 250) rotate(0 20 20)"><path d="M0 0 C11.92 0, 23.85 0, 40 0 M0 0 C8.08 0, 16.16 0, 40 0 M40 0 C40 12.83, 40 25.65, 40 40 M40 0 C40 8.33, 40 16.66, 40 40 M40 40 C25.51 40, 11.03 40, 0 40 M40 40 C28.76 40, 17.52 40, 0 40 M0 40 C0 31.57, 0 23.14, 0 0 M0 40 C0 25.58, 0 11.15, 0 0" stroke="#1e1e1e" stroke-width="1" fill="none"></path></g><g stroke-linecap="round" transform="translate(270 290) rotate(0 20 20)"><path d="M0 0 C12.18 0, 24.37 0, 40 0 M0 0 C8.1 0, 16.2 0, 40 0 M40 0 C40 13.82, 40 27.63, 40 40 M40 0 C40 11.37, 40 22.74, 40 40 M40 40 C29.53 40, 19.05 40, 0 40 M40 40 C28.08 40, 16.15 40, 0 40 M0 40 C0 31.43, 0 22.86, 0 0 M0 40 C0 27.88, 0 15.77, 0 0" stroke="#1e1e1e" stroke-width="1" fill="none"></path></g><g stroke-linecap="round" transform="translate(390 290) rotate(0 20 20)"><path d="M0 0 C14.83 0, 29.66 0, 40 0 M0 0 C15.85 0, 31.69 0, 40 0 M40 0 C40 12.73, 40 25.47, 40 40 M40 0 C40 14.41, 40 28.82, 40 40 M40 40 C27.91 40, 15.83 40, 0 40 M40 40 C27.89 40, 15.77 40, 0 40 M0 40 C0 26.55, 0 13.1, 0 0 M0 40 C0 31.23, 0 22.46, 0 0" stroke="#1e1e1e" stroke-width="1" fill="none"></path></g><g stroke-linecap="round" transform="translate(350 290) rotate(0 20 20)"><path d="M0 0 C13.82 0, 27.64 0, 40 0 M0 0 C8.06 0, 16.12 0, 40 0 M40 0 C40 9.81, 40 19.62, 40 40 M40 0 C40 9.56, 40 19.13, 40 40 M40 40 C27.41 40, 14.83 40, 0 40 M40 40 C27.49 40, 14.98 40, 0 40 M0 40 C0 27.89, 0 15.78, 0 0 M0 40 C0 25.06, 0 10.11, 0 0" stroke="#1e1e1e" stroke-width="1" fill="none"></path></g><g stroke-linecap="round" transform="translate(310 290) rotate(0 20 20)"><path d="M0 0 C8.91 0, 17.82 0, 40 0 M0 0 C13.08 0, 26.16 0, 40 0 M40 0 C40 10.32, 40 20.64, 40 40 M40 0 C40 13.26, 40 26.52, 40 40 M40 40 C30.48 40, 20.97 40, 0 40 M40 40 C29.1 40, 18.2 40, 0 40 M0 40 C0 26.89, 0 13.78, 0 0 M0 40 C0 28.98, 0 17.96, 0 0" stroke="#1e1e1e" stroke-width="1" fill="none"></path></g><g stroke-linecap="round" transform="translate(430 170) rotate(0 20 20)"><path d="M0 0 C10.73 0, 21.46 0, 40 0 M0 0 C13.03 0, 26.05 0, 40 0 M40 0 C40 12.77, 40 25.55, 40 40 M40 0 C40 15.04, 40 30.09, 40 40 M40 40 C26.34 40, 12.68 40, 0 40 M40 40 C25.03 40, 10.06 40, 0 40 M0 40 C0 26.69, 0 13.38, 0 0 M0 40 C0 28.31, 0 16.63, 0 0" stroke="#1e1e1e" stroke-width="1" fill="none"></path></g><g stroke-linecap="round" transform="translate(550 170) rotate(0 20 20)"><path d="M0 0 C8.33 0, 16.65 0, 40 0 M0 0 C15.1 0, 30.19 0, 40 0 M40 0 C40 13.05, 40 26.09, 40 40 M40 0 C40 12.47, 40 24.94, 40 40 M40 40 C24.24 40, 8.49 40, 0 40 M40 40 C29.72 40, 19.44 40, 0 40 M0 40 C0 28.65, 0 17.3, 0 0 M0 40 C0 29.2, 0 18.4, 0 0" stroke="#1e1e1e" stroke-width="1" fill="none"></path></g><g stroke-linecap="round" transform="translate(510 170) rotate(0 20 20)"><path d="M0 0 C14.23 0, 28.46 0, 40 0 M0 0 C14.88 0, 29.76 0, 40 0 M40 0 C40 10.1, 40 20.2, 40 40 M40 0 C40 10.26, 40 20.52, 40 40 M40 40 C29.94 40, 19.89 40, 0 40 M40 40 C27.74 40, 15.48 40, 0 40 M0 40 C0 27.27, 0 14.55, 0 0 M0 40 C0 26.19, 0 12.37, 0 0" stroke="#1e1e1e" stroke-width="1" fill="none"></path></g><g stroke-linecap="round" transform="translate(470 170) rotate(0 20 20)"><path d="M0 0 C12.83 0, 25.66 0, 40 0 M0 0 C8.86 0, 17.72 0, 40 0 M40 0 C40 13.91, 40 27.83, 40 40 M40 0 C40 15.66, 40 31.32, 40 40 M40 40 C30.6 40, 21.21 40, 0 40 M40 40 C30.31 40, 20.62 40, 0 40 M0 40 C0 29.62, 0 19.23, 0 0 M0 40 C0 30.23, 0 20.45, 0 0" stroke="#1e1e1e" stroke-width="1" fill="none"></path></g><g stroke-linecap="round" transform="translate(430 210) rotate(0 20 20)"><path d="M0 0 C11.84 0, 23.68 0, 40 0 M0 0 C14.79 0, 29.58 0, 40 0 M40 0 C40 14.55, 40 29.11, 40 40 M40 0 C40 8.46, 40 16.92, 40 40 M40 40 C28.56 40, 17.11 40, 0 40 M40 40 C28.87 40, 17.74 40, 0 40 M0 40 C0 29.16, 0 18.32, 0 0 M0 40 C0 25.23, 0 10.47, 0 0" stroke="#1e1e1e" stroke-width="1" fill="none"></path></g><g stroke-linecap="round" transform="translate(550 210) rotate(0 20 20)"><path d="M0 0 C15.56 0, 31.12 0, 40 0 M0 0 C14.48 0, 28.96 0, 40 0 M40 0 C40 11.43, 40 22.85, 40 40 M40 0 C40 11.74, 40 23.47, 40 40 M40 40 C28.05 40, 16.09 40, 0 40 M40 40 C28.33 40, 16.65 40, 0 40 M0 40 C0 24.55, 0 9.1, 0 0 M0 40 C0 25.34, 0 10.68, 0 0" stroke="#1e1e1e" stroke-width="1" fill="none"></path></g><g stroke-linecap="round" transform="translate(510 210) rotate(0 20 20)"><path d="M0 0 C14.13 0, 28.26 0, 40 0 M0 0 C8.52 0, 17.04 0, 40 0 M40 0 C40 10.52, 40 21.04, 40 40 M40 0 C40 10.61, 40 21.21, 40 40 M40 40 C29.98 40, 19.97 40, 0 40 M40 40 C24.28 40, 8.57 40, 0 40 M0 40 C0 30.35, 0 20.69, 0 0 M0 40 C0 28.13, 0 16.25, 0 0" stroke="#1e1e1e" stroke-width="1" fill="none"></path></g><g stroke-linecap="round" transform="translate(470 210) rotate(0 20 20)"><path d="M0 0 C12.77 0, 25.55 0, 40 0 M0 0 C15.04 0, 30.09 0, 40 0 M40 0 C40 13.66, 40 27.32, 40 40 M40 0 C40 14.97, 40 29.94, 40 40 M40 40 C26.69 40, 13.38 40, 0 40 M40 40 C28.31 40, 16.63 40, 0 40 M0 40 C0 31.76, 0 23.53, 0 0 M0 40 C0 31.89, 0 23.79, 0 0" stroke="#1e1e1e" stroke-width="1" fill="none"></path></g><g stroke-linecap="round" transform="translate(430 250) rotate(0 20 20)"><path d="M0 0 C13.05 0, 26.09 0, 40 0 M0 0 C12.47 0, 24.94 0, 40 0 M40 0 C40 15.76, 40 31.51, 40 40 M40 0 C40 10.28, 40 20.56, 40 40 M40 40 C28.65 40, 17.3 40, 0 40 M40 40 C29.2 40, 18.4 40, 0 40 M0 40 C0 27.44, 0 14.88, 0 0 M0 40 C0 28.9, 0 17.8, 0 0" stroke="#1e1e1e" stroke-width="1" fill="none"></path></g><g stroke-linecap="round" transform="translate(550 250) rotate(0 20 20)"><path d="M0 0 C10.1 0, 20.2 0, 40 0 M0 0 C10.26 0, 20.52 0, 40 0 M40 0 C40 10.06, 40 20.11, 40 40 M40 0 C40 12.26, 40 24.52, 40 40 M40 40 C27.27 40, 14.55 40, 0 40 M40 40 C26.19 40, 12.37 40, 0 40 M0 40 C0 24.18, 0 8.35, 0 0 M0 40 C0 30.62, 0 21.24, 0 0" stroke="#1e1e1e" stroke-width="1" fill="none"></path></g><g stroke-linecap="round" transform="translate(510 250) rotate(0 20 20)"><path d="M0 0 C13.91 0, 27.83 0, 40 0 M0 0 C15.66 0, 31.32 0, 40 0 M40 0 C40 9.4, 40 18.79, 40 40 M40 0 C40 9.69, 40 19.38, 40 40 M40 40 C29.62 40, 19.23 40, 0 40 M40 40 C30.23 40, 20.45 40, 0 40 M0 40 C0 31.69, 0 23.37, 0 0 M0 40 C0 28.98, 0 17.95, 0 0" stroke="#1e1e1e" stroke-width="1" fill="none"></path></g><g stroke-linecap="round" transform="translate(470 250) rotate(0 20 20)"><path d="M0 0 C14.55 0, 29.11 0, 40 0 M0 0 C8.46 0, 16.92 0, 40 0 M40 0 C40 11.44, 40 22.89, 40 40 M40 0 C40 11.13, 40 22.26, 40 40 M40 40 C29.16 40, 18.32 40, 0 40 M40 40 C25.23 40, 10.47 40, 0 40 M0 40 C0 25.35, 0 10.69, 0 0 M0 40 C0 29.62, 0 19.23, 0 0" stroke="#1e1e1e" stroke-width="1" fill="none"></path></g><g stroke-linecap="round" transform="translate(430 290) rotate(0 20 20)"><path d="M0 0 C11.43 0, 22.85 0, 40 0 M0 0 C11.74 0, 23.47 0, 40 0 M40 0 C40 11.95, 40 23.91, 40 40 M40 0 C40 11.67, 40 23.35, 40 40 M40 40 C24.55 40, 9.1 40, 0 40 M40 40 C25.34 40, 10.68 40, 0 40 M0 40 C0 28.95, 0 17.9, 0 0 M0 40 C0 29.14, 0 18.28, 0 0" stroke="#1e1e1e" stroke-width="1" fill="none"></path></g><g stroke-linecap="round" transform="translate(550 290) rotate(0 20 20)"><path d="M0 0 C10.52 0, 21.04 0, 40 0 M0 0 C10.61 0, 21.21 0, 40 0 M40 0 C40 10.02, 40 20.03, 40 40 M40 0 C40 15.72, 40 31.43, 40 40 M40 40 C30.35 40, 20.69 40, 0 40 M40 40 C28.13 40, 16.25 40, 0 40 M0 40 C0 29.45, 0 18.9, 0 0 M0 40 C0 24.37, 0 8.73, 0 0" stroke="#1e1e1e" stroke-width="1" fill="none"></path></g><g stroke-linecap="round" transform="translate(510 290) rotate(0 20 20)"><path d="M0 0 C13.66 0, 27.32 0, 40 0 M0 0 C14.97 0, 29.94 0, 40 0 M40 0 C40 13.31, 40 26.62, 40 40 M40 0 C40 11.69, 40 23.37, 40 40 M40 40 C31.76 40, 23.53 40, 0 40 M40 40 C31.89 40, 23.79 40, 0 40 M0 40 C0 27.72, 0 15.43, 0 0 M0 40 C0 29.56, 0 19.13, 0 0" stroke="#1e1e1e" stroke-width="1" fill="none"></path></g><g stroke-linecap="round" transform="translate(470 290) rotate(0 20 20)"><path d="M0 0 C15.76 0, 31.51 0, 40 0 M0 0 C10.28 0, 20.56 0, 40 0 M40 0 C40 11.35, 40 22.7, 40 40 M40 0 C40 10.8, 40 21.6, 40 40 M40 40 C27.44 40, 14.88 40, 0 40 M40 40 C28.9 40, 17.8 40, 0 40 M0 40 C0 25.29, 0 10.57, 0 0 M0 40 C0 29.72, 0 19.44, 0 0" stroke="#1e1e1e" stroke-width="1" fill="none"></path></g><g stroke-linecap="round" transform="translate(550 90) rotate(0 20 20)"><path d="M0 0 C15.6 0, 31.2 0, 40 0 M0 0 C13.36 0, 26.72 0, 40 0 M40 0 C40 11.7, 40 23.41, 40 40 M40 0 C40 10.3, 40 20.61, 40 40 M40 40 C29.52 40, 19.04 40, 0 40 M40 40 C24.09 40, 8.18 40, 0 40 M0 40 C0 24.69, 0 9.38, 0 0 M0 40 C0 25.64, 0 11.29, 0 0" stroke="#1e1e1e" stroke-width="1" fill="none"></path></g></svg>