<svg version="1.1" xmlns="http://www.w3.org/2000/svg" viewBox="0 0 862.4977974629307 385.75118449032306" width="1724.9955949258615" height="771.5023689806461">
  <!-- svg-source:excalidraw -->
  
  <defs>
    <style class="style-fonts">
      @font-face {
        font-family: "Virgil";
        src: url("https://excalidraw.com/Virgil.woff2");
      }
      @font-face {
        font-family: "Cascadia";
        src: url("https://excalidraw.com/Cascadia.woff2");
      }
      @font-face {
        font-family: "Assistant";
        src: url("https://excalidraw.com/Assistant-Regular.woff2");
      }
    </style>
    
  </defs>
  <rect x="0" y="0" width="862.4977974629307" height="385.75118449032306" fill="#ffffff"></rect><g stroke-linecap="round"><g transform="translate(11.627499099504178 331.0668927422259) rotate(0 420.33422693328 0.22465465544223662)"><path d="M0.82 0.48 C140.91 0.34, 701.24 -0.47, 840.87 -0.51 M-0.2 -0.32 C139.79 -0.29, 700.3 1.18, 840.49 0.93" stroke="#1e1e1e" stroke-width="2" fill="none"></path></g><g transform="translate(11.627499099504178 331.0668927422259) rotate(0 420.33422693328 0.22465465544223662)"><path d="M816.99 9.46 C825.49 8.28, 832.1 1.71, 840.49 0.93 M816.99 9.46 C825.38 5.65, 834.01 4.38, 840.49 0.93" stroke="#1e1e1e" stroke-width="2" fill="none"></path></g><g transform="translate(11.627499099504178 331.0668927422259) rotate(0 420.33422693328 0.22465465544223662)"><path d="M817 -7.64 C825.55 -3.19, 832.15 -4.14, 840.49 0.93 M817 -7.64 C825.45 -5.52, 834.07 -0.86, 840.49 0.93" stroke="#1e1e1e" stroke-width="2" fill="none"></path></g></g><mask></mask><g transform="translate(71.42565460263751 350.75118449032306) rotate(0 20 12.5)"><text x="0" y="17.52" font-family="Virgil, Segoe UI Emoji" font-size="20px" fill="#1e1e1e" text-anchor="start" style="white-space: pre;" direction="ltr" dominant-baseline="alphabetic">今天</text></g><g transform="translate(271.4256546026375 350.75118449032306) rotate(0 41.16998291015625 12.5)"><text x="0" y="17.52" font-family="Virgil, Segoe UI Emoji" font-size="20px" fill="#1e1e1e" text-anchor="start" style="white-space: pre;" direction="ltr" dominant-baseline="alphabetic">4月28日</text></g><g transform="translate(371.4256546026375 350.75118449032306) rotate(0 32.3599853515625 12.5)"><text x="0" y="17.52" font-family="Virgil, Segoe UI Emoji" font-size="20px" fill="#1e1e1e" text-anchor="start" style="white-space: pre;" direction="ltr" dominant-baseline="alphabetic">5月5日</text></g><g transform="translate(471.4256546026375 350.75118449032306) rotate(0 36.009986877441406 12.5)"><text x="0" y="17.52" font-family="Virgil, Segoe UI Emoji" font-size="20px" fill="#1e1e1e" text-anchor="start" style="white-space: pre;" direction="ltr" dominant-baseline="alphabetic">5月12日</text></g><g stroke-linecap="round"><g transform="translate(11.425654602637508 290.75118449032306) rotate(0 149.12629474521148 0.0012056767274373215)"><path d="M0.02 -0.92 C49.89 -1.09, 249.51 -1.37, 299.68 -1.08 M-1.43 1.21 C48.21 1.16, 248.18 0.28, 298.56 -0.11" stroke="#2f9e44" stroke-width="2" fill="none"></path></g></g><mask></mask><g stroke-linecap="round"><g transform="translate(311.4256546026375 230.75118449032306) rotate(0 50.79307640002111 0.6472092958493363)"><path d="M1.05 0.85 C17.65 0.98, 82.54 0.11, 99.16 -0.1 M0.15 0.25 C17.15 0.65, 84.72 1.32, 101.44 1.39" stroke="#2f9e44" stroke-width="2" fill="none"></path></g></g><mask></mask><g stroke-linecap="round"><g transform="translate(413.21641996456304 171.8647822856903) rotate(0 48.89369654261043 -0.26472727954387665)"><path d="M-0.22 0.58 C16.52 0.41, 82.76 -0.93, 99.58 -1.11 M-1.79 -0.15 C14.83 -0.21, 81.39 -0.28, 98.41 -0.16" stroke="#1971c2" stroke-width="2" fill="none"></path></g></g><mask></mask><g stroke-linecap="round"><g transform="translate(512.8369730627351 111.49071460366247) rotate(0 49.16529026628007 0.40743756041587176)"><path d="M0.03 -0.74 C16.72 -0.66, 83.07 -0.56, 99.74 -0.39 M-1.41 1.49 C15.13 1.81, 81.86 0.89, 98.66 0.94" stroke="#f08c00" stroke-width="2" fill="none"></path></g></g><mask></mask><g transform="translate(111.42565460263751 250.75118449032306) rotate(0 31.389984130859375 12.5)"><text x="0" y="17.52" font-family="Virgil, Segoe UI Emoji" font-size="20px" fill="#1e1e1e" text-anchor="start" style="white-space: pre;" direction="ltr" dominant-baseline="alphabetic">199.00</text></g><g transform="translate(331.4256546026375 190.75118449032306) rotate(0 35.79998016357422 12.5)"><text x="0" y="17.52" font-family="Virgil, Segoe UI Emoji" font-size="20px" fill="#1e1e1e" text-anchor="start" style="white-space: pre;" direction="ltr" dominant-baseline="alphabetic">299.00</text></g><g transform="translate(431.4256546026375 130.75118449032306) rotate(0 35.48998260498047 12.5)"><text x="0" y="17.52" font-family="Virgil, Segoe UI Emoji" font-size="20px" fill="#1e1e1e" text-anchor="start" style="white-space: pre;" direction="ltr" dominant-baseline="alphabetic">399.00</text></g><g transform="translate(531.4256546026375 70.75118449032306) rotate(0 35.079978942871094 12.5)"><text x="0" y="17.52" font-family="Virgil, Segoe UI Emoji" font-size="20px" fill="#1e1e1e" text-anchor="start" style="white-space: pre;" direction="ltr" dominant-baseline="alphabetic">499.00</text></g><g stroke-linecap="round"><g transform="translate(611.6067965161615 71.72969391433969) rotate(0 99.81674831003886 -0.05098081670998056)"><path d="M0.84 0.58 C17.2 0.39, 64.96 -0.73, 98.12 -0.93 C131.28 -1.13, 182.8 -0.62, 199.81 -0.62 M-0.18 -0.16 C15.99 -0.19, 63.72 0.33, 96.92 0.5 C130.13 0.67, 181.75 0.93, 199.05 0.87" stroke="#e03131" stroke-width="2" fill="none"></path></g></g><mask></mask><g transform="translate(671.4256546026375 30.751184490323055) rotate(0 34.85997772216797 12.5)"><text x="0" y="17.52" font-family="Virgil, Segoe UI Emoji" font-size="20px" fill="#1e1e1e" text-anchor="start" style="white-space: pre;" direction="ltr" dominant-baseline="alphabetic">599.00</text></g><g transform="translate(571.4256546026375 350.75118449032306) rotate(0 34.97998809814453 12.5)"><text x="0" y="17.52" font-family="Virgil, Segoe UI Emoji" font-size="20px" fill="#1e1e1e" text-anchor="start" style="white-space: pre;" direction="ltr" dominant-baseline="alphabetic">5月19日</text></g><g stroke-linecap="round"><g transform="translate(11.425654602637508 230.75118449032306) rotate(0 279.6240628987551 -110.45981419384478)"><path d="M-0.96 -0.17 C52.42 -9.92, 226.72 -22.69, 320.24 -59.45 C413.77 -96.22, 520.06 -193.94, 560.21 -220.75 M0.73 -1.3 C53.99 -11.33, 226.29 -24.87, 319.43 -61.29 C412.56 -97.71, 519.73 -193.47, 559.56 -219.83" stroke="#e03131" stroke-width="2" fill="none"></path></g><g transform="translate(11.425654602637508 230.75118449032306) rotate(0 279.6240628987551 -110.45981419384478)"><path d="M545.92 -198.87 C549.82 -204.52, 555.02 -210.74, 559.56 -219.83 M545.92 -198.87 C549.32 -203.77, 551.45 -209.63, 559.56 -219.83" stroke="#e03131" stroke-width="2" fill="none"></path></g><g transform="translate(11.425654602637508 230.75118449032306) rotate(0 279.6240628987551 -110.45981419384478)"><path d="M535.64 -212.54 C542.45 -214.08, 550.68 -216.28, 559.56 -219.83 M535.64 -212.54 C541.62 -214.16, 546.18 -216.77, 559.56 -219.83" stroke="#e03131" stroke-width="2" fill="none"></path></g></g><mask></mask><g transform="translate(771.4256546026375 350.75118449032306) rotate(0 20 12.5)"><text x="0" y="17.52" font-family="Virgil, Segoe UI Emoji" font-size="20px" fill="#1e1e1e" text-anchor="start" style="white-space: pre;" direction="ltr" dominant-baseline="alphabetic">未来</text></g></svg>