<svg version="1.1" xmlns="http://www.w3.org/2000/svg" viewBox="0 0 1185.2835540771484 520" width="2370.567108154297" height="1040">
  <!-- svg-source:excalidraw -->
  
  <defs>
    <style class="style-fonts">
      @font-face {
        font-family: "Virgil";
        src: url("https://excalidraw.com/Virgil.woff2");
      }
      @font-face {
        font-family: "Cascadia";
        src: url("https://excalidraw.com/Cascadia.woff2");
      }
      @font-face {
        font-family: "Assistant";
        src: url("https://excalidraw.com/Assistant-Regular.woff2");
      }
    </style>
    
  </defs>
  <rect x="0" y="0" width="1185.2835540771484" height="520" fill="#ffffff"></rect><g stroke-linecap="round" transform="translate(10 130) rotate(0 110 30)"><path d="M15 0 C78.32 0.13, 140.32 2.22, 205 0 M15 0 C90.58 2.64, 166.71 1.19, 205 0 M205 0 C213.19 -1.74, 218.09 4.14, 220 15 M205 0 C214.69 -1.17, 219.68 6.6, 220 15 M220 15 C218.88 25.07, 218.46 40.45, 220 45 M220 15 C220.36 27.52, 219.68 38.72, 220 45 M220 45 C220.97 55.49, 216.26 60.21, 205 60 M220 45 C218.26 53.61, 214.54 59.57, 205 60 M205 60 C147.3 59.85, 87.75 58.24, 15 60 M205 60 C139.39 57.55, 74.99 58.46, 15 60 M15 60 C3.48 58.56, -0.67 54.42, 0 45 M15 60 C5.23 61.43, -1.4 56.99, 0 45 M0 45 C-1.19 36.74, -1.03 25.9, 0 15 M0 45 C-0.76 35.08, -0.59 23.86, 0 15 M0 15 C1.27 5.12, 4.41 -0.74, 15 0 M0 15 C-0.81 7.07, 4.83 0.39, 15 0" stroke="#2f9e44" stroke-width="2" fill="none"></path></g><g transform="translate(36 142.5) rotate(0 84 17.5)"><text x="84" y="24.528" font-family="Virgil, Segoe UI Emoji" font-size="28px" fill="#2f9e44" text-anchor="middle" style="white-space: pre;" direction="ltr" dominant-baseline="alphabetic">零基础普及班</text></g><g stroke-linecap="round" transform="translate(10 190) rotate(0 110 30)"><path d="M15 0 C73.06 -2.81, 132.25 0.14, 205 0 M15 0 C66.51 2.13, 116.64 1.15, 205 0 M205 0 C213.64 0.32, 221.55 5.35, 220 15 M205 0 C216.36 1.48, 218.1 2.83, 220 15 M220 15 C219.01 20.91, 218.47 29.97, 220 45 M220 15 C220.99 24.06, 219.3 34.97, 220 45 M220 45 C218.73 56.89, 214.29 59.18, 205 60 M220 45 C218.97 57.09, 213.98 59.69, 205 60 M205 60 C144.76 59.11, 84.35 60.6, 15 60 M205 60 C145.65 60.06, 85.86 59.85, 15 60 M15 60 C6.07 60.81, 1.65 55.76, 0 45 M15 60 C7.08 62, 1.23 56.35, 0 45 M0 45 C0.21 33.81, -1.5 26.82, 0 15 M0 45 C0.9 33.76, 0.25 25, 0 15 M0 15 C0.84 4.18, 4.67 -0.3, 15 0 M0 15 C1.15 5.4, 4.3 0.71, 15 0" stroke="#f08c00" stroke-width="2" fill="none"></path></g><g transform="translate(34.840065002441406 195) rotate(0 85.1599349975586 25)"><text x="85.1599349975586" y="17.52" font-family="Virgil, Segoe UI Emoji" font-size="20px" fill="#f08c00" text-anchor="middle" style="white-space: pre;" direction="ltr" dominant-baseline="alphabetic">Linux, Vim, Git, </text><text x="85.1599349975586" y="42.519999999999996" font-family="Virgil, Segoe UI Emoji" font-size="20px" fill="#f08c00" text-anchor="middle" style="white-space: pre;" direction="ltr" dominant-baseline="alphabetic">Markdown, Python</text></g><g stroke-linecap="round" transform="translate(310 130) rotate(0 110 30)"><path d="M15 0 C57.94 0.86, 103.41 -2.74, 205 0 M15 0 C75.5 -2.23, 137.3 -2.01, 205 0 M205 0 C216.45 -1.85, 218.73 6.56, 220 15 M205 0 C215.93 1.66, 220.97 3.74, 220 15 M220 15 C218.93 25.25, 217.98 40.06, 220 45 M220 15 C220.78 26.07, 219.57 37.21, 220 45 M220 45 C219.94 55.41, 216.38 61.78, 205 60 M220 45 C219.95 55.38, 213.75 59.43, 205 60 M205 60 C135.36 61.9, 70.49 61.81, 15 60 M205 60 C132.96 60.66, 61.3 60.33, 15 60 M15 60 C6.95 61.26, -0.25 56.28, 0 45 M15 60 C5.75 58.9, -1.71 55.88, 0 45 M0 45 C0.16 37.32, -0.53 29.74, 0 15 M0 45 C0.78 35.59, 0.66 27.45, 0 15 M0 15 C-0.99 5.75, 5.02 0.63, 15 0 M0 15 C-0.16 6.72, 6.86 -1.42, 15 0" stroke="#2f9e44" stroke-width="2" fill="none"></path></g><g transform="translate(378 142.5) rotate(0 42 17.5)"><text x="42" y="24.528" font-family="Virgil, Segoe UI Emoji" font-size="28px" fill="#2f9e44" text-anchor="middle" style="white-space: pre;" direction="ltr" dominant-baseline="alphabetic">筑基班</text></g><g stroke-linecap="round" transform="translate(310 190) rotate(0 110 30)"><path d="M15 0 C89.53 3.57, 164.93 -0.24, 205 0 M15 0 C62.93 -0.38, 108.77 1.33, 205 0 M205 0 C215.8 1.44, 220.84 3.9, 220 15 M205 0 C217.27 -1.95, 218.13 4.07, 220 15 M220 15 C220.9 21.97, 220.48 29.27, 220 45 M220 15 C219.82 25.16, 220.54 35.8, 220 45 M220 45 C219.96 55.33, 213.91 59.51, 205 60 M220 45 C221.31 54.19, 215.3 57.95, 205 60 M205 60 C133.87 61.61, 60.55 61.92, 15 60 M205 60 C154.94 59.41, 102.81 59.42, 15 60 M15 60 C5.65 59.04, -1.48 55.76, 0 45 M15 60 C3.35 60.61, -1.82 55.27, 0 45 M0 45 C-0.13 38.67, 2.03 31.49, 0 15 M0 45 C-0.75 38.5, -0.25 31.57, 0 15 M0 15 C-0.14 6.5, 6.62 -1.23, 15 0 M0 15 C1.59 6.21, 4.27 0.1, 15 0" stroke="#f08c00" stroke-width="2" fill="none"></path></g><g transform="translate(387.90003204345703 195) rotate(0 32.09996795654297 25)"><text x="32.09996795654297" y="17.52" font-family="Virgil, Segoe UI Emoji" font-size="20px" fill="#f08c00" text-anchor="middle" style="white-space: pre;" direction="ltr" dominant-baseline="alphabetic">Linux</text><text x="32.09996795654297" y="42.519999999999996" font-family="Virgil, Segoe UI Emoji" font-size="20px" fill="#f08c00" text-anchor="middle" style="white-space: pre;" direction="ltr" dominant-baseline="alphabetic">Python</text></g><g stroke-linecap="round" transform="translate(10 250) rotate(0 110 25)"><path d="M12.5 0 C53.3 1.33, 92.43 -1.14, 207.5 0 M12.5 0 C56.18 0.67, 98.63 -0.65, 207.5 0 M207.5 0 C217.17 -1.86, 221.01 2.2, 220 12.5 M207.5 0 C216.72 -2.27, 218.14 5.06, 220 12.5 M220 12.5 C220.45 18.9, 220.14 26.16, 220 37.5 M220 12.5 C218.99 23.04, 219.63 32.23, 220 37.5 M220 37.5 C219.71 45.89, 215.89 48.53, 207.5 50 M220 37.5 C219.29 44.29, 216.69 47.91, 207.5 50 M207.5 50 C141.6 50.95, 77.29 49.08, 12.5 50 M207.5 50 C166.06 50.86, 122.27 51.21, 12.5 50 M12.5 50 C2.63 51.91, -1.78 44.09, 0 37.5 M12.5 50 C5.52 52.22, 0.32 43.75, 0 37.5 M0 37.5 C0.3 28.71, 0.87 18.17, 0 12.5 M0 37.5 C-0.7 27.61, -0.61 19.48, 0 12.5 M0 12.5 C-1.01 2.44, 4.91 -0.91, 12.5 0 M0 12.5 C-0.61 3.95, 4.8 -0.37, 12.5 0" stroke="#e03131" stroke-width="2" fill="none"></path></g><g transform="translate(51.000022888183594 255) rotate(0 68.9999771118164 20)"><text x="68.9999771118164" y="14.016" font-family="Virgil, Segoe UI Emoji" font-size="16px" fill="#e03131" text-anchor="middle" style="white-space: pre;" direction="ltr" dominant-baseline="alphabetic">Linux/Python 入门</text><text x="68.9999771118164" y="34.016" font-family="Virgil, Segoe UI Emoji" font-size="16px" fill="#e03131" text-anchor="middle" style="white-space: pre;" direction="ltr" dominant-baseline="alphabetic">个人开源代码仓库</text></g><g stroke-linecap="round" transform="translate(310 250) rotate(0 110 25)"><path d="M12.5 0 C71.44 -0.09, 127.01 0.45, 207.5 0 M12.5 0 C63.15 1.28, 115.2 1.81, 207.5 0 M207.5 0 C215.13 -1.03, 218.01 4.52, 220 12.5 M207.5 0 C215.6 1.94, 218.85 4.55, 220 12.5 M220 12.5 C221.59 21.47, 218.38 32.73, 220 37.5 M220 12.5 C219.92 21.08, 219.45 29.68, 220 37.5 M220 37.5 C221.79 46.2, 215.48 49.23, 207.5 50 M220 37.5 C219.74 44.82, 214.72 49.96, 207.5 50 M207.5 50 C136.5 52.6, 64.6 50.58, 12.5 50 M207.5 50 C161.54 51.84, 116.31 50.29, 12.5 50 M12.5 50 C4.09 48.69, 1.35 44.66, 0 37.5 M12.5 50 C4.36 50.19, -2.07 47.89, 0 37.5 M0 37.5 C-0.45 29.84, 0.24 19.13, 0 12.5 M0 37.5 C-0.35 32.81, -0.12 26.36, 0 12.5 M0 12.5 C0.42 3.52, 5.23 -0.34, 12.5 0 M0 12.5 C-1.19 4.93, 5.69 -1.01, 12.5 0" stroke="#e03131" stroke-width="2" fill="none"></path></g><g transform="translate(372 265) rotate(0 48 10)"><text x="48" y="14.016" font-family="Virgil, Segoe UI Emoji" font-size="16px" fill="#e03131" text-anchor="middle" style="white-space: pre;" direction="ltr" dominant-baseline="alphabetic">益智单机游戏</text></g><g stroke-linecap="round" transform="translate(650 10) rotate(0 110 30)"><path d="M15 0 C55.93 0.82, 93.22 -1.38, 205 0 M15 0 C82.49 -0.35, 148.85 1.32, 205 0 M205 0 C215.3 0.24, 220.39 6.13, 220 15 M205 0 C215.03 1.5, 220.1 7.03, 220 15 M220 15 C218.66 25.74, 217.82 31.03, 220 45 M220 15 C219.29 21.69, 219.68 28.4, 220 45 M220 45 C221.88 53.58, 214.33 58.92, 205 60 M220 45 C219.85 56.54, 214.75 58.31, 205 60 M205 60 C139.48 57.96, 68.56 60.23, 15 60 M205 60 C163.87 60.12, 124.79 59.62, 15 60 M15 60 C3.98 59.46, -1.84 54.78, 0 45 M15 60 C6.76 60.51, -0.92 53.19, 0 45 M0 45 C0.55 34.2, 1.82 27.02, 0 15 M0 45 C-0.84 38.48, 0.37 30.38, 0 15 M0 15 C-0.88 6.04, 6.51 1.1, 15 0 M0 15 C-0.53 4.38, 6.85 -0.11, 15 0" stroke="#2f9e44" stroke-width="2" fill="none"></path></g><g transform="translate(701.1860046386719 22.5) rotate(0 58.813995361328125 17.5)"><text x="58.813995361328125" y="24.528" font-family="Virgil, Segoe UI Emoji" font-size="28px" fill="#2f9e44" text-anchor="middle" style="white-space: pre;" direction="ltr" dominant-baseline="alphabetic">AI实战班</text></g><g stroke-linecap="round" transform="translate(650 70) rotate(0 110 30)"><path d="M15 0 C81.48 1.66, 145.28 3.06, 205 0 M15 0 C53.41 -1.19, 91.72 -0.74, 205 0 M205 0 C215.02 1.31, 220.09 6.77, 220 15 M205 0 C214.89 -1.86, 219.04 3.74, 220 15 M220 15 C218.34 27.76, 218.15 36.95, 220 45 M220 15 C220.8 22.55, 219.53 30.98, 220 45 M220 45 C219.87 56.34, 214.78 58.53, 205 60 M220 45 C221.25 54.71, 214.45 62.11, 205 60 M205 60 C161.29 59.4, 120.87 59.1, 15 60 M205 60 C141.12 59.41, 77.33 59.57, 15 60 M15 60 C6.53 60.44, -0.8 53.43, 0 45 M15 60 C5.39 58.76, -0.99 55.45, 0 45 M0 45 C-1.32 36.89, 0.64 28.86, 0 15 M0 45 C-0.51 33.9, 0.69 22.32, 0 15 M0 15 C-0.46 4.46, 6.61 -0.09, 15 0 M0 15 C-1.77 5.16, 4.05 -1.34, 15 0" stroke="#f08c00" stroke-width="2" fill="none"></path></g><g transform="translate(667.2500762939453 75) rotate(0 92.74992370605469 25)"><text x="92.74992370605469" y="17.52" font-family="Virgil, Segoe UI Emoji" font-size="20px" fill="#f08c00" text-anchor="middle" style="white-space: pre;" direction="ltr" dominant-baseline="alphabetic">Linux, AI</text><text x="92.74992370605469" y="42.519999999999996" font-family="Virgil, Segoe UI Emoji" font-size="20px" fill="#f08c00" text-anchor="middle" style="white-space: pre;" direction="ltr" dominant-baseline="alphabetic">Python, JavaScript</text></g><g stroke-linecap="round" transform="translate(650 130) rotate(0 110 20)"><path d="M10 0 C72.45 -0.39, 139.69 -1.37, 210 0 M10 0 C72.37 -0.43, 134.76 -0.23, 210 0 M210 0 C216.57 -1.62, 219.16 2.23, 220 10 M210 0 C218.83 -2.23, 218.07 1.75, 220 10 M220 10 C219.35 16.01, 218.9 25.75, 220 30 M220 10 C219.87 15.24, 219.82 18.42, 220 30 M220 30 C221.09 36.42, 216.19 41.83, 210 40 M220 30 C218.18 34.67, 217.46 37.99, 210 40 M210 40 C163.15 39.5, 114.79 37.68, 10 40 M210 40 C156.09 40, 100.44 39.09, 10 40 M10 40 C3.68 38.92, -0.86 37.06, 0 30 M10 40 C1.85 41.9, 1.21 35.43, 0 30 M0 30 C1.66 25.47, 0.22 19.2, 0 10 M0 30 C-0.38 22.69, 0.65 15.88, 0 10 M0 10 C-1.54 3.48, 2.51 -1.17, 10 0 M0 10 C1.24 4.11, 5.27 -0.62, 10 0" stroke="#e03131" stroke-width="2" fill="none"></path></g><g transform="translate(712 140) rotate(0 48 10)"><text x="48" y="14.016" font-family="Virgil, Segoe UI Emoji" font-size="16px" fill="#e03131" text-anchor="middle" style="white-space: pre;" direction="ltr" dominant-baseline="alphabetic">多人联网页游</text></g><g stroke-linecap="round" transform="translate(650 230) rotate(0 110 30)"><path d="M15 0 C60.28 0.2, 101.01 0.64, 205 0 M15 0 C74.88 1.52, 136.83 2.04, 205 0 M205 0 C216.06 -1.38, 218.66 5.25, 220 15 M205 0 C215.91 1, 218.62 3.89, 220 15 M220 15 C220.16 21.03, 221.7 28.28, 220 45 M220 15 C219.69 26.26, 220.34 38.39, 220 45 M220 45 C219.45 56.82, 213.05 59.53, 205 60 M220 45 C217.84 53.8, 216.45 60.62, 205 60 M205 60 C134.97 63.01, 67.42 62.98, 15 60 M205 60 C148.97 60.3, 93.04 59.69, 15 60 M15 60 C4.11 59.69, -0.7 54.56, 0 45 M15 60 C5.48 61.64, -1.51 52.89, 0 45 M0 45 C0.59 34.01, 0.43 20.46, 0 15 M0 45 C-1 37.53, 0.41 28.11, 0 15 M0 15 C-0.44 3.97, 4.36 -0.97, 15 0 M0 15 C0.95 6.25, 6.46 -1.12, 15 0" stroke="#2f9e44" stroke-width="2" fill="none"></path></g><g transform="translate(690 242.5) rotate(0 70 17.5)"><text x="70" y="24.528" font-family="Virgil, Segoe UI Emoji" font-size="28px" fill="#2f9e44" text-anchor="middle" style="white-space: pre;" direction="ltr" dominant-baseline="alphabetic">信奥初级班</text></g><g stroke-linecap="round" transform="translate(650 290) rotate(0 110 40)"><path d="M20 0 C76.87 -2.47, 131.76 -1.93, 200 0 M20 0 C80.93 -2.27, 140.13 -1.45, 200 0 M200 0 C214.12 0.87, 218.8 5.71, 220 20 M200 0 C212.12 -1.47, 218.02 7.07, 220 20 M220 20 C222.27 28.15, 220.95 38.16, 220 60 M220 20 C219.92 30.58, 219.22 39.11, 220 60 M220 60 C218.12 72.29, 214.59 80.54, 200 80 M220 60 C221.4 75.43, 215.5 78.27, 200 80 M200 80 C134.93 80.76, 70.42 81.56, 20 80 M200 80 C147.07 78.6, 94.69 78.54, 20 80 M20 80 C7.09 81.42, -1.32 71.5, 0 60 M20 80 C8.76 81.67, 1.14 74.27, 0 60 M0 60 C-0.77 47.16, -1.77 31.24, 0 20 M0 60 C-0.42 45.18, -0.52 30.92, 0 20 M0 20 C0.83 7.75, 7.93 -0.97, 20 0 M0 20 C-1.38 8.08, 4.72 -0.46, 20 0" stroke="#f08c00" stroke-width="2" fill="none"></path></g><g transform="translate(660.4200286865234 305) rotate(0 99.57997131347656 25)"><text x="99.57997131347656" y="17.52" font-family="Virgil, Segoe UI Emoji" font-size="20px" fill="#f08c00" text-anchor="middle" style="white-space: pre;" direction="ltr" dominant-baseline="alphabetic">Linux, C++</text><text x="99.57997131347656" y="42.519999999999996" font-family="Virgil, Segoe UI Emoji" font-size="20px" fill="#f08c00" text-anchor="middle" style="white-space: pre;" direction="ltr" dominant-baseline="alphabetic">CSP-J算法及数据结构</text></g><g stroke-linecap="round" transform="translate(650 370) rotate(0 110 15)"><path d="M7.5 0 C50.93 2.56, 94.66 2.12, 212.5 0 M7.5 0 C55.17 0.16, 101.6 -0.66, 212.5 0 M212.5 0 C216.44 -1.28, 218.28 2.85, 220 7.5 M212.5 0 C215.91 2.18, 218.22 4.68, 220 7.5 M220 7.5 C219.17 11.94, 219.6 14.46, 220 22.5 M220 7.5 C219.15 12.97, 220.33 19.43, 220 22.5 M220 22.5 C221.21 29.32, 219.38 28.49, 212.5 30 M220 22.5 C221.4 26.88, 218.87 29.91, 212.5 30 M212.5 30 C154.06 31.5, 94.68 29.65, 7.5 30 M212.5 30 C154.41 30.24, 95.36 28.78, 7.5 30 M7.5 30 C4.32 31.45, 0.99 28.31, 0 22.5 M7.5 30 C3.35 30.75, -1.25 26.77, 0 22.5 M0 22.5 C0.99 18.27, -1.08 12.22, 0 7.5 M0 22.5 C0.36 19.18, 0.52 14.68, 0 7.5 M0 7.5 C-1.2 3.73, 0.8 -0.4, 7.5 0 M0 7.5 C-0.76 3.21, 0.31 -1.81, 7.5 0" stroke="#e03131" stroke-width="2" fill="none"></path></g><g transform="translate(696 375) rotate(0 64 10)"><text x="64" y="14.016" font-family="Virgil, Segoe UI Emoji" font-size="16px" fill="#e03131" text-anchor="middle" style="white-space: pre;" direction="ltr" dominant-baseline="alphabetic">信奥竞赛（初级）</text></g><g stroke-linecap="round"><g transform="translate(550 210) rotate(0 19.722061861432167 0.21464238186800344)"><path d="M0.05 0.51 C6.7 0.55, 33.3 -0.09, 40.04 -0.13 M-0.59 0.3 C5.98 0.44, 32.79 0.67, 39.63 0.5" stroke="#1e1e1e" stroke-width="2" fill="none"></path></g></g><mask></mask><g stroke-linecap="round"><g transform="translate(590 110) rotate(0 0.2666764238197743 110.02158268205821)"><path d="M0.53 -0.73 C0.59 36.14, -0.59 184.13, -0.86 220.78 M-0.65 1.5 C-0.11 38.07, 1.09 182.63, 1.4 219.06" stroke="#1e1e1e" stroke-width="2" fill="none"></path></g></g><mask></mask><g stroke-linecap="round"><g transform="translate(590 110) rotate(0 19.9067651552474 0.010629360777045349)"><path d="M0.16 -0.39 C6.95 -0.39, 33.58 0.17, 40.23 0.26 M-0.42 0.6 C6.36 0.41, 33.22 -0.61, 39.92 -0.58" stroke="#1e1e1e" stroke-width="2" fill="none"></path></g><g transform="translate(590 110) rotate(0 19.9067651552474 0.010629360777045349)"><path d="M21.27 6.63 C24.44 5.52, 29.51 3.77, 39.92 -0.58 M21.27 6.63 C27.54 4.82, 33.46 2.04, 39.92 -0.58" stroke="#1e1e1e" stroke-width="2" fill="none"></path></g><g transform="translate(590 110) rotate(0 19.9067651552474 0.010629360777045349)"><path d="M21 -7.05 C24.26 -5.3, 29.39 -4.19, 39.92 -0.58 M21 -7.05 C27.31 -4.4, 33.32 -2.72, 39.92 -0.58" stroke="#1e1e1e" stroke-width="2" fill="none"></path></g></g><mask></mask><g stroke-linecap="round"><g transform="translate(590.6591657899693 330.58420987319204) rotate(0 19.557357090930452 -0.5730392630351844)"><path d="M0 0.02 C6.6 -0.12, 33.21 -0.27, 39.77 -0.33 M-0.66 -0.44 C5.89 -0.51, 32.95 -1.02, 39.57 -1.17" stroke="#1e1e1e" stroke-width="2" fill="none"></path></g><g transform="translate(590.6591657899693 330.58420987319204) rotate(0 19.557357090930452 -0.5730392630351844)"><path d="M21.22 5.93 C27.35 4.34, 33.88 1.26, 39.57 -1.17 M21.22 5.93 C27.89 3.21, 33.84 1.59, 39.57 -1.17" stroke="#1e1e1e" stroke-width="2" fill="none"></path></g><g transform="translate(590.6591657899693 330.58420987319204) rotate(0 19.557357090930452 -0.5730392630351844)"><path d="M20.95 -7.52 C27.23 -4.63, 33.85 -3.22, 39.57 -1.17 M20.95 -7.52 C27.72 -5.67, 33.76 -2.72, 39.57 -1.17" stroke="#1e1e1e" stroke-width="2" fill="none"></path></g></g><mask></mask><g stroke-linecap="round"><g transform="translate(250 210) rotate(0 20.031426275032572 0.18299541670094754)"><path d="M0.48 -0.52 C7.23 -0.39, 33.36 0.69, 40 0.89 M0.07 0.4 C6.79 0.35, 32.92 -0.14, 39.6 0" stroke="#1e1e1e" stroke-width="2" fill="none"></path></g><g transform="translate(250 210) rotate(0 20.031426275032572 0.18299541670094754)"><path d="M20.84 6.86 C23.81 5.46, 28.96 4.54, 39.6 0 M20.84 6.86 C26.67 5, 31.18 3.17, 39.6 0" stroke="#1e1e1e" stroke-width="2" fill="none"></path></g><g transform="translate(250 210) rotate(0 20.031426275032572 0.18299541670094754)"><path d="M20.82 -6.8 C23.81 -5.34, 28.97 -3.41, 39.6 0 M20.82 -6.8 C26.59 -4.75, 31.11 -2.68, 39.6 0" stroke="#1e1e1e" stroke-width="2" fill="none"></path></g></g><mask></mask><g transform="translate(30 330) rotate(0 86.25 37.5)"><text x="86.25" y="17.52" font-family="Virgil, Segoe UI Emoji" font-size="20px" fill="#1971c2" text-anchor="middle" style="white-space: pre;" direction="ltr" dominant-baseline="alphabetic">8 课时</text><text x="86.25" y="42.519999999999996" font-family="Virgil, Segoe UI Emoji" font-size="20px" fill="#1971c2" text-anchor="middle" style="white-space: pre;" direction="ltr" dominant-baseline="alphabetic">周末班2周</text><text x="86.25" y="67.52" font-family="Virgil, Segoe UI Emoji" font-size="20px" fill="#1971c2" text-anchor="middle" style="white-space: pre;" direction="ltr" dominant-baseline="alphabetic">录播课 + 答疑直播</text></g><g transform="translate(318.75 330) rotate(0 96.25 37.5)"><text x="96.25" y="17.52" font-family="Virgil, Segoe UI Emoji" font-size="20px" fill="#1971c2" text-anchor="middle" style="white-space: pre;" direction="ltr" dominant-baseline="alphabetic">20 课时</text><text x="96.25" y="42.519999999999996" font-family="Virgil, Segoe UI Emoji" font-size="20px" fill="#1971c2" text-anchor="middle" style="white-space: pre;" direction="ltr" dominant-baseline="alphabetic">周末班5周/暑期班1月</text><text x="96.25" y="67.52" font-family="Virgil, Segoe UI Emoji" font-size="20px" fill="#1971c2" text-anchor="middle" style="white-space: pre;" direction="ltr" dominant-baseline="alphabetic">课程直播 + 答疑直播</text></g><g transform="translate(910 50) rotate(0 106.21998596191406 37.5)"><text x="0" y="17.52" font-family="Virgil, Segoe UI Emoji" font-size="20px" fill="#1971c2" text-anchor="start" style="white-space: pre;" direction="ltr" dominant-baseline="alphabetic">40 课时</text><text x="0" y="42.519999999999996" font-family="Virgil, Segoe UI Emoji" font-size="20px" fill="#1971c2" text-anchor="start" style="white-space: pre;" direction="ltr" dominant-baseline="alphabetic">周末班10周/暑期班1.5月</text><text x="0" y="67.52" font-family="Virgil, Segoe UI Emoji" font-size="20px" fill="#1971c2" text-anchor="start" style="white-space: pre;" direction="ltr" dominant-baseline="alphabetic">课程直播 + 答疑直播</text></g><g stroke-linecap="round" transform="translate(950 230) rotate(0 110 30)"><path d="M15 0 C79.28 -0.72, 147.26 -0.03, 205 0 M15 0 C66.28 0.13, 116.53 -0.99, 205 0 M205 0 C214.41 1.41, 221.04 6.49, 220 15 M205 0 C215.96 -1.02, 221.4 5.21, 220 15 M220 15 C220.37 23.13, 219.86 35.36, 220 45 M220 15 C220.19 23.85, 220.89 33.52, 220 45 M220 45 C221.3 53.86, 216.86 59.02, 205 60 M220 45 C220.09 54.1, 214.18 58.75, 205 60 M205 60 C136.08 59.32, 63.91 60.53, 15 60 M205 60 C148.06 61.99, 91.92 60.41, 15 60 M15 60 C5.48 58.68, -0.3 56.81, 0 45 M15 60 C6.28 60.67, -0.96 55.94, 0 45 M0 45 C-0.11 37.5, 0.8 28.33, 0 15 M0 45 C0.7 35.4, 0.04 27.19, 0 15 M0 15 C0.93 4.29, 5.46 -0.92, 15 0 M0 15 C2.13 2.86, 3.66 -0.6, 15 0" stroke="#2f9e44" stroke-width="2" fill="none"></path></g><g transform="translate(990 242.5) rotate(0 70 17.5)"><text x="70" y="24.528" font-family="Virgil, Segoe UI Emoji" font-size="28px" fill="#2f9e44" text-anchor="middle" style="white-space: pre;" direction="ltr" dominant-baseline="alphabetic">信奥提高班</text></g><g stroke-linecap="round" transform="translate(950 290) rotate(0 110 40)"><path d="M20 0 C69.84 -2.07, 121.5 0.7, 200 0 M20 0 C85.02 1.59, 151.14 1.63, 200 0 M200 0 C214.17 -0.89, 221.22 6.85, 220 20 M200 0 C214.02 -2.27, 221.27 7.43, 220 20 M220 20 C219.91 27.87, 219.88 37.49, 220 60 M220 20 C221.04 31.57, 221.32 43.79, 220 60 M220 60 C220.08 72.55, 212.62 78.91, 200 80 M220 60 C221.59 72.67, 213.93 81.37, 200 80 M200 80 C156.48 81.23, 114.45 78.45, 20 80 M200 80 C132.81 77.83, 65 79.39, 20 80 M20 80 C7.78 80.58, -0.83 74.15, 0 60 M20 80 C6 78.41, -1.98 72.97, 0 60 M0 60 C0.01 44.88, 0.5 34.32, 0 20 M0 60 C0.56 49.24, 0.33 38.72, 0 20 M0 20 C1.85 4.8, 5.5 -0.52, 20 0 M0 20 C-1.35 5.31, 7.41 2.17, 20 0" stroke="#f08c00" stroke-width="2" fill="none"></path></g><g transform="translate(960.6800308227539 305) rotate(0 99.3199691772461 25)"><text x="99.3199691772461" y="17.52" font-family="Virgil, Segoe UI Emoji" font-size="20px" fill="#f08c00" text-anchor="middle" style="white-space: pre;" direction="ltr" dominant-baseline="alphabetic">Linux, C++</text><text x="99.3199691772461" y="42.519999999999996" font-family="Virgil, Segoe UI Emoji" font-size="20px" fill="#f08c00" text-anchor="middle" style="white-space: pre;" direction="ltr" dominant-baseline="alphabetic">CSP-S算法及数据结构</text></g><g stroke-linecap="round" transform="translate(950 370) rotate(0 110 15)"><path d="M7.5 0 C51.6 -1, 92.58 -1.41, 212.5 0 M7.5 0 C83.79 -1.76, 159.87 -1.28, 212.5 0 M212.5 0 C218.1 -1.97, 221.11 3.17, 220 7.5 M212.5 0 C215.47 0.18, 220.64 2.36, 220 7.5 M220 7.5 C220.04 13.02, 221.33 16.58, 220 22.5 M220 7.5 C220.17 10.85, 219.87 14.39, 220 22.5 M220 22.5 C221.38 26.92, 218.02 31.19, 212.5 30 M220 22.5 C218.65 26.49, 217.54 29.9, 212.5 30 M212.5 30 C139.97 27.19, 63.27 28.99, 7.5 30 M212.5 30 C165.01 31.91, 116.14 32.02, 7.5 30 M7.5 30 C1.92 28.62, -1.72 27.19, 0 22.5 M7.5 30 C3.23 30.68, -0.46 27.65, 0 22.5 M0 22.5 C-0.64 19.03, 0.84 16.97, 0 7.5 M0 22.5 C0.66 17.83, -0.47 14.36, 0 7.5 M0 7.5 C-1.17 1.32, 3.15 1.88, 7.5 0 M0 7.5 C-2.08 2.22, 0.31 -2.14, 7.5 0" stroke="#e03131" stroke-width="2" fill="none"></path></g><g transform="translate(996 375) rotate(0 64 10)"><text x="64" y="14.016" font-family="Virgil, Segoe UI Emoji" font-size="16px" fill="#e03131" text-anchor="middle" style="white-space: pre;" direction="ltr" dominant-baseline="alphabetic">信奥竞赛（提高）</text></g><g transform="translate(948.7164459228516 430) rotate(0 113.28355407714844 40)"><text x="113.28355407714844" y="18.688" font-family="Virgil, Segoe UI Emoji" font-size="21.333333333333332px" fill="#1971c2" text-anchor="middle" style="white-space: pre;" direction="ltr" dominant-baseline="alphabetic">40 课时</text><text x="113.28355407714844" y="45.35466666666666" font-family="Virgil, Segoe UI Emoji" font-size="21.333333333333332px" fill="#1971c2" text-anchor="middle" style="white-space: pre;" direction="ltr" dominant-baseline="alphabetic">周末班10周/暑期班1.5月</text><text x="113.28355407714844" y="72.02133333333333" font-family="Virgil, Segoe UI Emoji" font-size="21.333333333333332px" fill="#1971c2" text-anchor="middle" style="white-space: pre;" direction="ltr" dominant-baseline="alphabetic">课程直播 + 答疑直播</text></g><g stroke-linecap="round"><g transform="translate(890 330) rotate(0 20.002879922732177 -0.10731970828493331)"><path d="M-0.52 -0.55 C6.02 -0.51, 32.75 0.12, 39.53 0.26 M0.22 0.36 C6.89 0.24, 33.91 -0.41, 40.52 -0.57" stroke="#1e1e1e" stroke-width="2" fill="none"></path></g><g transform="translate(890 330) rotate(0 20.002879922732177 -0.10731970828493331)"><path d="M21.9 6.72 C27.61 3.32, 35.79 1.87, 40.52 -0.57 M21.9 6.72 C28.76 3.71, 35.16 1.78, 40.52 -0.57" stroke="#1e1e1e" stroke-width="2" fill="none"></path></g><g transform="translate(890 330) rotate(0 20.002879922732177 -0.10731970828493331)"><path d="M21.57 -6.96 C27.4 -5.42, 35.7 -1.95, 40.52 -0.57 M21.57 -6.96 C28.53 -5.1, 35.04 -2.16, 40.52 -0.57" stroke="#1e1e1e" stroke-width="2" fill="none"></path></g></g><mask></mask><g transform="translate(648.7800140380859 430) rotate(0 106.21998596191406 37.5)"><text x="106.21998596191406" y="17.52" font-family="Virgil, Segoe UI Emoji" font-size="20px" fill="#1971c2" text-anchor="middle" style="white-space: pre;" direction="ltr" dominant-baseline="alphabetic">40 课时</text><text x="106.21998596191406" y="42.519999999999996" font-family="Virgil, Segoe UI Emoji" font-size="20px" fill="#1971c2" text-anchor="middle" style="white-space: pre;" direction="ltr" dominant-baseline="alphabetic">周末班10周/暑期班1.5月</text><text x="106.21998596191406" y="67.52" font-family="Virgil, Segoe UI Emoji" font-size="20px" fill="#1971c2" text-anchor="middle" style="white-space: pre;" direction="ltr" dominant-baseline="alphabetic">课程直播 + 答疑直播</text></g></svg>