<svg version="1.1" xmlns="http://www.w3.org/2000/svg" viewBox="0 0 780 420" width="1560" height="840">
  <!-- svg-source:excalidraw -->
  
  <defs>
    <style class="style-fonts">
      @font-face {
        font-family: "Virgil";
        src: url("https://excalidraw.com/Virgil.woff2");
      }
      @font-face {
        font-family: "Cascadia";
        src: url("https://excalidraw.com/Cascadia.woff2");
      }
      @font-face {
        font-family: "Assistant";
        src: url("https://excalidraw.com/Assistant-Regular.woff2");
      }
    </style>
    
  </defs>
  <rect x="0" y="0" width="780" height="420" fill="#ffffff"></rect><g stroke-linecap="round" transform="translate(10 330) rotate(0 380 40)"><path d="M20 0 C229.85 0, 439.71 0, 740 0 C753.33 0, 760 6.67, 760 20 C760 30.52, 760 41.04, 760 60 C760 73.33, 753.33 80, 740 80 C591.89 80, 443.78 80, 20 80 C6.67 80, 0 73.33, 0 60 C0 49.75, 0 39.5, 0 20 C0 6.67, 6.67 0, 20 0" stroke="none" stroke-width="0" fill="#a5d8ff"></path><path d="M20 0 C302.74 0, 585.49 0, 740 0 M20 0 C250.1 0, 480.19 0, 740 0 M740 0 C753.33 0, 760 6.67, 760 20 M740 0 C753.33 0, 760 6.67, 760 20 M760 20 C760 35.02, 760 50.04, 760 60 M760 20 C760 31.61, 760 43.23, 760 60 M760 60 C760 73.33, 753.33 80, 740 80 M760 60 C760 73.33, 753.33 80, 740 80 M740 80 C494.96 80, 249.92 80, 20 80 M740 80 C588.39 80, 436.79 80, 20 80 M20 80 C6.67 80, 0 73.33, 0 60 M20 80 C6.67 80, 0 73.33, 0 60 M0 60 C0 44.06, 0 28.12, 0 20 M0 60 C0 44.87, 0 29.73, 0 20 M0 20 C0 6.67, 6.67 0, 20 0 M0 20 C0 6.67, 6.67 0, 20 0" stroke="#1e1e1e" stroke-width="2" fill="none"></path></g><g transform="translate(218.81002807617188 357.5) rotate(0 171.18997192382812 12.5)"><text x="171.18997192382812" y="17.52" font-family="Virgil, Segoe UI Emoji" font-size="20px" fill="#1e1e1e" text-anchor="middle" style="white-space: pre;" direction="ltr" dominant-baseline="alphabetic">物理硬件（CPU、RAM、硬盘、网卡）</text></g><g stroke-linecap="round" transform="translate(10 250) rotate(0 380 30)"><path d="M15 0 C268.22 0, 521.44 0, 745 0 C755 0, 760 5, 760 15 C760 22.85, 760 30.7, 760 45 C760 55, 755 60, 745 60 C574.31 60, 403.62 60, 15 60 C5 60, 0 55, 0 45 C0 37.74, 0 30.49, 0 15 C0 5, 5 0, 15 0" stroke="none" stroke-width="0" fill="#a5d8ff"></path><path d="M15 0 C166.79 0, 318.59 0, 745 0 M15 0 C299.97 0, 584.94 0, 745 0 M745 0 C755 0, 760 5, 760 15 M745 0 C755 0, 760 5, 760 15 M760 15 C760 25.5, 760 36, 760 45 M760 15 C760 23.6, 760 32.21, 760 45 M760 45 C760 55, 755 60, 745 60 M760 45 C760 55, 755 60, 745 60 M745 60 C511.49 60, 277.99 60, 15 60 M745 60 C469.44 60, 193.89 60, 15 60 M15 60 C5 60, 0 55, 0 45 M15 60 C5 60, 0 55, 0 45 M0 45 C0 38.73, 0 32.45, 0 15 M0 45 C0 36.77, 0 28.53, 0 15 M0 15 C0 5, 5 0, 15 0 M0 15 C0 5, 5 0, 15 0" stroke="#1e1e1e" stroke-width="2" fill="none"></path></g><g transform="translate(207.42007446289062 267.5) rotate(0 182.57992553710938 12.5)"><text x="182.57992553710938" y="17.52" font-family="Virgil, Segoe UI Emoji" font-size="20px" fill="#1e1e1e" text-anchor="middle" style="white-space: pre;" direction="ltr" dominant-baseline="alphabetic">宿主操作系统（Windows/Linux/macOS）</text></g><g stroke-linecap="round" transform="translate(430 10) rotate(0 170 110)"><path d="M32 0 C107.85 0, 183.71 0, 308 0 C329.33 0, 340 10.67, 340 32 C340 77.56, 340 123.12, 340 188 C340 209.33, 329.33 220, 308 220 C237.69 220, 167.37 220, 32 220 C10.67 220, 0 209.33, 0 188 C0 130.12, 0 72.25, 0 32 C0 10.67, 10.67 0, 32 0" stroke="none" stroke-width="0" fill="#a5d8ff"></path><path d="M32 0 C129.56 0, 227.12 0, 308 0 M32 0 C112.8 0, 193.6 0, 308 0 M308 0 C329.33 0, 340 10.67, 340 32 M308 0 C329.33 0, 340 10.67, 340 32 M340 32 C340 87.94, 340 143.88, 340 188 M340 32 C340 68.12, 340 104.24, 340 188 M340 188 C340 209.33, 329.33 220, 308 220 M340 188 C340 209.33, 329.33 220, 308 220 M308 220 C202.22 220, 96.43 220, 32 220 M308 220 C221.12 220, 134.23 220, 32 220 M32 220 C10.67 220, 0 209.33, 0 188 M32 220 C10.67 220, 0 209.33, 0 188 M0 188 C0 139.2, 0 90.4, 0 32 M0 188 C0 127.86, 0 67.72, 0 32 M0 32 C0 10.67, 10.67 0, 32 0 M0 32 C0 10.67, 10.67 0, 32 0" stroke="#1e1e1e" stroke-width="2" fill="none"></path></g><g transform="translate(480 95) rotate(0 120 25)"><text x="120" y="17.52" font-family="Virgil, Segoe UI Emoji" font-size="20px" fill="#1e1e1e" text-anchor="middle" style="white-space: pre;" direction="ltr" dominant-baseline="alphabetic">宿主操作系统上的其他应用</text><text x="120" y="42.519999999999996" font-family="Virgil, Segoe UI Emoji" font-size="20px" fill="#1e1e1e" text-anchor="middle" style="white-space: pre;" direction="ltr" dominant-baseline="alphabetic">（Office, Chrome, ...）</text></g><g stroke-linecap="round" transform="translate(10 130) rotate(0 200 50)"><path d="M25 0 C122.86 0, 220.73 0, 375 0 C391.67 0, 400 8.33, 400 25 C400 40.63, 400 56.25, 400 75 C400 91.67, 391.67 100, 375 100 C264.17 100, 153.34 100, 25 100 C8.33 100, 0 91.67, 0 75 C0 64.79, 0 54.57, 0 25 C0 8.33, 8.33 0, 25 0" stroke="none" stroke-width="0" fill="#ffc9c9"></path><path d="M25 0 C107.6 0, 190.2 0, 375 0 M25 0 C140.76 0, 256.52 0, 375 0 M375 0 C391.67 0, 400 8.33, 400 25 M375 0 C391.67 0, 400 8.33, 400 25 M400 25 C400 36.89, 400 48.79, 400 75 M400 25 C400 40.62, 400 56.24, 400 75 M400 75 C400 91.67, 391.67 100, 375 100 M400 75 C400 91.67, 391.67 100, 375 100 M375 100 C249.43 100, 123.86 100, 25 100 M375 100 C249.45 100, 123.89 100, 25 100 M25 100 C8.33 100, 0 91.67, 0 75 M25 100 C8.33 100, 0 91.67, 0 75 M0 75 C0 61.84, 0 48.69, 0 25 M0 75 C0 60.44, 0 45.87, 0 25 M0 25 C0 8.33, 8.33 0, 25 0 M0 25 C0 8.33, 8.33 0, 25 0" stroke="#1e1e1e" stroke-width="2" fill="none"></path></g><g transform="translate(28.32012939453125 155) rotate(0 181.67987060546875 25)"><text x="181.67987060546875" y="17.52" font-family="Virgil, Segoe UI Emoji" font-size="20px" fill="#1e1e1e" text-anchor="middle" style="white-space: pre;" direction="ltr" dominant-baseline="alphabetic">虚拟机管理器</text><text x="181.67987060546875" y="42.519999999999996" font-family="Virgil, Segoe UI Emoji" font-size="20px" fill="#1e1e1e" text-anchor="middle" style="white-space: pre;" direction="ltr" dominant-baseline="alphabetic">（Oracle VirtualBox/VMware Fusion）</text></g><g stroke-linecap="round" transform="translate(10 10) rotate(0 60 50)"><path d="M25 0 C44.43 0, 63.86 0, 95 0 C111.67 0, 120 8.33, 120 25 C120 35.6, 120 46.2, 120 75 C120 91.67, 111.67 100, 95 100 C74.52 100, 54.04 100, 25 100 C8.33 100, 0 91.67, 0 75 C0 62.03, 0 49.06, 0 25 C0 8.33, 8.33 0, 25 0" stroke="none" stroke-width="0" fill="#ffec99"></path><path d="M25 0 C50.32 0, 75.65 0, 95 0 M25 0 C51.26 0, 77.53 0, 95 0 M95 0 C111.67 0, 120 8.33, 120 25 M95 0 C111.67 0, 120 8.33, 120 25 M120 25 C120 40.33, 120 55.66, 120 75 M120 25 C120 39.39, 120 53.78, 120 75 M120 75 C120 91.67, 111.67 100, 95 100 M120 75 C120 91.67, 111.67 100, 95 100 M95 100 C75.07 100, 55.13 100, 25 100 M95 100 C71.07 100, 47.14 100, 25 100 M25 100 C8.33 100, 0 91.67, 0 75 M25 100 C8.33 100, 0 91.67, 0 75 M0 75 C0 57.56, 0 40.12, 0 25 M0 75 C0 61.76, 0 48.52, 0 25 M0 25 C0 8.33, 8.33 0, 25 0 M0 25 C0 8.33, 8.33 0, 25 0" stroke="#1e1e1e" stroke-width="2" fill="none"></path></g><g transform="translate(30 35) rotate(0 40 25)"><text x="40" y="17.52" font-family="Virgil, Segoe UI Emoji" font-size="20px" fill="#1e1e1e" text-anchor="middle" style="white-space: pre;" direction="ltr" dominant-baseline="alphabetic">客人系统</text><text x="40" y="42.519999999999996" font-family="Virgil, Segoe UI Emoji" font-size="20px" fill="#1e1e1e" text-anchor="middle" style="white-space: pre;" direction="ltr" dominant-baseline="alphabetic">(Linux)</text></g><g stroke-linecap="round" transform="translate(150 10) rotate(0 60 50)"><path d="M25 0 C39.28 0, 53.56 0, 95 0 C111.67 0, 120 8.33, 120 25 C120 37.12, 120 49.24, 120 75 C120 91.67, 111.67 100, 95 100 C67.22 100, 39.45 100, 25 100 C8.33 100, 0 91.67, 0 75 C0 61.72, 0 48.43, 0 25 C0 8.33, 8.33 0, 25 0" stroke="none" stroke-width="0" fill="#ffec99"></path><path d="M25 0 C51.33 0, 77.66 0, 95 0 M25 0 C49.63 0, 74.26 0, 95 0 M95 0 C111.67 0, 120 8.33, 120 25 M95 0 C111.67 0, 120 8.33, 120 25 M120 25 C120 39.81, 120 54.63, 120 75 M120 25 C120 35.67, 120 46.35, 120 75 M120 75 C120 91.67, 111.67 100, 95 100 M120 75 C120 91.67, 111.67 100, 95 100 M95 100 C80.76 100, 66.52 100, 25 100 M95 100 C73.05 100, 51.09 100, 25 100 M25 100 C8.33 100, 0 91.67, 0 75 M25 100 C8.33 100, 0 91.67, 0 75 M0 75 C0 64.16, 0 53.32, 0 25 M0 75 C0 61.46, 0 47.91, 0 25 M0 25 C0 8.33, 8.33 0, 25 0 M0 25 C0 8.33, 8.33 0, 25 0" stroke="#1e1e1e" stroke-width="2" fill="none"></path></g><g transform="translate(170 35) rotate(0 40 25)"><text x="40" y="17.52" font-family="Virgil, Segoe UI Emoji" font-size="20px" fill="#1e1e1e" text-anchor="middle" style="white-space: pre;" direction="ltr" dominant-baseline="alphabetic">客人系统</text><text x="40" y="42.519999999999996" font-family="Virgil, Segoe UI Emoji" font-size="20px" fill="#1e1e1e" text-anchor="middle" style="white-space: pre;" direction="ltr" dominant-baseline="alphabetic">(macOS)</text></g><g stroke-linecap="round" transform="translate(290 10) rotate(0 60 50)"><path d="M25 0 C43.77 0, 62.55 0, 95 0 C111.67 0, 120 8.33, 120 25 C120 44.99, 120 64.99, 120 75 C120 91.67, 111.67 100, 95 100 C72.88 100, 50.76 100, 25 100 C8.33 100, 0 91.67, 0 75 C0 60.56, 0 46.12, 0 25 C0 8.33, 8.33 0, 25 0" stroke="none" stroke-width="0" fill="#ffec99"></path><path d="M25 0 C48.6 0, 72.19 0, 95 0 M25 0 C41.64 0, 58.29 0, 95 0 M95 0 C111.67 0, 120 8.33, 120 25 M95 0 C111.67 0, 120 8.33, 120 25 M120 25 C120 37.83, 120 50.65, 120 75 M120 25 C120 36.77, 120 48.54, 120 75 M120 75 C120 91.67, 111.67 100, 95 100 M120 75 C120 91.67, 111.67 100, 95 100 M95 100 C76.04 100, 57.08 100, 25 100 M95 100 C76.93 100, 58.85 100, 25 100 M25 100 C8.33 100, 0 91.67, 0 75 M25 100 C8.33 100, 0 91.67, 0 75 M0 75 C0 63.48, 0 51.96, 0 25 M0 75 C0 64, 0 52.99, 0 25 M0 25 C0 8.33, 8.33 0, 25 0 M0 25 C0 8.33, 8.33 0, 25 0" stroke="#1e1e1e" stroke-width="2" fill="none"></path></g><g transform="translate(305.40003967285156 35) rotate(0 44.59996032714844 25)"><text x="44.59996032714844" y="17.52" font-family="Virgil, Segoe UI Emoji" font-size="20px" fill="#1e1e1e" text-anchor="middle" style="white-space: pre;" direction="ltr" dominant-baseline="alphabetic">客人系统</text><text x="44.59996032714844" y="42.519999999999996" font-family="Virgil, Segoe UI Emoji" font-size="20px" fill="#1e1e1e" text-anchor="middle" style="white-space: pre;" direction="ltr" dominant-baseline="alphabetic">(Windows)</text></g></svg>