<svg version="1.1" xmlns="http://www.w3.org/2000/svg" viewBox="0 0 640 200" width="1280" height="400">
  <!-- svg-source:excalidraw -->
  
  <defs>
    <style class="style-fonts">
      @font-face {
        font-family: "Virgil";
        src: url("https://excalidraw.com/Virgil.woff2");
      }
      @font-face {
        font-family: "Cascadia";
        src: url("https://excalidraw.com/Cascadia.woff2");
      }
      @font-face {
        font-family: "Assistant";
        src: url("https://excalidraw.com/Assistant-Regular.woff2");
      }
    </style>
    
  </defs>
  <rect x="0" y="0" width="640" height="200" fill="#ffffff"></rect><g stroke-linecap="round" transform="translate(10 10) rotate(0 30 30)"><path d="M15 0 C23.03 0, 31.05 0, 45 0 C55 0, 60 5, 60 15 C60 24.8, 60 34.59, 60 45 C60 55, 55 60, 45 60 C38.02 60, 31.04 60, 15 60 C5 60, 0 55, 0 45 C0 35.17, 0 25.34, 0 15 C0 5, 5 0, 15 0" stroke="none" stroke-width="0" fill="#b2f2bb"></path><path d="M15 0 C25.55 0, 36.1 0, 45 0 M15 0 C26.7 0, 38.4 0, 45 0 M45 0 C55 0, 60 5, 60 15 M45 0 C55 0, 60 5, 60 15 M60 15 C60 25.99, 60 36.97, 60 45 M60 15 C60 26.18, 60 37.37, 60 45 M60 45 C60 55, 55 60, 45 60 M60 45 C60 55, 55 60, 45 60 M45 60 C34.45 60, 23.9 60, 15 60 M45 60 C35.83 60, 26.67 60, 15 60 M15 60 C5 60, 0 55, 0 45 M15 60 C5 60, 0 55, 0 45 M0 45 C0 33.73, 0 22.45, 0 15 M0 45 C0 33.7, 0 22.4, 0 15 M0 15 C0 5, 5 0, 15 0 M0 15 C0 5, 5 0, 15 0" stroke="#1e1e1e" stroke-width="2" fill="none"></path></g><g transform="translate(30 27.5) rotate(0 10 12.5)"><text x="10" y="17.52" font-family="Virgil, Segoe UI Emoji" font-size="20px" fill="#1e1e1e" text-anchor="middle" style="white-space: pre;" direction="ltr" dominant-baseline="alphabetic">与</text></g><g stroke-linecap="round" transform="translate(70 10) rotate(0 30 30)"><path d="M15 0 C26.18 0, 37.35 0, 45 0 C55 0, 60 5, 60 15 C60 25.56, 60 36.12, 60 45 C60 55, 55 60, 45 60 C37.51 60, 30.02 60, 15 60 C5 60, 0 55, 0 45 C0 38.54, 0 32.08, 0 15 C0 5, 5 0, 15 0" stroke="none" stroke-width="0" fill="#b2f2bb"></path><path d="M15 0 C25.32 0, 35.63 0, 45 0 M15 0 C22.93 0, 30.85 0, 45 0 M45 0 C55 0, 60 5, 60 15 M45 0 C55 0, 60 5, 60 15 M60 15 C60 23.03, 60 31.06, 60 45 M60 15 C60 23.43, 60 31.86, 60 45 M60 45 C60 55, 55 60, 45 60 M60 45 C60 55, 55 60, 45 60 M45 60 C37.4 60, 29.8 60, 15 60 M45 60 C33.86 60, 22.72 60, 15 60 M15 60 C5 60, 0 55, 0 45 M15 60 C5 60, 0 55, 0 45 M0 45 C0 38.74, 0 32.48, 0 15 M0 45 C0 35.35, 0 25.7, 0 15 M0 15 C0 5, 5 0, 15 0 M0 15 C0 5, 5 0, 15 0" stroke="#1e1e1e" stroke-width="2" fill="none"></path></g><g transform="translate(93.12000274658203 27.5) rotate(0 6.879997253417969 12.5)"><text x="6.879997253417969" y="17.52" font-family="Virgil, Segoe UI Emoji" font-size="20px" fill="#1e1e1e" text-anchor="middle" style="white-space: pre;" direction="ltr" dominant-baseline="alphabetic">0</text></g><g stroke-linecap="round" transform="translate(130 10) rotate(0 30 30)"><path d="M15 0 C26.88 0, 38.76 0, 45 0 C55 0, 60 5, 60 15 C60 25.03, 60 35.06, 60 45 C60 55, 55 60, 45 60 C36.35 60, 27.7 60, 15 60 C5 60, 0 55, 0 45 C0 37.78, 0 30.57, 0 15 C0 5, 5 0, 15 0" stroke="none" stroke-width="0" fill="#b2f2bb"></path><path d="M15 0 C21.98 0, 28.96 0, 45 0 M15 0 C24.3 0, 33.59 0, 45 0 M45 0 C55 0, 60 5, 60 15 M45 0 C55 0, 60 5, 60 15 M60 15 C60 26.07, 60 37.14, 60 45 M60 15 C60 23.2, 60 31.39, 60 45 M60 45 C60 55, 55 60, 45 60 M60 45 C60 55, 55 60, 45 60 M45 60 C36.54 60, 28.07 60, 15 60 M45 60 C34.6 60, 24.19 60, 15 60 M15 60 C5 60, 0 55, 0 45 M15 60 C5 60, 0 55, 0 45 M0 45 C0 38.95, 0 32.9, 0 15 M0 45 C0 34.51, 0 24.01, 0 15 M0 15 C0 5, 5 0, 15 0 M0 15 C0 5, 5 0, 15 0" stroke="#1e1e1e" stroke-width="2" fill="none"></path></g><g transform="translate(157.29000091552734 27.5) rotate(0 2.7099990844726562 12.5)"><text x="2.7099990844726562" y="17.52" font-family="Virgil, Segoe UI Emoji" font-size="20px" fill="#1e1e1e" text-anchor="middle" style="white-space: pre;" direction="ltr" dominant-baseline="alphabetic">1</text></g><g stroke-linecap="round" transform="translate(10 70) rotate(0 30 30)"><path d="M15 0 C24.99 0, 34.98 0, 45 0 C55 0, 60 5, 60 15 C60 22.91, 60 30.82, 60 45 C60 55, 55 60, 45 60 C38.34 60, 31.68 60, 15 60 C5 60, 0 55, 0 45 C0 38.34, 0 31.67, 0 15 C0 5, 5 0, 15 0" stroke="none" stroke-width="0" fill="#b2f2bb"></path><path d="M15 0 C24.08 0, 33.16 0, 45 0 M15 0 C23.23 0, 31.47 0, 45 0 M45 0 C55 0, 60 5, 60 15 M45 0 C55 0, 60 5, 60 15 M60 15 C60 21.21, 60 27.42, 60 45 M60 15 C60 22.7, 60 30.4, 60 45 M60 45 C60 55, 55 60, 45 60 M60 45 C60 55, 55 60, 45 60 M45 60 C33.21 60, 21.41 60, 15 60 M45 60 C33.84 60, 22.67 60, 15 60 M15 60 C5 60, 0 55, 0 45 M15 60 C5 60, 0 55, 0 45 M0 45 C0 36.43, 0 27.85, 0 15 M0 45 C0 37.61, 0 30.21, 0 15 M0 15 C0 5, 5 0, 15 0 M0 15 C0 5, 5 0, 15 0" stroke="#1e1e1e" stroke-width="2" fill="none"></path></g><g transform="translate(33.12000274658203 87.5) rotate(0 6.879997253417969 12.5)"><text x="6.879997253417969" y="17.52" font-family="Virgil, Segoe UI Emoji" font-size="20px" fill="#1e1e1e" text-anchor="middle" style="white-space: pre;" direction="ltr" dominant-baseline="alphabetic">0</text></g><g stroke-linecap="round" transform="translate(10 130) rotate(0 30 30)"><path d="M15 0 C22.21 0, 29.41 0, 45 0 C55 0, 60 5, 60 15 C60 26.58, 60 38.15, 60 45 C60 55, 55 60, 45 60 C37.6 60, 30.19 60, 15 60 C5 60, 0 55, 0 45 C0 37.89, 0 30.79, 0 15 C0 5, 5 0, 15 0" stroke="none" stroke-width="0" fill="#b2f2bb"></path><path d="M15 0 C23.18 0, 31.35 0, 45 0 M15 0 C26.2 0, 37.39 0, 45 0 M45 0 C55 0, 60 5, 60 15 M45 0 C55 0, 60 5, 60 15 M60 15 C60 21.85, 60 28.7, 60 45 M60 15 C60 26.63, 60 38.25, 60 45 M60 45 C60 55, 55 60, 45 60 M60 45 C60 55, 55 60, 45 60 M45 60 C34.9 60, 24.79 60, 15 60 M45 60 C34.37 60, 23.75 60, 15 60 M15 60 C5 60, 0 55, 0 45 M15 60 C5 60, 0 55, 0 45 M0 45 C0 33.09, 0 21.18, 0 15 M0 45 C0 37.09, 0 29.18, 0 15 M0 15 C0 5, 5 0, 15 0 M0 15 C0 5, 5 0, 15 0" stroke="#1e1e1e" stroke-width="2" fill="none"></path></g><g transform="translate(37.290000915527344 147.5) rotate(0 2.7099990844726562 12.5)"><text x="2.7099990844726562" y="17.52" font-family="Virgil, Segoe UI Emoji" font-size="20px" fill="#1e1e1e" text-anchor="middle" style="white-space: pre;" direction="ltr" dominant-baseline="alphabetic">1</text></g><g stroke-linecap="round" transform="translate(130 130) rotate(0 30 30)"><path d="M15 0 C25.83 0, 36.65 0, 45 0 C55 0, 60 5, 60 15 C60 24.62, 60 34.24, 60 45 C60 55, 55 60, 45 60 C38.8 60, 32.61 60, 15 60 C5 60, 0 55, 0 45 C0 37.54, 0 30.08, 0 15 C0 5, 5 0, 15 0" stroke="none" stroke-width="0" fill="#ffc9c9"></path><path d="M15 0 C25.1 0, 35.21 0, 45 0 M15 0 C25.63 0, 36.25 0, 45 0 M45 0 C55 0, 60 5, 60 15 M45 0 C55 0, 60 5, 60 15 M60 15 C60 26.91, 60 38.82, 60 45 M60 15 C60 22.91, 60 30.82, 60 45 M60 45 C60 55, 55 60, 45 60 M60 45 C60 55, 55 60, 45 60 M45 60 C37.79 60, 30.59 60, 15 60 M45 60 C38.34 60, 31.67 60, 15 60 M15 60 C5 60, 0 55, 0 45 M15 60 C5 60, 0 55, 0 45 M0 45 C0 37.6, 0 30.19, 0 15 M0 45 C0 36.44, 0 27.87, 0 15 M0 15 C0 5, 5 0, 15 0 M0 15 C0 5, 5 0, 15 0" stroke="#1e1e1e" stroke-width="2" fill="none"></path></g><g transform="translate(157.29000091552734 147.5) rotate(0 2.7099990844726562 12.5)"><text x="2.7099990844726562" y="17.52" font-family="Virgil, Segoe UI Emoji" font-size="20px" fill="#1e1e1e" text-anchor="middle" style="white-space: pre;" direction="ltr" dominant-baseline="alphabetic">1</text></g><g stroke-linecap="round" transform="translate(70 70) rotate(0 30 30)"><path d="M15 0 C21.36 0, 27.71 0, 45 0 C55 0, 60 5, 60 15 C60 25.04, 60 35.07, 60 45 C60 55, 55 60, 45 60 C33.12 60, 21.24 60, 15 60 C5 60, 0 55, 0 45 C0 36.85, 0 28.69, 0 15 C0 5, 5 0, 15 0" stroke="none" stroke-width="0" fill="#a5d8ff"></path><path d="M15 0 C21.14 0, 27.27 0, 45 0 M15 0 C25.13 0, 35.25 0, 45 0 M45 0 C55 0, 60 5, 60 15 M45 0 C55 0, 60 5, 60 15 M60 15 C60 21.16, 60 27.33, 60 45 M60 15 C60 24.34, 60 33.68, 60 45 M60 45 C60 55, 55 60, 45 60 M60 45 C60 55, 55 60, 45 60 M45 60 C37.85 60, 30.71 60, 15 60 M45 60 C33.4 60, 21.79 60, 15 60 M15 60 C5 60, 0 55, 0 45 M15 60 C5 60, 0 55, 0 45 M0 45 C0 34.68, 0 24.37, 0 15 M0 45 C0 35.69, 0 26.38, 0 15 M0 15 C0 5, 5 0, 15 0 M0 15 C0 5, 5 0, 15 0" stroke="#1e1e1e" stroke-width="2" fill="none"></path></g><g transform="translate(93.12000274658203 87.5) rotate(0 6.879997253417969 12.5)"><text x="6.879997253417969" y="17.52" font-family="Virgil, Segoe UI Emoji" font-size="20px" fill="#1e1e1e" text-anchor="middle" style="white-space: pre;" direction="ltr" dominant-baseline="alphabetic">0</text></g><g stroke-linecap="round" transform="translate(130 70) rotate(0 30 30)"><path d="M15 0 C23.26 0, 31.52 0, 45 0 C55 0, 60 5, 60 15 C60 21.96, 60 28.92, 60 45 C60 55, 55 60, 45 60 C38.14 60, 31.28 60, 15 60 C5 60, 0 55, 0 45 C0 36.99, 0 28.99, 0 15 C0 5, 5 0, 15 0" stroke="none" stroke-width="0" fill="#a5d8ff"></path><path d="M15 0 C22.21 0, 29.41 0, 45 0 M15 0 C26.55 0, 38.1 0, 45 0 M45 0 C55 0, 60 5, 60 15 M45 0 C55 0, 60 5, 60 15 M60 15 C60 21.5, 60 27.99, 60 45 M60 15 C60 23.27, 60 31.54, 60 45 M60 45 C60 55, 55 60, 45 60 M60 45 C60 55, 55 60, 45 60 M45 60 C35.46 60, 25.93 60, 15 60 M45 60 C37.08 60, 29.17 60, 15 60 M15 60 C5 60, 0 55, 0 45 M15 60 C5 60, 0 55, 0 45 M0 45 C0 35.4, 0 25.8, 0 15 M0 45 C0 33.64, 0 22.28, 0 15 M0 15 C0 5, 5 0, 15 0 M0 15 C0 5, 5 0, 15 0" stroke="#1e1e1e" stroke-width="2" fill="none"></path></g><g transform="translate(153.12000274658203 87.5) rotate(0 6.879997253417969 12.5)"><text x="6.879997253417969" y="17.52" font-family="Virgil, Segoe UI Emoji" font-size="20px" fill="#1e1e1e" text-anchor="middle" style="white-space: pre;" direction="ltr" dominant-baseline="alphabetic">0</text></g><g stroke-linecap="round" transform="translate(70 130) rotate(0 30 30)"><path d="M15 0 C21.89 0, 28.77 0, 45 0 C55 0, 60 5, 60 15 C60 24.55, 60 34.09, 60 45 C60 55, 55 60, 45 60 C37.76 60, 30.51 60, 15 60 C5 60, 0 55, 0 45 C0 36.44, 0 27.89, 0 15 C0 5, 5 0, 15 0" stroke="none" stroke-width="0" fill="#a5d8ff"></path><path d="M15 0 C22.15 0, 29.29 0, 45 0 M15 0 C26.6 0, 38.21 0, 45 0 M45 0 C55 0, 60 5, 60 15 M45 0 C55 0, 60 5, 60 15 M60 15 C60 25.32, 60 35.63, 60 45 M60 15 C60 24.31, 60 33.62, 60 45 M60 45 C60 55, 55 60, 45 60 M60 45 C60 55, 55 60, 45 60 M45 60 C38.64 60, 32.29 60, 15 60 M45 60 C36.63 60, 28.27 60, 15 60 M15 60 C5 60, 0 55, 0 45 M15 60 C5 60, 0 55, 0 45 M0 45 C0 33.12, 0 21.24, 0 15 M0 45 C0 36.81, 0 28.62, 0 15 M0 15 C0 5, 5 0, 15 0 M0 15 C0 5, 5 0, 15 0" stroke="#1e1e1e" stroke-width="2" fill="none"></path></g><g transform="translate(93.12000274658203 147.5) rotate(0 6.879997253417969 12.5)"><text x="6.879997253417969" y="17.52" font-family="Virgil, Segoe UI Emoji" font-size="20px" fill="#1e1e1e" text-anchor="middle" style="white-space: pre;" direction="ltr" dominant-baseline="alphabetic">0</text></g><g stroke-linecap="round" transform="translate(450 10) rotate(0 30 30)"><path d="M15 0 C26.19 0, 37.37 0, 45 0 C55 0, 60 5, 60 15 C60 26.11, 60 37.22, 60 45 C60 55, 55 60, 45 60 C33.72 60, 22.44 60, 15 60 C5 60, 0 55, 0 45 C0 37.76, 0 30.53, 0 15 C0 5, 5 0, 15 0" stroke="none" stroke-width="0" fill="#b2f2bb"></path><path d="M15 0 C22.99 0, 30.97 0, 45 0 M15 0 C24.55 0, 34.09 0, 45 0 M45 0 C55 0, 60 5, 60 15 M45 0 C55 0, 60 5, 60 15 M60 15 C60 26.41, 60 37.81, 60 45 M60 15 C60 23.56, 60 32.11, 60 45 M60 45 C60 55, 55 60, 45 60 M60 45 C60 55, 55 60, 45 60 M45 60 C36.82 60, 28.63 60, 15 60 M45 60 C36.67 60, 28.34 60, 15 60 M15 60 C5 60, 0 55, 0 45 M15 60 C5 60, 0 55, 0 45 M0 45 C0 33.61, 0 22.22, 0 15 M0 45 C0 38.14, 0 31.29, 0 15 M0 15 C0 5, 5 0, 15 0 M0 15 C0 5, 5 0, 15 0" stroke="#1e1e1e" stroke-width="2" fill="none"></path></g><g transform="translate(470 27.5) rotate(0 10 12.5)"><text x="10" y="17.52" font-family="Virgil, Segoe UI Emoji" font-size="20px" fill="#1e1e1e" text-anchor="middle" style="white-space: pre;" direction="ltr" dominant-baseline="alphabetic">非</text></g><g stroke-linecap="round" transform="translate(510 10) rotate(0 30 30)"><path d="M15 0 C26.53 0, 38.05 0, 45 0 C55 0, 60 5, 60 15 C60 24.24, 60 33.48, 60 45 C60 55, 55 60, 45 60 C36.62 60, 28.24 60, 15 60 C5 60, 0 55, 0 45 C0 35.8, 0 26.6, 0 15 C0 5, 5 0, 15 0" stroke="none" stroke-width="0" fill="#b2f2bb"></path><path d="M15 0 C25.59 0, 36.18 0, 45 0 M15 0 C22.87 0, 30.74 0, 45 0 M45 0 C55 0, 60 5, 60 15 M45 0 C55 0, 60 5, 60 15 M60 15 C60 24.38, 60 33.77, 60 45 M60 15 C60 21.14, 60 27.27, 60 45 M60 45 C60 55, 55 60, 45 60 M60 45 C60 55, 55 60, 45 60 M45 60 C38.37 60, 31.73 60, 15 60 M45 60 C38.58 60, 32.17 60, 15 60 M15 60 C5 60, 0 55, 0 45 M15 60 C5 60, 0 55, 0 45 M0 45 C0 34.63, 0 24.25, 0 15 M0 45 C0 35.03, 0 25.06, 0 15 M0 15 C0 5, 5 0, 15 0 M0 15 C0 5, 5 0, 15 0" stroke="#1e1e1e" stroke-width="2" fill="none"></path></g><g transform="translate(533.120002746582 27.5) rotate(0 6.879997253417969 12.5)"><text x="6.879997253417969" y="17.52" font-family="Virgil, Segoe UI Emoji" font-size="20px" fill="#1e1e1e" text-anchor="middle" style="white-space: pre;" direction="ltr" dominant-baseline="alphabetic">0</text></g><g stroke-linecap="round" transform="translate(570 10) rotate(0 30 30)"><path d="M15 0 C21.29 0, 27.57 0, 45 0 C55 0, 60 5, 60 15 C60 21.82, 60 28.63, 60 45 C60 55, 55 60, 45 60 C36.74 60, 28.47 60, 15 60 C5 60, 0 55, 0 45 C0 34.42, 0 23.84, 0 15 C0 5, 5 0, 15 0" stroke="none" stroke-width="0" fill="#b2f2bb"></path><path d="M15 0 C22.09 0, 29.18 0, 45 0 M15 0 C21.49 0, 27.98 0, 45 0 M45 0 C55 0, 60 5, 60 15 M45 0 C55 0, 60 5, 60 15 M60 15 C60 21.2, 60 27.4, 60 45 M60 15 C60 26.41, 60 37.83, 60 45 M60 45 C60 55, 55 60, 45 60 M60 45 C60 55, 55 60, 45 60 M45 60 C36.59 60, 28.18 60, 15 60 M45 60 C38.62 60, 32.25 60, 15 60 M15 60 C5 60, 0 55, 0 45 M15 60 C5 60, 0 55, 0 45 M0 45 C0 35.42, 0 25.84, 0 15 M0 45 C0 35.98, 0 26.95, 0 15 M0 15 C0 5, 5 0, 15 0 M0 15 C0 5, 5 0, 15 0" stroke="#1e1e1e" stroke-width="2" fill="none"></path></g><g transform="translate(597.2900009155273 27.5) rotate(0 2.7099990844726562 12.5)"><text x="2.7099990844726562" y="17.52" font-family="Virgil, Segoe UI Emoji" font-size="20px" fill="#1e1e1e" text-anchor="middle" style="white-space: pre;" direction="ltr" dominant-baseline="alphabetic">1</text></g><g stroke-linecap="round" transform="translate(230 70) rotate(0 30 30)"><path d="M15 0 C21.94 0, 28.88 0, 45 0 C55 0, 60 5, 60 15 C60 26.45, 60 37.91, 60 45 C60 55, 55 60, 45 60 C35.47 60, 25.93 60, 15 60 C5 60, 0 55, 0 45 C0 36.76, 0 28.52, 0 15 C0 5, 5 0, 15 0" stroke="none" stroke-width="0" fill="#b2f2bb"></path><path d="M15 0 C25.93 0, 36.86 0, 45 0 M15 0 C25.34 0, 35.69 0, 45 0 M45 0 C55 0, 60 5, 60 15 M45 0 C55 0, 60 5, 60 15 M60 15 C60 26.43, 60 37.85, 60 45 M60 15 C60 26.08, 60 37.15, 60 45 M60 45 C60 55, 55 60, 45 60 M60 45 C60 55, 55 60, 45 60 M45 60 C38.54 60, 32.08 60, 15 60 M45 60 C37.61 60, 30.22 60, 15 60 M15 60 C5 60, 0 55, 0 45 M15 60 C5 60, 0 55, 0 45 M0 45 C0 36.4, 0 27.79, 0 15 M0 45 C0 34.56, 0 24.12, 0 15 M0 15 C0 5, 5 0, 15 0 M0 15 C0 5, 5 0, 15 0" stroke="#1e1e1e" stroke-width="2" fill="none"></path></g><g transform="translate(253.12000274658203 87.5) rotate(0 6.879997253417969 12.5)"><text x="6.879997253417969" y="17.52" font-family="Virgil, Segoe UI Emoji" font-size="20px" fill="#1e1e1e" text-anchor="middle" style="white-space: pre;" direction="ltr" dominant-baseline="alphabetic">0</text></g><g stroke-linecap="round" transform="translate(230 130) rotate(0 30 30)"><path d="M15 0 C22 0, 29 0, 45 0 C55 0, 60 5, 60 15 C60 23.97, 60 32.94, 60 45 C60 55, 55 60, 45 60 C38.65 60, 32.3 60, 15 60 C5 60, 0 55, 0 45 C0 33.26, 0 21.52, 0 15 C0 5, 5 0, 15 0" stroke="none" stroke-width="0" fill="#b2f2bb"></path><path d="M15 0 C26.6 0, 38.19 0, 45 0 M15 0 C26.59 0, 38.17 0, 45 0 M45 0 C55 0, 60 5, 60 15 M45 0 C55 0, 60 5, 60 15 M60 15 C60 21.19, 60 27.37, 60 45 M60 15 C60 22.51, 60 30.03, 60 45 M60 45 C60 55, 55 60, 45 60 M60 45 C60 55, 55 60, 45 60 M45 60 C36.2 60, 27.4 60, 15 60 M45 60 C34.17 60, 23.33 60, 15 60 M15 60 C5 60, 0 55, 0 45 M15 60 C5 60, 0 55, 0 45 M0 45 C0 33.42, 0 21.84, 0 15 M0 45 C0 35.66, 0 26.32, 0 15 M0 15 C0 5, 5 0, 15 0 M0 15 C0 5, 5 0, 15 0" stroke="#1e1e1e" stroke-width="2" fill="none"></path></g><g transform="translate(257.29000091552734 147.5) rotate(0 2.7099990844726562 12.5)"><text x="2.7099990844726562" y="17.52" font-family="Virgil, Segoe UI Emoji" font-size="20px" fill="#1e1e1e" text-anchor="middle" style="white-space: pre;" direction="ltr" dominant-baseline="alphabetic">1</text></g><g stroke-linecap="round" transform="translate(350 70) rotate(0 30 30)"><path d="M15 0 C24.04 0, 33.09 0, 45 0 C55 0, 60 5, 60 15 C60 23.39, 60 31.78, 60 45 C60 55, 55 60, 45 60 C35.6 60, 26.2 60, 15 60 C5 60, 0 55, 0 45 C0 34.66, 0 24.31, 0 15 C0 5, 5 0, 15 0" stroke="none" stroke-width="0" fill="#ffc9c9"></path><path d="M15 0 C22.62 0, 30.24 0, 45 0 M15 0 C25.57 0, 36.14 0, 45 0 M45 0 C55 0, 60 5, 60 15 M45 0 C55 0, 60 5, 60 15 M60 15 C60 21.15, 60 27.3, 60 45 M60 15 C60 24.82, 60 34.65, 60 45 M60 45 C60 55, 55 60, 45 60 M60 45 C60 55, 55 60, 45 60 M45 60 C33.53 60, 22.06 60, 15 60 M45 60 C33.7 60, 22.4 60, 15 60 M15 60 C5 60, 0 55, 0 45 M15 60 C5 60, 0 55, 0 45 M0 45 C0 38.81, 0 32.63, 0 15 M0 45 C0 34.44, 0 23.88, 0 15 M0 15 C0 5, 5 0, 15 0 M0 15 C0 5, 5 0, 15 0" stroke="#1e1e1e" stroke-width="2" fill="none"></path></g><g transform="translate(377.29000091552734 87.5) rotate(0 2.7099990844726562 12.5)"><text x="2.7099990844726562" y="17.52" font-family="Virgil, Segoe UI Emoji" font-size="20px" fill="#1e1e1e" text-anchor="middle" style="white-space: pre;" direction="ltr" dominant-baseline="alphabetic">1</text></g><g stroke-linecap="round" transform="translate(290 70) rotate(0 30 30)"><path d="M15 0 C24.67 0, 34.35 0, 45 0 C55 0, 60 5, 60 15 C60 23.95, 60 32.89, 60 45 C60 55, 55 60, 45 60 C38.07 60, 31.13 60, 15 60 C5 60, 0 55, 0 45 C0 38.97, 0 32.95, 0 15 C0 5, 5 0, 15 0" stroke="none" stroke-width="0" fill="#a5d8ff"></path><path d="M15 0 C24.59 0, 34.18 0, 45 0 M15 0 C21.85 0, 28.7 0, 45 0 M45 0 C55 0, 60 5, 60 15 M45 0 C55 0, 60 5, 60 15 M60 15 C60 25.52, 60 36.05, 60 45 M60 15 C60 21.8, 60 28.6, 60 45 M60 45 C60 55, 55 60, 45 60 M60 45 C60 55, 55 60, 45 60 M45 60 C37.43 60, 29.86 60, 15 60 M45 60 C33.42 60, 21.84 60, 15 60 M15 60 C5 60, 0 55, 0 45 M15 60 C5 60, 0 55, 0 45 M0 45 C0 36.34, 0 27.69, 0 15 M0 45 C0 37.37, 0 29.74, 0 15 M0 15 C0 5, 5 0, 15 0 M0 15 C0 5, 5 0, 15 0" stroke="#1e1e1e" stroke-width="2" fill="none"></path></g><g transform="translate(313.12000274658203 87.5) rotate(0 6.879997253417969 12.5)"><text x="6.879997253417969" y="17.52" font-family="Virgil, Segoe UI Emoji" font-size="20px" fill="#1e1e1e" text-anchor="middle" style="white-space: pre;" direction="ltr" dominant-baseline="alphabetic">0</text></g><g stroke-linecap="round" transform="translate(570 70) rotate(0 30 30)"><path d="M15 0 C23.55 0, 32.11 0, 45 0 C55 0, 60 5, 60 15 C60 24.06, 60 33.13, 60 45 C60 55, 55 60, 45 60 C35.25 60, 25.51 60, 15 60 C5 60, 0 55, 0 45 C0 34.55, 0 24.09, 0 15 C0 5, 5 0, 15 0" stroke="none" stroke-width="0" fill="#a5d8ff"></path><path d="M15 0 C22.13 0, 29.26 0, 45 0 M15 0 C23.18 0, 31.36 0, 45 0 M45 0 C55 0, 60 5, 60 15 M45 0 C55 0, 60 5, 60 15 M60 15 C60 26.07, 60 37.15, 60 45 M60 15 C60 26.95, 60 38.9, 60 45 M60 45 C60 55, 55 60, 45 60 M60 45 C60 55, 55 60, 45 60 M45 60 C36.76 60, 28.52 60, 15 60 M45 60 C37.34 60, 29.68 60, 15 60 M15 60 C5 60, 0 55, 0 45 M15 60 C5 60, 0 55, 0 45 M0 45 C0 38.23, 0 31.47, 0 15 M0 45 C0 35.22, 0 25.44, 0 15 M0 15 C0 5, 5 0, 15 0 M0 15 C0 5, 5 0, 15 0" stroke="#1e1e1e" stroke-width="2" fill="none"></path></g><g transform="translate(593.120002746582 87.5) rotate(0 6.879997253417969 12.5)"><text x="6.879997253417969" y="17.52" font-family="Virgil, Segoe UI Emoji" font-size="20px" fill="#1e1e1e" text-anchor="middle" style="white-space: pre;" direction="ltr" dominant-baseline="alphabetic">0</text></g><g stroke-linecap="round" transform="translate(350 130) rotate(0 30 30)"><path d="M15 0 C26.44 0, 37.89 0, 45 0 C55 0, 60 5, 60 15 C60 21.28, 60 27.55, 60 45 C60 55, 55 60, 45 60 C37.98 60, 30.95 60, 15 60 C5 60, 0 55, 0 45 C0 36.27, 0 27.53, 0 15 C0 5, 5 0, 15 0" stroke="none" stroke-width="0" fill="#ffc9c9"></path><path d="M15 0 C21.6 0, 28.2 0, 45 0 M15 0 C24.86 0, 34.72 0, 45 0 M45 0 C55 0, 60 5, 60 15 M45 0 C55 0, 60 5, 60 15 M60 15 C60 23.07, 60 31.14, 60 45 M60 15 C60 22.25, 60 29.5, 60 45 M60 45 C60 55, 55 60, 45 60 M60 45 C60 55, 55 60, 45 60 M45 60 C34.71 60, 24.43 60, 15 60 M45 60 C34.87 60, 24.75 60, 15 60 M15 60 C5 60, 0 55, 0 45 M15 60 C5 60, 0 55, 0 45 M0 45 C0 38.97, 0 32.93, 0 15 M0 45 C0 34.61, 0 24.21, 0 15 M0 15 C0 5, 5 0, 15 0 M0 15 C0 5, 5 0, 15 0" stroke="#1e1e1e" stroke-width="2" fill="none"></path></g><g transform="translate(377.29000091552734 147.5) rotate(0 2.7099990844726562 12.5)"><text x="2.7099990844726562" y="17.52" font-family="Virgil, Segoe UI Emoji" font-size="20px" fill="#1e1e1e" text-anchor="middle" style="white-space: pre;" direction="ltr" dominant-baseline="alphabetic">1</text></g><g stroke-linecap="round" transform="translate(290 130) rotate(0 30 30)"><path d="M15 0 C22.42 0, 29.85 0, 45 0 C55 0, 60 5, 60 15 C60 22.2, 60 29.39, 60 45 C60 55, 55 60, 45 60 C35.95 60, 26.9 60, 15 60 C5 60, 0 55, 0 45 C0 37.58, 0 30.15, 0 15 C0 5, 5 0, 15 0" stroke="none" stroke-width="0" fill="#ffc9c9"></path><path d="M15 0 C25.43 0, 35.86 0, 45 0 M15 0 C22.82 0, 30.65 0, 45 0 M45 0 C55 0, 60 5, 60 15 M45 0 C55 0, 60 5, 60 15 M60 15 C60 24.97, 60 34.94, 60 45 M60 15 C60 24.15, 60 33.3, 60 45 M60 45 C60 55, 55 60, 45 60 M60 45 C60 55, 55 60, 45 60 M45 60 C33.08 60, 21.16 60, 15 60 M45 60 C37.12 60, 29.24 60, 15 60 M15 60 C5 60, 0 55, 0 45 M15 60 C5 60, 0 55, 0 45 M0 45 C0 37.71, 0 30.43, 0 15 M0 45 C0 36.81, 0 28.62, 0 15 M0 15 C0 5, 5 0, 15 0 M0 15 C0 5, 5 0, 15 0" stroke="#1e1e1e" stroke-width="2" fill="none"></path></g><g transform="translate(317.29000091552734 147.5) rotate(0 2.7099990844726562 12.5)"><text x="2.7099990844726562" y="17.52" font-family="Virgil, Segoe UI Emoji" font-size="20px" fill="#1e1e1e" text-anchor="middle" style="white-space: pre;" direction="ltr" dominant-baseline="alphabetic">1</text></g><g stroke-linecap="round" transform="translate(510 70) rotate(0 30 30)"><path d="M15 0 C23.72 0, 32.43 0, 45 0 C55 0, 60 5, 60 15 C60 24.85, 60 34.7, 60 45 C60 55, 55 60, 45 60 C35.41 60, 25.81 60, 15 60 C5 60, 0 55, 0 45 C0 33.59, 0 22.19, 0 15 C0 5, 5 0, 15 0" stroke="none" stroke-width="0" fill="#ffc9c9"></path><path d="M15 0 C26.6 0, 38.2 0, 45 0 M15 0 C21.89 0, 28.78 0, 45 0 M45 0 C55 0, 60 5, 60 15 M45 0 C55 0, 60 5, 60 15 M60 15 C60 22.28, 60 29.55, 60 45 M60 15 C60 23.39, 60 31.78, 60 45 M60 45 C60 55, 55 60, 45 60 M60 45 C60 55, 55 60, 45 60 M45 60 C38.65 60, 32.31 60, 15 60 M45 60 C35.93 60, 26.86 60, 15 60 M15 60 C5 60, 0 55, 0 45 M15 60 C5 60, 0 55, 0 45 M0 45 C0 33.13, 0 21.26, 0 15 M0 45 C0 36.48, 0 27.96, 0 15 M0 15 C0 5, 5 0, 15 0 M0 15 C0 5, 5 0, 15 0" stroke="#1e1e1e" stroke-width="2" fill="none"></path></g><g transform="translate(537.2900009155273 87.5) rotate(0 2.7099990844726562 12.5)"><text x="2.7099990844726562" y="17.52" font-family="Virgil, Segoe UI Emoji" font-size="20px" fill="#1e1e1e" text-anchor="middle" style="white-space: pre;" direction="ltr" dominant-baseline="alphabetic">1</text></g><g stroke-linecap="round" transform="translate(230 10) rotate(0 30 30)"><path d="M15 0 C23.39 0, 31.78 0, 45 0 C55 0, 60 5, 60 15 C60 21.59, 60 28.19, 60 45 C60 55, 55 60, 45 60 C35.8 60, 26.59 60, 15 60 C5 60, 0 55, 0 45 C0 33.96, 0 22.93, 0 15 C0 5, 5 0, 15 0" stroke="none" stroke-width="0" fill="#b2f2bb"></path><path d="M15 0 C26.85 0, 38.7 0, 45 0 M15 0 C21.32 0, 27.63 0, 45 0 M45 0 C55 0, 60 5, 60 15 M45 0 C55 0, 60 5, 60 15 M60 15 C60 21.94, 60 28.88, 60 45 M60 15 C60 25.71, 60 36.42, 60 45 M60 45 C60 55, 55 60, 45 60 M60 45 C60 55, 55 60, 45 60 M45 60 C34.7 60, 24.41 60, 15 60 M45 60 C33.8 60, 22.61 60, 15 60 M15 60 C5 60, 0 55, 0 45 M15 60 C5 60, 0 55, 0 45 M0 45 C0 36.31, 0 27.62, 0 15 M0 45 C0 38.32, 0 31.64, 0 15 M0 15 C0 5, 5 0, 15 0 M0 15 C0 5, 5 0, 15 0" stroke="#1e1e1e" stroke-width="2" fill="none"></path></g><g transform="translate(250 27.5) rotate(0 10 12.5)"><text x="10" y="17.52" font-family="Virgil, Segoe UI Emoji" font-size="20px" fill="#1e1e1e" text-anchor="middle" style="white-space: pre;" direction="ltr" dominant-baseline="alphabetic">或</text></g><g stroke-linecap="round" transform="translate(290 10) rotate(0 30 30)"><path d="M15 0 C24.95 0, 34.9 0, 45 0 C55 0, 60 5, 60 15 C60 23.08, 60 31.16, 60 45 C60 55, 55 60, 45 60 C37.28 60, 29.56 60, 15 60 C5 60, 0 55, 0 45 C0 37.75, 0 30.5, 0 15 C0 5, 5 0, 15 0" stroke="none" stroke-width="0" fill="#b2f2bb"></path><path d="M15 0 C26.55 0, 38.1 0, 45 0 M15 0 C26.29 0, 37.58 0, 45 0 M45 0 C55 0, 60 5, 60 15 M45 0 C55 0, 60 5, 60 15 M60 15 C60 25.41, 60 35.83, 60 45 M60 15 C60 24.38, 60 33.77, 60 45 M60 45 C60 55, 55 60, 45 60 M60 45 C60 55, 55 60, 45 60 M45 60 C33.87 60, 22.74 60, 15 60 M45 60 C36.16 60, 27.32 60, 15 60 M15 60 C5 60, 0 55, 0 45 M15 60 C5 60, 0 55, 0 45 M0 45 C0 37.52, 0 30.03, 0 15 M0 45 C0 37.19, 0 29.37, 0 15 M0 15 C0 5, 5 0, 15 0 M0 15 C0 5, 5 0, 15 0" stroke="#1e1e1e" stroke-width="2" fill="none"></path></g><g transform="translate(313.12000274658203 27.5) rotate(0 6.879997253417969 12.5)"><text x="6.879997253417969" y="17.52" font-family="Virgil, Segoe UI Emoji" font-size="20px" fill="#1e1e1e" text-anchor="middle" style="white-space: pre;" direction="ltr" dominant-baseline="alphabetic">0</text></g><g stroke-linecap="round" transform="translate(350 10) rotate(0 30 30)"><path d="M15 0 C25.53 0, 36.06 0, 45 0 C55 0, 60 5, 60 15 C60 23.73, 60 32.46, 60 45 C60 55, 55 60, 45 60 C36.74 60, 28.49 60, 15 60 C5 60, 0 55, 0 45 C0 34.87, 0 24.73, 0 15 C0 5, 5 0, 15 0" stroke="none" stroke-width="0" fill="#b2f2bb"></path><path d="M15 0 C26.47 0, 37.94 0, 45 0 M15 0 C21.69 0, 28.37 0, 45 0 M45 0 C55 0, 60 5, 60 15 M45 0 C55 0, 60 5, 60 15 M60 15 C60 24.28, 60 33.56, 60 45 M60 15 C60 23.69, 60 32.39, 60 45 M60 45 C60 55, 55 60, 45 60 M60 45 C60 55, 55 60, 45 60 M45 60 C33.21 60, 21.41 60, 15 60 M45 60 C38.27 60, 31.54 60, 15 60 M15 60 C5 60, 0 55, 0 45 M15 60 C5 60, 0 55, 0 45 M0 45 C0 36.06, 0 27.11, 0 15 M0 45 C0 35.88, 0 26.77, 0 15 M0 15 C0 5, 5 0, 15 0 M0 15 C0 5, 5 0, 15 0" stroke="#1e1e1e" stroke-width="2" fill="none"></path></g><g transform="translate(377.29000091552734 27.5) rotate(0 2.7099990844726562 12.5)"><text x="2.7099990844726562" y="17.52" font-family="Virgil, Segoe UI Emoji" font-size="20px" fill="#1e1e1e" text-anchor="middle" style="white-space: pre;" direction="ltr" dominant-baseline="alphabetic">1</text></g></svg>